<svg width="64" height="64" viewBox="0 0 64 64" fill="none" xmlns="http://www.w3.org/2000/svg">
<path d="M27 47.667C27 48.7218 27.3128 49.7528 27.8988 50.6299C28.4848 51.5069 29.3177 52.1904 30.2922 52.594C31.2666 52.9977 32.3389 53.1033 33.3734 52.8975C34.4079 52.6918 35.3582 52.1838 36.104 51.438C36.8498 50.6922 37.3578 49.7419 37.5635 48.7074C37.7693 47.6729 37.6637 46.6006 37.26 45.6261C36.8564 44.6517 36.1729 43.8188 35.2959 43.2328C34.4188 42.6468 33.3878 42.334 32.333 42.334C30.9186 42.334 29.5621 42.8959 28.562 43.896C27.5619 44.8961 27 46.2526 27 47.667ZM27 31.667C27 32.7218 27.3128 33.7528 27.8988 34.6299C28.4848 35.5069 29.3177 36.1904 30.2922 36.594C31.2666 36.9977 32.3389 37.1033 33.3734 36.8975C34.4079 36.6918 35.3582 36.1838 36.104 35.438C36.8498 34.6922 37.3578 33.7419 37.5635 32.7074C37.7693 31.6729 37.6637 30.6006 37.26 29.6261C36.8564 28.6517 36.1729 27.8188 35.2959 27.2328C34.4188 26.6468 33.3878 26.334 32.333 26.334C30.9186 26.334 29.5621 26.8959 28.562 27.896C27.5619 28.8961 27 30.2526 27 31.667ZM27 15.667C27 16.7218 27.3128 17.7528 27.8988 18.6298C28.4848 19.5069 29.3177 20.1904 30.2922 20.594C31.2666 20.9977 32.3389 21.1033 33.3734 20.8975C34.4079 20.6917 35.3582 20.1838 36.104 19.438C36.8498 18.6922 37.3578 17.7419 37.5635 16.7074C37.7693 15.6729 37.6637 14.6006 37.26 13.6261C36.8564 12.6517 36.1729 11.8188 35.2959 11.2328C34.4188 10.6468 33.3878 10.334 32.333 10.334C30.9186 10.334 29.5621 10.8959 28.562 11.896C27.5619 12.8961 27 14.2526 27 15.667Z" fill="white"/>
</svg>
