<svg width="18" height="31" viewBox="0 0 18 31" fill="none" xmlns="http://www.w3.org/2000/svg">
<path d="M17.0172 0.82819C16.4867 0.297897 15.7673 0 15.0172 0C14.2671 0 13.5477 0.297897 13.0172 0.82819L0.828207 13.0142C0.297915 13.5447 1.71661e-05 14.2641 1.71661e-05 15.0142C1.71661e-05 15.7643 0.297915 16.4837 0.828207 17.0142L13.0172 29.2002C13.5477 29.7305 14.2671 30.0284 15.0172 30.0284C15.7673 30.0284 16.4867 29.7305 17.0172 29.2002C17.5475 28.6697 17.8454 27.9503 17.8454 27.2002C17.8454 26.4501 17.5475 25.7307 17.0172 25.2002L6.82821 15.0142L17.0172 4.82819C17.5475 4.29768 17.8454 3.57829 17.8454 2.82819C17.8454 2.07809 17.5475 1.3587 17.0172 0.82819Z" fill="#242841"/>
</svg>
