<svg width="18" height="31" viewBox="0 0 18 31" fill="none" xmlns="http://www.w3.org/2000/svg">
<path d="M17.1087 0.82819C16.5782 0.297897 15.8588 0 15.1087 0C14.3586 0 13.6392 0.297897 13.1087 0.82819L0.919699 13.0142C0.389406 13.5447 0.0915089 14.2641 0.0915089 15.0142C0.0915089 15.7643 0.389406 16.4837 0.919699 17.0142L13.1087 29.2002C13.6392 29.7305 14.3586 30.0284 15.1087 30.0284C15.8588 30.0284 16.5782 29.7305 17.1087 29.2002C17.639 28.6697 17.9369 27.9503 17.9369 27.2002C17.9369 26.4501 17.639 25.7307 17.1087 25.2002L6.9197 15.0142L17.1087 4.82819C17.639 4.29768 17.9369 3.57829 17.9369 2.82819C17.9369 2.07809 17.639 1.3587 17.1087 0.82819Z" fill="#E0E4EB"/>
</svg>
