<svg xmlns="http://www.w3.org/2000/svg" xmlns:xlink="http://www.w3.org/1999/xlink" width="36" height="40" viewBox="0 0 36 40">
  <defs>
    <linearGradient id="linear-gradient" x1="0.5" x2="0.5" y2="1" gradientUnits="objectBoundingBox">
      <stop offset="0" stop-color="#5fb621"/>
      <stop offset="1" stop-color="#007c30"/>
    </linearGradient>
  </defs>
  <g id="logo-simple" transform="translate(-8939 -1319)">
    <rect id="Rectangle_297" data-name="Rectangle 297" width="36" height="40" transform="translate(8939 1319)" fill="#fff" opacity="0"/>
    <g id="logo-simple-2" data-name="logo-simple" transform="translate(8939 1322)">
      <path id="Path_370" data-name="Path 370" d="M807.962,977.287c-2.528.513-3.455,1.659-3.364,3.309.126,2.317,2.675,6.736,3.893,8.706a54.108,54.108,0,0,0,7.446,9.41c2.271,2.241,3.688,2.727,6.114-.583a51.117,51.117,0,0,0,5.618-8.819,39.154,39.154,0,0,0,1.979-4.924c.638-2.123.405-4-1.668-5.384a5.355,5.355,0,0,1,3,4.759,17.185,17.185,0,0,1-.889,5.541,62.754,62.754,0,0,1-4.254,11.159,64.536,64.536,0,0,1-4.733,8.107c-3.756,5.167-7.36,3.5-11.585,0a44.054,44.054,0,0,1-7.461-8.089,61.556,61.556,0,0,1-6.15-11.192c-1.993-4.821-.444-7.289,2.017-8.854C800.634,978.714,804.685,977.739,807.962,977.287Z" transform="translate(-795.001 -976.954)" fill-rule="evenodd" fill="url(#linear-gradient)"/>
      <path id="Path_371" data-name="Path 371" d="M829.182,987.026c3.674-.549,13.221-1.143,16.57.592a1.878,1.878,0,0,1,1.041,2.257c.337-.605.664-1.231.98-1.884a36.755,36.755,0,0,0,1.858-4.625c.6-1.993.38-3.758-1.567-5.057l-.009,0a12.684,12.684,0,0,0-2.311-.873,35.029,35.029,0,0,0-7.118-1.079c-1.016-.073-2.081-.067-3.159-.063a48.5,48.5,0,0,0-6.205.411c-2.374.481-3.244,1.557-3.159,3.107C826.205,981.661,827.958,984.949,829.182,987.026Z" transform="translate(-815.736 -976.287)" fill-rule="evenodd" fill="url(#linear-gradient)"/>
    </g>
  </g>
</svg>
