<svg id="logo-simple-white" xmlns="http://www.w3.org/2000/svg" width="30.952" height="30" viewBox="0 0 30.952 30">
  <path id="Path_370" data-name="Path 370" d="M806.145,977.287c-2.174.441-2.97,1.426-2.892,2.845.109,1.992,2.3,5.791,3.347,7.485a46.512,46.512,0,0,0,6.4,8.09c1.952,1.927,3.171,2.344,5.257-.5a43.95,43.95,0,0,0,4.83-7.582,33.657,33.657,0,0,0,1.7-4.234c.549-1.825.349-3.44-1.434-4.629a4.6,4.6,0,0,1,2.583,4.092,14.774,14.774,0,0,1-.764,4.764,53.959,53.959,0,0,1-3.657,9.595,55.5,55.5,0,0,1-4.069,6.97c-3.229,4.443-6.328,3.007-9.961,0a37.878,37.878,0,0,1-6.415-6.955,52.92,52.92,0,0,1-5.288-9.622c-1.714-4.145-.382-6.267,1.734-7.613A23.177,23.177,0,0,1,806.145,977.287Z" transform="translate(-795.001 -977.001)" fill="#fff" fill-rule="evenodd"/>
  <path id="Path_371" data-name="Path 371" d="M828.75,985.52c3.159-.472,11.367-.983,14.246.509a1.614,1.614,0,0,1,.895,1.941c.29-.52.571-1.059.843-1.62a31.586,31.586,0,0,0,1.6-3.977c.515-1.714.327-3.231-1.347-4.348l-.008,0a10.9,10.9,0,0,0-1.987-.751,30.113,30.113,0,0,0-6.12-.928c-.874-.063-1.789-.057-2.716-.054a41.721,41.721,0,0,0-5.335.354c-2.041.414-2.789,1.339-2.716,2.672C826.19,980.908,827.7,983.734,828.75,985.52Z" transform="translate(-817.189 -976.287)" fill="#fff" fill-rule="evenodd"/>
</svg>
