<svg xmlns="http://www.w3.org/2000/svg" xmlns:xlink="http://www.w3.org/1999/xlink" width="123" height="42" viewBox="0 0 123 42">
  <defs>
    <clipPath id="clip-logo-white">
      <rect width="123" height="42"/>
    </clipPath>
  </defs>
  <g id="logo-white" clip-path="url(#clip-logo-white)">
    <g id="logo-white-2" data-name="logo-white" transform="translate(-13301 -421)">
      <g id="Group_2159" data-name="Group 2159" transform="translate(13304 422)">
        <g id="Group_1544" data-name="Group 1544" transform="translate(79.428)">
          <path id="Path_370" data-name="Path 370" d="M804.632,977.287c-1.879.381-2.567,1.232-2.5,2.458.094,1.721,1.988,5.005,2.893,6.469a40.2,40.2,0,0,0,5.533,6.992c1.687,1.665,2.741,2.026,4.543-.434a37.98,37.98,0,0,0,4.174-6.553,29.091,29.091,0,0,0,1.47-3.659,3.192,3.192,0,0,0-1.24-4,3.979,3.979,0,0,1,2.232,3.536,12.77,12.77,0,0,1-.66,4.118,46.63,46.63,0,0,1-3.161,8.292,47.957,47.957,0,0,1-3.517,6.024c-2.791,3.84-5.469,2.6-8.609,0a32.734,32.734,0,0,1-5.544-6.011,45.737,45.737,0,0,1-4.57-8.316c-1.481-3.582-.33-5.416,1.5-6.579A20.031,20.031,0,0,1,804.632,977.287Z" transform="translate(-795.001 -977.039)" fill="#fff" fill-rule="evenodd"/>
          <path id="Path_371" data-name="Path 371" d="M828.39,984.266c2.73-.408,9.824-.849,12.312.44a1.4,1.4,0,0,1,.773,1.677c.25-.45.493-.915.728-1.4a27.3,27.3,0,0,0,1.381-3.437,3,3,0,0,0-1.164-3.758l-.007,0a9.427,9.427,0,0,0-1.717-.649,26.029,26.029,0,0,0-5.289-.8c-.755-.054-1.546-.05-2.347-.047a36.04,36.04,0,0,0-4.611.305c-1.764.358-2.41,1.157-2.347,2.309C826.178,980.28,827.48,982.723,828.39,984.266Z" transform="translate(-818.398 -976.287)" fill="#fff" fill-rule="evenodd"/>
        </g>
        <path id="Path_372" data-name="Path 372" d="M555.612,1092.4c1.516-.183,2.8-.957,3.236-3.25a13.284,13.284,0,0,0-.174-5.214,3.112,3.112,0,0,0-.9-1.539,4.136,4.136,0,0,0-4.85.115c-.165.133-.308.193-.308-.041l-.027-4.895-2.712.046.012,14.032c1.162.783,4.359.912,5.726.747Zm-72.724-.266c.57,0,.458.051.805-.426,2.357-3.233,4.588-10.126,4.557-13.972a12.082,12.082,0,0,0-3.318.4c-1.065,6.308-2,7.974-3.7,11.192h0c-1.7-3.218-2.637-4.885-3.7-11.192a12.08,12.08,0,0,0-3.317-.4c-.031,3.847,2.2,10.739,4.557,13.972.347.476.235.426.805.426Zm77.945-9.944.263,2.462c1.074-.1,1.952-.386,3.076-.465,1.7-.061,2.778-.1,2.725,1.126-1.268,0-2.544,0-3.862.011-1.6.013-2.926.774-2.75,4.021.212,3.9,4.843,3.614,6.957,2.05v.876H569.7c-.064-3.982.225-8.165-.493-9.3-1.371-2.159-5.86-1.366-8.374-.786Zm-57.906,9.613q-.136-1.2-.273-2.41a23.662,23.662,0,0,1-4.141.45c-1.295-.043-1.777-.665-1.771-2.511a2.276,2.276,0,0,0,1.713.8c1.69.019,3.27.047,4.937-.015.074-3.073.34-5.754-2.729-6.409a9.113,9.113,0,0,0-4.086.09,2.97,2.97,0,0,0-2.31,2.291c-.7,2.41-.5,5.982,1.05,7.36,1.78,1.582,5.367,1.018,7.611.35Zm-4.942-7.709h1.356a1.234,1.234,0,0,1,1.231,1.231v.546h-3.817v-.546a1.234,1.234,0,0,1,1.231-1.231Zm86.705,8.156.084-4.514c.005-.276.252.094.318.205a18.763,18.763,0,0,0,3.048,3.96c.374.375.451.348,1.116.348H592.1a15.71,15.71,0,0,1-4.337-5.171c-.222-.479-.211-.425.107-.874.412-.475.931-1.116,1.5-1.769l2.423-2.853c.012-.023.024-.045.034-.066h-2.577c-.473,0-.456-.073-.789.287-.981,1.06-2.107,2.3-3.014,3.3a2.157,2.157,0,0,1-.358.3c-.373.268-.306.2-.307-.188l-.024-7.667-2.745.019-.035,14.685Zm-63.72-.352-.241-2.394a19.5,19.5,0,0,1-3.864.3c-1.316-.148-1.478-.843-1.49-1.912-.008-.648-.026-1.376.011-2.014a1.416,1.416,0,0,1,1.479-1.573,19.522,19.522,0,0,1,3.864.3l.241-2.394c-4.719-1.115-7.663-.559-8.322,3.1a16.454,16.454,0,0,0,.112,4c.836,3.2,3.719,3.652,8.21,2.59Zm-14.814-10.227h-1.726q-.007,1.268-.015,2.536l1.741.012c0,.857,0,1.767,0,2.628,0,.907-.01,1.757-.006,2.495a3.119,3.119,0,0,0,.82,2.481,2.092,2.092,0,0,0,1.074.361,8.689,8.689,0,0,0,3.319-.235q-.044-1.089-.088-2.178c-1.061.106-2.361.335-2.359-.209,0-1.85,0-3.488,0-5.337l2.507-.011q0-1.265-.005-2.53l-2.5-.012q0-1.261,0-2.521l-2.76,0q0,1.257,0,2.515Zm-16.851,10.578,2.683.052.1-10.589-2.792.014.011,10.523Zm36.567-10.72h2.407a3.429,3.429,0,0,1,3.419,3.419v4.044a3.429,3.429,0,0,1-3.419,3.419h-2.407a3.429,3.429,0,0,1-3.419-3.419v-4.044a3.429,3.429,0,0,1,3.419-3.419Zm.525,2.566a1.234,1.234,0,0,0-1.231,1.231v3.288a1.234,1.234,0,0,0,1.231,1.231h1.356a1.234,1.234,0,0,0,1.231-1.231v-3.288a1.234,1.234,0,0,0-1.231-1.231Zm9.781,8.154q.037-4.046.075-8.093l2.016,0a.993.993,0,0,1,1.063.921v.373l.007,6.8h2.708l.075-8.1,2.211,0a.962.962,0,0,1,1.078.991l.01,7.113h2.683l.092-7.65a2.63,2.63,0,0,0-2.719-2.954l-1.755.016a2.264,2.264,0,0,0-1.894.733c-.407.423-.209.427-.58.031a2.56,2.56,0,0,0-2.026-.778h-1.238a2.408,2.408,0,0,0-1.8.838c-.449.454-.4.6-.4-.107v-.663h0l-2.308.011q.006,5.262.011,10.523Zm37.989,0q.038-4.046.077-8.093l2.045,0a.99.99,0,0,1,1.078.978q0,3.559.007,7.118h2.747q.033-3.539.067-7.078c.018-1.87-.717-3.525-2.934-3.525H576a2.424,2.424,0,0,0-1.767.784c-.47.454-.457.7-.457-.021v-.7H571.43c0,3.508.012,7.033.016,10.541Zm-10.207-4.562h2.99v1.563c0,.648-1.889.676-3.089.649-.879-.02-.776,0-.815-.78-.014-.291,0-.582,0-.875,0-.6.123-.558.916-.558Zm-7.786-1.887v2.9a1.234,1.234,0,0,1-1.231,1.231h-1.385c-.966,0-.973.013-.973-1.364v-3.119c0-1.377.007-1.364.973-1.364h1.385a1.234,1.234,0,0,1,1.231,1.231Z" transform="translate(-474.211 -1052.47)" fill="#fff" fill-rule="evenodd"/>
      </g>
    </g>
  </g>
</svg>
