<svg xmlns="http://www.w3.org/2000/svg" xmlns:xlink="http://www.w3.org/1999/xlink" width="117.659" height="40" viewBox="0 0 117.659 40">
  <defs>
    <linearGradient id="linear-gradient" x1="0.878" y1="0.637" x2="0.081" y2="0.056" gradientUnits="objectBoundingBox">
      <stop offset="0" stop-color="#175731"/>
      <stop offset="0.4" stop-color="#1c6937"/>
      <stop offset="1" stop-color="#84b92c"/>
    </linearGradient>
    <linearGradient id="linear-gradient-2" x1="0.158" y1="0.018" x2="0.828" y2="0.841" gradientUnits="objectBoundingBox">
      <stop offset="0" stop-color="#175731"/>
      <stop offset="0.3" stop-color="#1c6937"/>
      <stop offset="1" stop-color="#84b92c"/>
    </linearGradient>
  </defs>
  <g id="logo" transform="translate(-3058.4 -451.342)">
    <g id="Group_2098" data-name="Group 2098" transform="translate(3137.67 451.342)">
      <path id="Path_446" data-name="Path 446" d="M3388.8,452.662c-1.875.38-2.562,1.23-2.495,2.453.094,1.718,1.984,5,2.887,6.456a40.141,40.141,0,0,0,5.522,6.978c1.684,1.662,2.735,2.022,4.534-.433a37.89,37.89,0,0,0,4.166-6.54,29.022,29.022,0,0,0,1.468-3.652,3.187,3.187,0,0,0-1.237-3.993,3.97,3.97,0,0,1,2.227,3.529,12.732,12.732,0,0,1-.659,4.109,46.525,46.525,0,0,1-3.155,8.276,47.838,47.838,0,0,1-3.51,6.012c-2.785,3.832-5.458,2.593-8.591,0a32.679,32.679,0,0,1-5.533-6,45.68,45.68,0,0,1-4.561-8.3c-1.478-3.575-.329-5.406,1.5-6.566A19.986,19.986,0,0,1,3388.8,452.662Z" transform="translate(-3379.19 -452.336)" fill-rule="evenodd" fill="url(#linear-gradient)"/>
      <path id="Path_447" data-name="Path 447" d="M3410.409,459.821c2.9-.434,10.439-.9,13.083.468a1.482,1.482,0,0,1,.822,1.782c.266-.478.524-.972.774-1.487a29.021,29.021,0,0,0,1.468-3.652,3.187,3.187,0,0,0-1.237-3.993l-.008,0a10,10,0,0,0-1.825-.689,27.648,27.648,0,0,0-5.62-.852c-.8-.058-1.643-.053-2.494-.05a38.294,38.294,0,0,0-4.9.325c-1.875.38-2.562,1.229-2.494,2.453C3408.058,455.585,3409.442,458.181,3410.409,459.821Z" transform="translate(-3400.861 -451.342)" fill-rule="evenodd" fill="url(#linear-gradient-2)"/>
    </g>
    <path id="Path_448" data-name="Path 448" d="M3139.64,567.741c1.513-.183,2.8-.955,3.229-3.244a13.257,13.257,0,0,0-.173-5.2,3.1,3.1,0,0,0-.9-1.536,4.128,4.128,0,0,0-4.841.115c-.165.133-.307.192-.307-.041l-.026-4.885-2.707.045.012,14c1.16.781,4.35.91,5.715.746Zm-72.58-.266c.569,0,.457.051.8-.425,2.353-3.227,4.579-10.106,4.548-13.945a12.06,12.06,0,0,0-3.311.4c-1.063,6.3-2,7.958-3.695,11.17h0c-1.7-3.212-2.631-4.875-3.695-11.17a12.058,12.058,0,0,0-3.311-.4c-.031,3.839,2.2,10.718,4.548,13.945.347.475.235.425.8.425Zm77.791-9.925.263,2.458c1.072-.1,1.948-.385,3.07-.465,1.693-.061,2.773-.1,2.719,1.124-1.265,0-2.539,0-3.854.011-1.594.013-2.92.772-2.744,4.013.212,3.893,4.833,3.607,6.944,2.046v.874h2.454c-.064-3.974.224-8.148-.492-9.277-1.369-2.155-5.848-1.364-8.358-.784Zm-57.792,9.594q-.136-1.2-.273-2.405a23.608,23.608,0,0,1-4.133.449c-1.292-.043-1.773-.663-1.768-2.506a2.273,2.273,0,0,0,1.71.8c1.687.018,3.264.047,4.927-.015.074-3.067.339-5.743-2.724-6.4a9.1,9.1,0,0,0-4.078.09,2.964,2.964,0,0,0-2.305,2.287c-.7,2.405-.5,5.97,1.048,7.345,1.776,1.579,5.356,1.016,7.6.35Zm-4.932-7.694h1.353a1.232,1.232,0,0,1,1.228,1.228v.545h-3.81v-.545a1.232,1.232,0,0,1,1.229-1.228Zm86.534,8.14.084-4.5c0-.276.251.094.317.2a18.731,18.731,0,0,0,3.042,3.952c.374.375.45.347,1.114.347h2.839a15.674,15.674,0,0,1-4.329-5.161c-.221-.478-.211-.424.107-.872.411-.474.929-1.113,1.5-1.766l2.418-2.847c.012-.022.024-.044.034-.066h-2.572c-.472,0-.455-.073-.788.286-.979,1.058-2.1,2.295-3.008,3.294a2.156,2.156,0,0,1-.358.3c-.372.268-.3.2-.306-.187l-.024-7.652-2.74.019-.035,14.656Zm-63.593-.351-.241-2.39a19.467,19.467,0,0,1-3.856.3c-1.313-.148-1.475-.842-1.487-1.909-.008-.646-.026-1.373.011-2.01a1.413,1.413,0,0,1,1.476-1.569,19.491,19.491,0,0,1,3.856.3l.241-2.39c-4.71-1.113-7.648-.557-8.306,3.094a16.423,16.423,0,0,0,.112,4c.835,3.193,3.712,3.645,8.194,2.585Zm-14.785-10.207h-1.722q-.007,1.265-.015,2.531l1.738.012c0,.856,0,1.764-.005,2.623,0,.905-.01,1.753-.006,2.49a3.113,3.113,0,0,0,.819,2.476,2.089,2.089,0,0,0,1.072.36,8.673,8.673,0,0,0,3.312-.234q-.044-1.087-.088-2.173c-1.059.105-2.357.334-2.355-.209,0-1.846,0-3.481,0-5.327l2.5-.011-.005-2.525-2.495-.012q0-1.258,0-2.516l-2.755,0q0,1.255,0,2.51Zm-16.818,10.557,2.678.052.1-10.568-2.786.014.011,10.5Zm36.495-10.7h2.4a3.422,3.422,0,0,1,3.412,3.412v4.036a3.422,3.422,0,0,1-3.412,3.412h-2.4a3.422,3.422,0,0,1-3.412-3.412V560.3a3.422,3.422,0,0,1,3.412-3.412Zm.525,2.561a1.232,1.232,0,0,0-1.228,1.228v3.282a1.232,1.232,0,0,0,1.228,1.228h1.353a1.232,1.232,0,0,0,1.228-1.228v-3.282a1.232,1.232,0,0,0-1.228-1.228Zm9.761,8.138q.037-4.038.075-8.077l2.012,0a.991.991,0,0,1,1.061.919v.372l.007,6.788h2.7l.075-8.085,2.206,0a.96.96,0,0,1,1.075.989l.01,7.1h2.678l.092-7.635a2.625,2.625,0,0,0-2.713-2.949l-1.752.016a2.259,2.259,0,0,0-1.891.732c-.406.422-.209.426-.579.031a2.554,2.554,0,0,0-2.022-.777h-1.235a2.4,2.4,0,0,0-1.792.837c-.448.453-.395.6-.395-.108v-.661h0l-2.3.011q.006,5.251.011,10.5Zm37.914,0q.038-4.038.076-8.077l2.04,0a.988.988,0,0,1,1.077.976q0,3.552.007,7.1h2.742q.033-3.532.066-7.064c.018-1.866-.716-3.518-2.928-3.518h-1.253a2.421,2.421,0,0,0-1.763.782c-.469.454-.456.7-.456-.02v-.7l-2.341,0c0,3.5.012,7.019.016,10.52Zm-10.187-4.553h2.984v1.56c0,.647-1.885.675-3.083.648-.878-.02-.775,0-.813-.778-.014-.29,0-.581,0-.873,0-.6.123-.557.914-.557Zm-7.771-1.884v2.9a1.232,1.232,0,0,1-1.228,1.228h-1.382c-.965,0-.971.013-.971-1.361V560.8c0-1.374.007-1.361.971-1.361h1.382a1.232,1.232,0,0,1,1.228,1.228Z" transform="translate(0 -76.473)" fill="#11361a" fill-rule="evenodd"/>
  </g>
</svg>
