<svg id="ic_note_green" data-name="ic/note/green" xmlns="http://www.w3.org/2000/svg" width="12" height="12" viewBox="0 0 12 12">
  <g id="ic_note_green-2" data-name="ic/note/green">
    <g id="ic_arrow_45degree" data-name="ic/arrow/45degree">
      <g id="cirlce_orange" data-name="cirlce/orange" fill="none" stroke="#72bf00" stroke-miterlimit="10" stroke-width="1.36">
        <circle cx="6" cy="6" r="6" stroke="none"/>
        <circle cx="6" cy="6" r="5.32" fill="none"/>
      </g>
    </g>
    <g id="Group_5" data-name="Group 5" transform="translate(4 3)">
      <path id="Stroke_1" data-name="Stroke 1" d="M0,.979a2.6,2.6,0,0,1,3.634-.4A1.744,1.744,0,0,1,2.381,3.46v.652" transform="translate(0.028 0.038)" fill="none" stroke="#72bf00" stroke-miterlimit="10" stroke-width="1.36"/>
      <path id="Stroke_3" data-name="Stroke 3" d="M.891,1.5H.609A.609.609,0,0,1,0,.891V.609A.609.609,0,0,1,.609,0H.891A.609.609,0,0,1,1.5.609V.891A.609.609,0,0,1,.891,1.5Z" transform="translate(1.771 5.013)" fill="#72bf00"/>
    </g>
  </g>
</svg>
