<svg xmlns="http://www.w3.org/2000/svg" width="40" height="40" viewBox="0 0 40 40">
  <g id="ic_phone-hotline" transform="translate(-1317 -285)">
    <g id="Group_2551" data-name="Group 2551" transform="translate(1317 285)">
      <g id="Rectangle_318" data-name="Rectangle 318" fill="#fff" stroke="#707070" stroke-width="1" opacity="0">
        <rect width="40" height="40" stroke="none"/>
        <rect x="0.5" y="0.5" width="39" height="39" fill="none"/>
      </g>
      <g id="Group_2552" data-name="Group 2552" transform="translate(3.333 0.222)">
        <path id="icons8_phone" d="M23.506,28.04h-.027C19.2,27.9,14.191,23.754,10.738,20.3S3.137,11.832,3,7.574C2.954,6.08,6.621,3.424,6.658,3.4A1.763,1.763,0,0,1,9.1,3.57c.293.406,3.071,4.619,3.374,5.1a2,2,0,0,1-.124,1.974c-.215.41-.931,1.669-1.266,2.256a29.773,29.773,0,0,0,3.3,3.758,29.906,29.906,0,0,0,3.759,3.3c.587-.335,1.846-1.052,2.257-1.268a2.018,2.018,0,0,1,1.964-.128c.51.312,4.709,3.1,5.1,3.375a1.447,1.447,0,0,1,.575,1.076,2.093,2.093,0,0,1-.4,1.371C27.611,24.419,24.987,28.04,23.506,28.04Z" transform="translate(-3.001 7.789)" fill="#72bf00"/>
        <g id="icons8_wi-fi_1" transform="translate(17.31 0) rotate(45)">
          <path id="Path_568" data-name="Path 568" d="M18.529,9.39a6.973,6.973,0,0,0-10.266,0m14.4-4.632a13,13,0,0,0-18.529,0M0,0" transform="translate(0 0)" fill="none" stroke="rgba(255,255,255,0.7)" stroke-linecap="round" stroke-linejoin="round" stroke-width="2"/>
          <path id="Path_569" data-name="Path 569" d="M1.252,0A1.252,1.252,0,1,0,2.5,1.252,1.252,1.252,0,0,0,1.252,0Z" transform="translate(12.028 12.654)" fill="rgba(255,255,255,0.7)" stroke="rgba(255,255,255,0.7)" stroke-width="1"/>
        </g>
      </g>
    </g>
  </g>
</svg>
