<svg width="64" height="64" viewBox="0 0 64 64" fill="none" xmlns="http://www.w3.org/2000/svg">
<path d="M27.378 8.00005C24.5294 7.99507 21.7187 8.65352 19.1687 9.92323C16.6187 11.1929 14.3994 13.039 12.6866 15.3152C10.9738 17.5914 9.81464 20.2352 9.30086 23.0372C8.78708 25.8391 8.93284 28.7221 9.72659 31.458C10.5203 34.1938 11.9403 36.7072 13.8739 38.799C15.8075 40.8909 18.2017 42.5037 20.8668 43.5098C23.5318 44.5158 26.3946 44.8875 29.2282 44.5952C32.0618 44.303 34.7884 43.3549 37.192 41.826L50.445 55.08L55.032 50.493L41.947 37.441C44.0272 34.7273 45.3057 31.4852 45.6376 28.0821C45.9696 24.679 45.3417 21.2509 43.8252 18.1864C42.3087 15.1218 39.9641 12.5433 37.0572 10.7429C34.1503 8.94255 30.7973 7.99238 27.378 8.00005ZM27.378 12.317C30.1527 12.317 32.8651 13.1398 35.1721 14.6814C37.4792 16.2229 39.2773 18.4139 40.3391 20.9774C41.401 23.5408 41.6788 26.3616 41.1375 29.083C40.5962 31.8043 39.26 34.3041 37.298 36.266C35.3361 38.228 32.8363 39.5642 30.115 40.1055C27.3936 40.6468 24.5728 40.369 22.0094 39.3072C19.4459 38.2453 17.2549 36.4472 15.7134 34.1401C14.1718 31.8331 13.349 29.1207 13.349 26.346C13.3452 24.5027 13.7055 22.6767 14.4091 20.9729C15.1128 19.2691 16.146 17.721 17.4495 16.4175C18.753 15.114 20.3011 14.0808 22.0049 13.3772C23.7087 12.6735 25.5347 12.3132 27.378 12.317Z" fill="white"/>
</svg>
