<svg width="64" height="64" viewBox="0 0 64 64" fill="none" xmlns="http://www.w3.org/2000/svg">
<path d="M40.7719 18.8001C40.2414 18.2698 39.522 17.9719 38.7719 17.9719C38.0218 17.9719 37.3024 18.2698 36.7719 18.8001L24.5829 30.9861C24.0526 31.5166 23.7547 32.236 23.7547 32.9861C23.7547 33.7362 24.0526 34.4555 24.5829 34.9861L36.7719 47.1721C37.3024 47.7023 38.0218 48.0002 38.7719 48.0002C39.522 48.0002 40.2414 47.7023 40.7719 47.1721C41.3022 46.6415 41.6001 45.9222 41.6001 45.1721C41.6001 44.422 41.3022 43.7026 40.7719 43.1721L30.5829 32.9861L40.7719 22.8001C41.3022 22.2695 41.6001 21.5502 41.6001 20.8001C41.6001 20.05 41.3022 19.3306 40.7719 18.8001Z" fill="#E0E4EB"/>
</svg>
