<svg width="64" height="64" viewBox="0 0 64 64" fill="none" xmlns="http://www.w3.org/2000/svg">
<path d="M40.772 18.8001C40.2415 18.2698 39.5221 17.9719 38.772 17.9719C38.0219 17.9719 37.3025 18.2698 36.772 18.8001L24.583 30.9861C24.0527 31.5166 23.7548 32.236 23.7548 32.9861C23.7548 33.7362 24.0527 34.4555 24.583 34.9861L36.772 47.1721C37.3025 47.7023 38.0219 48.0002 38.772 48.0002C39.5221 48.0002 40.2415 47.7023 40.772 47.1721C41.3023 46.6415 41.6002 45.9222 41.6002 45.1721C41.6002 44.422 41.3023 43.7026 40.772 43.1721L30.583 32.9861L40.772 22.8001C41.3023 22.2695 41.6002 21.5502 41.6002 20.8001C41.6002 20.05 41.3023 19.3306 40.772 18.8001Z" fill="white"/>
</svg>
