<svg width="54" height="54" viewBox="0 0 54 54" fill="none" xmlns="http://www.w3.org/2000/svg">
<path d="M26.668 1.87585e-08C21.3937 -0.000197764 16.2378 1.56363 11.8523 4.49371C7.46685 7.4238 4.04872 11.5885 2.0302 16.4613C0.0116889 21.334 -0.51655 26.6959 0.512289 31.8689C1.54113 37.0418 4.08084 41.7935 7.81024 45.5231C11.5396 49.2526 16.2913 51.7925 21.4642 52.8215C26.6371 53.8506 31.999 53.3225 36.8718 51.3042C41.7446 49.2859 45.9095 45.8679 48.8397 41.4825C51.77 37.0971 53.334 31.9413 53.334 26.667C53.3341 23.1651 52.6445 19.6974 51.3045 16.4621C49.9644 13.2267 48.0003 10.2869 45.5241 7.81064C43.0479 5.33437 40.1082 3.37008 36.8729 2.02992C33.6375 0.68977 30.1699 1.62961e-08 26.668 1.87585e-08ZM26.668 40C25.9608 39.9997 25.2826 39.7187 24.7825 39.2186C24.2824 38.7185 24.0013 38.0403 24.001 37.333V26.667C24.0013 25.9597 24.2824 25.2815 24.7825 24.7814C25.2826 24.2813 25.9608 24.0003 26.668 24C27.3753 24.0003 28.0535 24.2813 28.5536 24.7814C29.0537 25.2815 29.3347 25.9597 29.335 26.667V37.333C29.3347 38.0403 29.0537 38.7185 28.5536 39.2186C28.0535 39.7187 27.3753 39.9997 26.668 40ZM28.001 18.667H25.334C24.9804 18.6667 24.6413 18.5261 24.3914 18.2759C24.1414 18.0258 24.001 17.6866 24.001 17.333V14.667C24.0013 14.3135 24.1418 13.9746 24.3917 13.7247C24.6417 13.4748 24.9806 13.3343 25.334 13.334H28.001C28.3545 13.3343 28.6934 13.4748 28.9433 13.7247C29.1932 13.9746 29.3337 14.3135 29.334 14.667V17.334C29.3337 17.6875 29.1932 18.0264 28.9433 18.2763C28.6934 18.5262 28.3545 18.6667 28.001 18.667Z" fill="white"/>
</svg>
