<svg width="48" height="59" viewBox="0 0 48 59" fill="none" xmlns="http://www.w3.org/2000/svg">
<path d="M8 0C8 0 2.667 7.72 2.667 10.667C2.667 12.0815 3.22892 13.4381 4.22915 14.4384C5.22937 15.4386 6.58597 16.0005 8.0005 16.0005C9.41503 16.0005 10.7716 15.4386 11.7719 14.4384C12.7721 13.4381 13.334 12.0815 13.334 10.667C13.333 7.72 8 0 8 0ZM24 0C24 0 18.667 7.72 18.667 10.667C18.667 12.0815 19.2289 13.4381 20.2291 14.4384C21.2294 15.4386 22.586 16.0005 24.0005 16.0005C25.415 16.0005 26.7716 15.4386 27.7719 14.4384C28.7721 13.4381 29.334 12.0815 29.334 10.667C29.333 7.72 24 0 24 0ZM40 0C40 0 34.667 7.72 34.667 10.667C34.667 12.0815 35.2289 13.4381 36.2291 14.4384C37.2294 15.4386 38.586 16.0005 40.0005 16.0005C41.415 16.0005 42.7716 15.4386 43.7719 14.4384C44.7721 13.4381 45.334 12.0815 45.334 10.667C45.333 7.72 40 0 40 0ZM8 18.667C7.29275 18.6673 6.61454 18.9483 6.11444 19.4484C5.61434 19.9485 5.33327 20.6267 5.333 21.334V24.49C3.77651 25.0365 2.4278 26.0522 1.47267 27.3972C0.517554 28.7423 0.00303278 30.3504 0 32V36.672L1.318 38.177C1.83363 38.7247 2.45586 39.1611 3.14642 39.4595C3.83698 39.7578 4.58126 39.9117 5.3335 39.9117C6.08574 39.9117 6.83002 39.7578 7.52058 39.4595C8.21114 39.1611 8.83337 38.7247 9.349 38.177L14.672 32.1L19.99 38.178C20.5056 38.7258 21.1278 39.1624 21.8183 39.4608C22.5089 39.7592 23.2532 39.9131 24.0055 39.9131C24.7578 39.9131 25.5021 39.7592 26.1927 39.4608C26.8832 39.1624 27.5054 38.7258 28.021 38.178L33.339 32.1L38.657 38.178C39.1726 38.7258 39.7948 39.1624 40.4853 39.4608C41.1759 39.7592 41.9202 39.9131 42.6725 39.9131C43.4248 39.9131 44.1691 39.7592 44.8597 39.4608C45.5502 39.1624 46.1724 38.7258 46.688 38.178L48 36.672V32C47.997 30.3504 47.4824 28.7423 46.5273 27.3972C45.5722 26.0522 44.2235 25.0365 42.667 24.49V21.333C42.6739 20.9785 42.61 20.6262 42.479 20.2966C42.3481 19.9671 42.1528 19.667 41.9045 19.4139C41.6562 19.1607 41.36 18.9596 41.033 18.8223C40.7061 18.6851 40.3551 18.6144 40.0005 18.6144C39.6459 18.6144 39.2949 18.6851 38.968 18.8223C38.641 18.9596 38.3448 19.1607 38.0965 19.4139C37.8482 19.667 37.6529 19.9671 37.5219 20.2966C37.391 20.6262 37.3271 20.9785 37.334 21.333V24H26.667V21.333C26.6535 20.6347 26.3666 19.9696 25.868 19.4806C25.3694 18.9916 24.6989 18.7176 24.0005 18.7176C23.3021 18.7176 22.6316 18.9916 22.133 19.4806C21.6344 19.9696 21.3475 20.6347 21.334 21.333V24H10.667V21.333C10.6665 20.6259 10.3853 19.948 9.88521 19.4481C9.38513 18.9482 8.70708 18.6673 8 18.667ZM14.667 40.2L13.36 41.695C12.3589 42.8387 11.1249 43.7553 9.74065 44.3832C8.35644 45.0112 6.85399 45.336 5.334 45.336C3.45412 45.3172 1.61311 44.7985 0 43.833V56C0.000265037 56.7073 0.281337 57.3855 0.781439 57.8856C1.28154 58.3857 1.95975 58.6667 2.667 58.667H45.333C46.0403 58.6667 46.7185 58.3857 47.2186 57.8856C47.7187 57.3855 47.9997 56.7073 48 56V43.833C45.8782 45.1082 43.374 45.5927 40.9297 45.2009C38.4854 44.8092 36.2581 43.5664 34.641 41.692L33.333 40.2L32.026 41.695C31.0247 42.8385 29.7907 43.7548 28.4065 44.3826C27.0223 45.0104 25.5199 45.3352 24 45.3352C22.4801 45.3352 20.9777 45.0104 19.5935 44.3826C18.2093 43.7548 16.9753 42.8385 15.974 41.695L14.667 40.2Z" fill="#242841"/>
</svg>
