<svg width="49" height="6" viewBox="0 0 49 6" fill="none" xmlns="http://www.w3.org/2000/svg">
<path d="M46.333 0.33302H3.66701C3.31249 0.326154 2.96017 0.390049 2.63064 0.52097C2.30111 0.65189 2.001 0.847208 1.74786 1.0955C1.49472 1.34378 1.29362 1.64006 1.15635 1.96699C1.01907 2.29392 0.948364 2.64494 0.948364 2.99952C0.948364 3.3541 1.01907 3.70512 1.15635 4.03205C1.29362 4.35898 1.49472 4.65525 1.74786 4.90354C2.001 5.15183 2.30111 5.34715 2.63064 5.47807C2.96017 5.60899 3.31249 5.67289 3.66701 5.66602H46.333C47.0313 5.6525 47.6964 5.36562 48.1854 4.86703C48.6744 4.36843 48.9484 3.69791 48.9484 2.99952C48.9484 2.30113 48.6744 1.63061 48.1854 1.13201C47.6964 0.633418 47.0313 0.346542 46.333 0.33302V0.33302Z" fill="#242841"/>
</svg>
