<svg width="53" height="54" viewBox="0 0 53 54" fill="none" xmlns="http://www.w3.org/2000/svg">
<path d="M11.05 0.00994154C10.7023 -0.0206179 10.352 0.017899 10.0192 0.123275C9.68641 0.228651 9.37777 0.398804 9.11102 0.623941L0.947016 7.48994C0.420124 7.94843 0.0944475 8.59556 0.0401651 9.29189C-0.0141172 9.98822 0.207341 10.678 0.656817 11.2126C1.10629 11.7472 1.74781 12.0838 2.44311 12.1499C3.13842 12.216 3.83187 12.0063 4.37402 11.5659L12.537 4.69994C12.9393 4.36049 13.232 3.90947 13.3782 3.40382C13.5244 2.89816 13.5175 2.36052 13.3585 1.85877C13.1994 1.35701 12.8952 0.913633 12.4844 0.584588C12.0735 0.255542 11.5744 0.0555806 11.05 0.00994154ZM41.613 0.00994154C41.0885 0.0555351 40.5894 0.255621 40.1786 0.584902C39.7678 0.914182 39.4639 1.35787 39.3053 1.85986C39.1466 2.36186 39.1404 2.89961 39.2874 3.40514C39.4344 3.91066 39.728 4.36126 40.131 4.69994L48.291 11.5639C48.5564 11.8042 48.8674 11.9884 49.2056 12.1057C49.5437 12.223 49.9021 12.271 50.2592 12.2467C50.6163 12.2223 50.9648 12.1263 51.284 11.9642C51.6031 11.8022 51.8863 11.5774 52.1167 11.3035C52.347 11.0295 52.5197 10.7119 52.6246 10.3696C52.7294 10.0274 52.7641 9.66754 52.7267 9.31156C52.6893 8.95559 52.5805 8.61081 52.4069 8.29782C52.2332 7.98483 51.9983 7.71007 51.716 7.48994L43.558 0.623941C43.2901 0.398718 42.9804 0.228554 42.6467 0.123194C42.3129 0.017834 41.9617 -0.0206515 41.613 0.00994154ZM26.332 5.56294C21.5931 5.56274 16.9606 6.96781 13.0203 9.60044C9.07995 12.2331 6.00878 15.9751 4.19515 20.3532C2.38152 24.7313 1.90689 29.5488 2.83128 34.1967C3.75567 38.8445 6.03756 43.1139 9.38838 46.4649C12.7392 49.8158 17.0085 52.0979 21.6563 53.0225C26.3041 53.9471 31.1217 53.4726 35.4999 51.6592C39.8781 49.8457 43.6202 46.7747 46.253 42.8345C48.8858 38.8943 50.291 34.2618 50.291 29.5229C50.2913 26.3765 49.6718 23.2608 48.4678 20.3538C47.2639 17.4468 45.4991 14.8054 43.2742 12.5804C41.0494 10.3555 38.4081 8.59061 35.5011 7.38654C32.5942 6.18247 29.4785 5.56281 26.332 5.56294ZM26.332 16.2119C27.0374 16.213 27.7136 16.4939 28.2121 16.993C28.7106 17.4921 28.9908 18.1685 28.991 18.8739V30.5419L35.791 33.9419C36.1108 34.094 36.3971 34.3084 36.633 34.5724C36.869 34.8365 37.0499 35.1449 37.1652 35.4797C37.2805 35.8145 37.3279 36.169 37.3045 36.5223C37.2812 36.8757 37.1876 37.2208 37.0293 37.5376C36.8709 37.8543 36.651 38.1363 36.3824 38.367C36.1137 38.5977 35.8018 38.7726 35.4648 38.8813C35.1278 38.99 34.7725 39.0304 34.4196 39.0001C34.0668 38.9698 33.7236 38.8695 33.41 38.7049L25.141 34.5659C24.6998 34.345 24.3287 34.0058 24.069 33.5863C23.8092 33.1668 23.6711 32.6834 23.67 32.1899V18.8739C23.6703 18.168 23.9508 17.4911 24.45 16.9919C24.9492 16.4928 25.6261 16.2122 26.332 16.2119Z" fill="white"/>
</svg>
