<svg width="49" height="49" viewBox="0 0 49 49" fill="none" xmlns="http://www.w3.org/2000/svg">
<path d="M46.333 22.333H27.667V3.66701C27.6739 3.31249 27.61 2.96017 27.4791 2.63064C27.3481 2.30111 27.1528 2.001 26.9045 1.74786C26.6562 1.49472 26.36 1.29362 26.033 1.15635C25.7061 1.01907 25.3551 0.948364 25.0005 0.948364C24.6459 0.948364 24.2949 1.01907 23.968 1.15635C23.641 1.29362 23.3448 1.49472 23.0965 1.74786C22.8482 2.001 22.6529 2.30111 22.522 2.63064C22.391 2.96017 22.3271 3.31249 22.334 3.66701V22.333H3.66701C3.31249 22.3261 2.96017 22.39 2.63064 22.521C2.30111 22.6519 2.001 22.8472 1.74786 23.0955C1.49472 23.3438 1.29362 23.64 1.15635 23.967C1.01907 24.2939 0.948364 24.6449 0.948364 24.9995C0.948364 25.3541 1.01907 25.7051 1.15635 26.032C1.29362 26.359 1.49472 26.6552 1.74786 26.9035C2.001 27.1518 2.30111 27.3471 2.63064 27.4781C2.96017 27.609 3.31249 27.6729 3.66701 27.666H22.333V46.333C22.3465 47.0313 22.6334 47.6964 23.132 48.1854C23.6306 48.6744 24.3011 48.9484 24.9995 48.9484C25.6979 48.9484 26.3684 48.6744 26.867 48.1854C27.3656 47.6964 27.6525 47.0313 27.666 46.333V27.667H46.333C47.0313 27.6535 47.6964 27.3666 48.1854 26.868C48.6744 26.3694 48.9484 25.6989 48.9484 25.0005C48.9484 24.3021 48.6744 23.6316 48.1854 23.133C47.6964 22.6344 47.0313 22.3475 46.333 22.334V22.333Z" fill="#242841"/>
</svg>
