<svg width="64" height="64" viewBox="0 0 64 64" fill="none" xmlns="http://www.w3.org/2000/svg">
<path d="M23.228 45.1999C23.7585 45.7302 24.4779 46.0281 25.228 46.0281C25.9781 46.0281 26.6975 45.7302 27.228 45.1999L39.417 33.0139C39.9473 32.4834 40.2452 31.764 40.2452 31.0139C40.2452 30.2638 39.9473 29.5445 39.417 29.0139L27.228 16.8279C26.6975 16.2977 25.9781 15.9998 25.228 15.9998C24.4779 15.9998 23.7585 16.2977 23.228 16.8279C22.6977 17.3585 22.3998 18.0778 22.3998 18.8279C22.3998 19.578 22.6977 20.2974 23.228 20.8279L33.417 31.0139L23.228 41.1999C22.6977 41.7305 22.3998 42.4498 22.3998 43.1999C22.3998 43.95 22.6977 44.6694 23.228 45.1999Z" fill="#242841"/>
</svg>
