<svg width="64" height="64" viewBox="0 0 64 64" fill="none" xmlns="http://www.w3.org/2000/svg">
<path d="M23.2281 45.1999C23.7586 45.7302 24.478 46.0281 25.2281 46.0281C25.9782 46.0281 26.6976 45.7302 27.2281 45.1999L39.4171 33.0139C39.9474 32.4834 40.2453 31.764 40.2453 31.0139C40.2453 30.2638 39.9474 29.5445 39.4171 29.0139L27.2281 16.8279C26.6976 16.2977 25.9782 15.9998 25.2281 15.9998C24.478 15.9998 23.7586 16.2977 23.2281 16.8279C22.6978 17.3585 22.3999 18.0778 22.3999 18.8279C22.3999 19.578 22.6978 20.2974 23.2281 20.8279L33.4171 31.0139L23.2281 41.1999C22.6978 41.7305 22.3999 42.4498 22.3999 43.1999C22.3999 43.95 22.6978 44.6694 23.2281 45.1999Z" fill="#E0E4EB"/>
</svg>
