<svg width="64" height="64" viewBox="0 0 64 64" fill="none" xmlns="http://www.w3.org/2000/svg">
<path d="M45.1999 40.772C45.7302 40.2415 46.0281 39.5221 46.0281 38.772C46.0281 38.0219 45.7302 37.3025 45.1999 36.772L33.0139 24.583C32.4834 24.0527 31.764 23.7548 31.0139 23.7548C30.2638 23.7548 29.5445 24.0527 29.0139 24.583L16.8279 36.772C16.2977 37.3025 15.9998 38.0219 15.9998 38.772C15.9998 39.5221 16.2977 40.2415 16.8279 40.772C17.3585 41.3023 18.0778 41.6002 18.8279 41.6002C19.578 41.6002 20.2974 41.3023 20.8279 40.772L31.0139 30.583L41.1999 40.772C41.7305 41.3023 42.4498 41.6002 43.1999 41.6002C43.95 41.6002 44.6694 41.3023 45.1999 40.772Z" fill="#E0E4EB"/>
</svg>
