<svg width="48" height="36" viewBox="0 0 48 36" fill="none" xmlns="http://www.w3.org/2000/svg">
<path d="M17.751 -0.00012207C17.4005 0.000244792 17.0535 0.0698731 16.73 0.204762C16.4065 0.33965 16.1129 0.537139 15.866 0.785878L0.781976 15.8699C0.53407 16.1173 0.337394 16.4112 0.203203 16.7348C0.0690113 17.0583 -6.10352e-05 17.4051 -6.10352e-05 17.7554C-6.10352e-05 18.1056 0.0690113 18.4525 0.203203 18.776C0.337394 19.0995 0.53407 19.3934 0.781976 19.6409L15.866 34.7239C16.1134 34.9718 16.4073 35.1685 16.7309 35.3027C17.0544 35.4368 17.4012 35.5059 17.7515 35.5059C18.1017 35.5059 18.4486 35.4368 18.7721 35.3027C19.0956 35.1685 19.3895 34.9718 19.637 34.7239L19.866 34.4949C20.1139 34.2474 20.3106 33.9535 20.4447 33.63C20.5789 33.3065 20.648 32.9596 20.648 32.6094C20.648 32.2591 20.5789 31.9123 20.4447 31.5888C20.3106 31.2652 20.1139 30.9713 19.866 30.7239L9.56598 20.4239H44.417C45.1152 20.4104 45.7803 20.1235 46.2694 19.6249C46.7584 19.1263 47.0323 18.4558 47.0323 17.7574C47.0323 17.059 46.7584 16.3885 46.2694 15.8899C45.7803 15.3913 45.1152 15.1044 44.417 15.0909H9.56398L19.864 4.79088C20.1119 4.54344 20.3086 4.24954 20.4427 3.926C20.5769 3.60246 20.646 3.25564 20.646 2.90538C20.646 2.55512 20.5769 2.20829 20.4427 1.88475C20.3086 1.56122 20.1119 1.26732 19.864 1.01988L19.635 0.790878C19.3885 0.541443 19.0952 0.343158 18.7719 0.207414C18.4486 0.0716698 18.1016 0.00114065 17.751 -0.00012207Z" fill="#242841"/>
</svg>
