<svg width="11" height="43" viewBox="0 0 11 43" fill="none" xmlns="http://www.w3.org/2000/svg">
<path d="M0 37.333C0 38.3878 0.312776 39.4189 0.898773 40.2959C1.48477 41.1729 2.31767 41.8564 3.29215 42.2601C4.26663 42.6637 5.33891 42.7693 6.37341 42.5635C7.40791 42.3578 8.35817 41.8498 9.104 41.104C9.84984 40.3582 10.3578 39.4079 10.5635 38.3734C10.7693 37.3389 10.6637 36.2666 10.26 35.2922C9.85641 34.3177 9.17286 33.4848 8.29585 32.8988C7.41885 32.3128 6.38777 32 5.333 32C3.9186 32 2.56213 32.5619 1.562 33.562C0.561865 34.5621 0 35.9186 0 37.333ZM0 21.333C0 22.3878 0.312776 23.4189 0.898773 24.2959C1.48477 25.1729 2.31767 25.8564 3.29215 26.2601C4.26663 26.6637 5.33891 26.7693 6.37341 26.5635C7.40791 26.3578 8.35817 25.8498 9.104 25.104C9.84984 24.3582 10.3578 23.4079 10.5635 22.3734C10.7693 21.3389 10.6637 20.2666 10.26 19.2922C9.85641 18.3177 9.17286 17.4848 8.29585 16.8988C7.41885 16.3128 6.38777 16 5.333 16C3.9186 16 2.56213 16.5619 1.562 17.562C0.561865 18.5621 0 19.9186 0 21.333ZM0 5.33301C0 6.38778 0.312776 7.41886 0.898773 8.29586C1.48477 9.17287 2.31767 9.85642 3.29215 10.2601C4.26663 10.6637 5.33891 10.7693 6.37341 10.5635C7.40791 10.3578 8.35817 9.84985 9.104 9.10402C9.84984 8.35818 10.3578 7.40793 10.5635 6.37343C10.7693 5.33893 10.6637 4.26664 10.26 3.29216C9.85641 2.31768 9.17286 1.48478 8.29585 0.898785C7.41885 0.312786 6.38777 1.14441e-05 5.333 1.14441e-05C3.9186 1.14441e-05 2.56213 0.561878 1.562 1.56201C0.561865 2.56214 0 3.91861 0 5.33301Z" fill="#242841"/>
</svg>
