<svg width="43" height="11" viewBox="0 0 43 11" fill="none" xmlns="http://www.w3.org/2000/svg">
<path d="M5.333 0C4.27824 0 3.24716 0.312776 2.37015 0.898773C1.49314 1.48477 0.809595 2.31767 0.405953 3.29215C0.00231063 4.26663 -0.1033 5.33891 0.102475 6.37341C0.30825 7.40791 0.816171 8.35817 1.562 9.104C2.30784 9.84984 3.25809 10.3578 4.29259 10.5635C5.32709 10.7693 6.39938 10.6637 7.37386 10.26C8.34833 9.85641 9.18123 9.17286 9.76723 8.29585C10.3532 7.41885 10.666 6.38777 10.666 5.333C10.666 3.9186 10.1041 2.56213 9.104 1.562C8.10387 0.561865 6.7474 0 5.333 0ZM21.333 0C20.2782 0 19.2472 0.312776 18.3701 0.898773C17.4931 1.48477 16.8096 2.31767 16.406 3.29215C16.0023 4.26663 15.8967 5.33891 16.1025 6.37341C16.3082 7.40791 16.8162 8.35817 17.562 9.104C18.3078 9.84984 19.2581 10.3578 20.2926 10.5635C21.3271 10.7693 22.3994 10.6637 23.3739 10.26C24.3483 9.85641 25.1812 9.17286 25.7672 8.29585C26.3532 7.41885 26.666 6.38777 26.666 5.333C26.666 3.9186 26.1041 2.56213 25.104 1.562C24.1039 0.561865 22.7474 0 21.333 0ZM37.333 0C36.2782 0 35.2472 0.312776 34.3702 0.898773C33.4931 1.48477 32.8096 2.31767 32.406 3.29215C32.0023 4.26663 31.8967 5.33891 32.1025 6.37341C32.3083 7.40791 32.8162 8.35817 33.562 9.104C34.3078 9.84984 35.2581 10.3578 36.2926 10.5635C37.3271 10.7693 38.3994 10.6637 39.3739 10.26C40.3483 9.85641 41.1812 9.17286 41.7672 8.29585C42.3532 7.41885 42.666 6.38777 42.666 5.333C42.666 3.9186 42.1041 2.56213 41.104 1.562C40.1039 0.561865 38.7474 0 37.333 0Z" fill="white"/>
</svg>
