<svg width="31" height="18" viewBox="0 0 31 18" fill="none" xmlns="http://www.w3.org/2000/svg">
<path d="M0.82819 0.919697C0.297897 1.4502 0 2.1696 0 2.9197C0 3.6698 0.297897 4.38919 0.82819 4.9197L13.0142 17.1087C13.5447 17.639 14.2641 17.9369 15.0142 17.9369C15.7643 17.9369 16.4837 17.639 17.0142 17.1087L29.2002 4.9197C29.7305 4.38919 30.0284 3.6698 30.0284 2.9197C30.0284 2.1696 29.7305 1.4502 29.2002 0.919697C28.6697 0.389404 27.9503 0.091507 27.2002 0.091507C26.4501 0.091507 25.7307 0.389404 25.2002 0.919697L15.0142 11.1087L4.82819 0.919697C4.29768 0.389404 3.57829 0.091507 2.82819 0.091507C2.07809 0.091507 1.3587 0.389404 0.82819 0.919697Z" fill="#E0E4EB"/>
</svg>
