<svg width="31" height="18" viewBox="0 0 31 18" fill="none" xmlns="http://www.w3.org/2000/svg">
<path d="M1.7367 0.919697C1.20641 1.4502 0.908508 2.1696 0.908508 2.9197C0.908508 3.6698 1.20641 4.38919 1.7367 4.9197L13.9227 17.1087C14.4532 17.639 15.1726 17.9369 15.9227 17.9369C16.6728 17.9369 17.3922 17.639 17.9227 17.1087L30.1087 4.9197C30.639 4.38919 30.9369 3.6698 30.9369 2.9197C30.9369 2.1696 30.639 1.4502 30.1087 0.919697C29.5782 0.389404 28.8588 0.091507 28.1087 0.091507C27.3586 0.091507 26.6392 0.389404 26.1087 0.919697L15.9227 11.1087L5.7367 0.919697C5.20619 0.389404 4.4868 0.091507 3.7367 0.091507C2.9866 0.091507 2.26721 0.389404 1.7367 0.919697Z" fill="white"/>
</svg>
