<svg width="20" height="16" viewBox="0 0 20 16" fill="none" xmlns="http://www.w3.org/2000/svg">
<path d="M19 0H1C0.447715 0 0 0.447715 0 1C0 1.55228 0.447715 2 1 2H19C19.5523 2 20 1.55228 20 1C20 0.447715 19.5523 0 19 0Z" fill="#242841"/>
<path d="M13 7H1C0.447715 7 0 7.44772 0 8C0 8.55228 0.447715 9 1 9H13C13.5523 9 14 8.55228 14 8C14 7.44772 13.5523 7 13 7Z" fill="#242841"/>
<path d="M16 14H1C0.447715 14 0 14.4477 0 15C0 15.5523 0.447715 16 1 16H16C16.5523 16 17 15.5523 17 15C17 14.4477 16.5523 14 16 14Z" fill="#242841"/>
</svg>
