<svg id="ic_star" xmlns="http://www.w3.org/2000/svg" width="12" height="12" viewBox="0 0 12 12">
  <rect id="Rectangle_358" data-name="Rectangle 358" width="12" height="12" fill="#fff" opacity="0"/>
  <g id="ic_star_orange" data-name="ic/star/orange" transform="translate(0.006 0.6)">
    <path id="Path_679" data-name="Path 679" d="M9.039,10.183,6.146,9.3,6,9.257,5.854,9.3l-2.893.881L2.9,7.159l0-.152-.087-.125L1.083,4.4l2.859-.988.144-.05.092-.122L6,.83,7.823,3.243l.092.122.144.05,2.859.988L9.185,6.882,9.1,7.007l0,.152Z" fill="#ffd824"/>
    <path id="Path_680" data-name="Path 680" d="M8.551,9.512,8.6,7.15l.006-.3.174-.25,1.353-1.937L7.9,3.887l-.288-.1-.184-.243L6,1.659,4.576,3.545l-.184.243-.288.1-2.233.772L3.225,6.6l.174.25.006.3.044,2.362,2.26-.688L6,8.735l.291.089,2.26.688m.975,1.342L6,9.78,2.473,10.854,2.405,7.168.294,4.146l3.485-1.2L6,0,8.222,2.942l3.484,1.2L9.595,7.168Z" fill="#efc814"/>
  </g>
</svg>
