<svg xmlns="http://www.w3.org/2000/svg" xmlns:xlink="http://www.w3.org/1999/xlink" width="41" height="40.08" viewBox="0 0 41 40.08">
  <defs>
    <filter id="Path_370" x="0" y="0" width="41" height="40.08" filterUnits="userSpaceOnUse">
      <feOffset dy="3" input="SourceAlpha"/>
      <feGaussianBlur stdDeviation="3" result="blur"/>
      <feFlood flood-opacity="0.161"/>
      <feComposite operator="in" in2="blur"/>
      <feComposite in="SourceGraphic"/>
    </filter>
  </defs>
  <g id="vcb-card-logo" transform="translate(9 5.787)" opacity="0.6">
    <g transform="matrix(1, 0, 0, 1, -9, -5.79)" filter="url(#Path_370)">
      <path id="Path_370-2" data-name="Path 370" d="M803.281,977.287c-1.615.328-2.207,1.06-2.149,2.114.081,1.48,1.709,4.3,2.487,5.562a34.57,34.57,0,0,0,4.757,6.012c1.451,1.432,2.356,1.742,3.906-.373a32.647,32.647,0,0,0,3.589-5.634,25.007,25.007,0,0,0,1.264-3.146,2.745,2.745,0,0,0-1.066-3.44,3.421,3.421,0,0,1,1.919,3.041,10.979,10.979,0,0,1-.568,3.54,40.082,40.082,0,0,1-2.718,7.13,41.214,41.214,0,0,1-3.024,5.18c-2.4,3.3-4.7,2.234-7.4,0a28.148,28.148,0,0,1-4.767-5.168,39.328,39.328,0,0,1-3.929-7.15c-1.274-3.08-.284-4.657,1.289-5.657A17.223,17.223,0,0,1,803.281,977.287Z" transform="translate(-786 -971.29)" fill="#fff" fill-rule="evenodd"/>
    </g>
    <path id="Path_371" data-name="Path 371" d="M828.068,983.148c2.347-.351,8.447-.73,10.586.378a1.2,1.2,0,0,1,.665,1.442c.215-.387.424-.787.626-1.2a23.476,23.476,0,0,0,1.187-2.955,2.578,2.578,0,0,0-1-3.231l-.006,0a8.111,8.111,0,0,0-1.476-.558,22.379,22.379,0,0,0-4.547-.689c-.649-.047-1.329-.043-2.018-.04a30.983,30.983,0,0,0-3.964.263c-1.517.307-2.072,1-2.018,1.985C826.167,979.721,827.287,981.821,828.068,983.148Z" transform="translate(-819.478 -976.287)" fill="#fff" fill-rule="evenodd"/>
  </g>
</svg>
