<svg id="ic_card-the" xmlns="http://www.w3.org/2000/svg" width="24" height="24" viewBox="0 0 24 24">
  <g id="Rectangle_182" data-name="Rectangle 182" fill="#fff" stroke="rgba(255,255,255,0.6)" stroke-width="1" opacity="0">
    <rect width="24" height="24" stroke="none"/>
    <rect x="0.5" y="0.5" width="23" height="23" fill="none"/>
  </g>
  <g id="Group_11" data-name="Group 11" transform="translate(1.159 4.16)">
    <path id="Stroke_3" data-name="Stroke 3" d="M0,.618H19.25" transform="translate(0.841 3.337)" fill="none" stroke="rgba(255,255,255,0.6)" stroke-miterlimit="10" stroke-width="1.3"/>
    <path id="Stroke_5" data-name="Stroke 5" d="M0,.618H19.25" transform="translate(0.841 6.348)" fill="none" stroke="rgba(255,255,255,0.6)" stroke-miterlimit="10" stroke-width="1.3"/>
    <path id="Stroke_7" data-name="Stroke 7" d="M0,.618H1.7" transform="translate(12.604 10.29)" fill="none" stroke="rgba(255,255,255,0.6)" stroke-miterlimit="10" stroke-width="1.3"/>
    <path id="Stroke_9" data-name="Stroke 9" d="M0,.618H1.7" transform="translate(15.854 10.29)" fill="none" stroke="rgba(255,255,255,0.6)" stroke-miterlimit="10" stroke-width="1.3"/>
    <path id="Stroke_1" data-name="Stroke 1" d="M16.779,14.18H2.471A2.471,2.471,0,0,1,0,11.709V2.471A2.471,2.471,0,0,1,2.471,0H16.779A2.471,2.471,0,0,1,19.25,2.471v9.239A2.471,2.471,0,0,1,16.779,14.18Z" transform="translate(1.241 0.84)" fill="none" stroke="rgba(255,255,255,0.6)" stroke-miterlimit="10" stroke-width="1.3"/>
  </g>
</svg>
