<svg width="47" height="48" viewBox="0 0 47 48" fill="none" xmlns="http://www.w3.org/2000/svg">
<path d="M18.3791 4.60318e-05C15.5304 -0.00492849 12.7198 0.653522 10.1698 1.92323C7.61975 3.19294 5.40044 5.03903 3.68766 7.31523C1.97487 9.59144 0.815675 12.2352 0.301897 15.0372C-0.21188 17.8391 -0.0661215 20.7221 0.727627 23.458C1.52138 26.1938 2.9413 28.7072 4.87492 30.799C6.80854 32.8909 9.20272 34.5037 11.8678 35.5098C14.5329 36.5158 17.3956 36.8875 20.2292 36.5952C23.0628 36.303 25.7894 35.3549 28.1931 33.826L41.4461 47.08L46.0331 42.493L32.9481 29.441C35.0282 26.7273 36.3067 23.4852 36.6387 20.0821C36.9706 16.679 36.3428 13.2509 34.8262 10.1864C33.3097 7.1218 30.9652 4.54325 28.0583 2.7429C25.1514 0.942554 21.7983 -0.00762074 18.3791 4.60318e-05ZM18.3791 4.31705C21.1537 4.31705 23.8661 5.13983 26.1732 6.68136C28.4802 8.22289 30.2784 10.4139 31.3402 12.9774C32.402 15.5408 32.6798 18.3616 32.1385 21.083C31.5972 23.8043 30.2611 26.3041 28.2991 28.266C26.3371 30.228 23.8374 31.5642 21.116 32.1055C18.3946 32.6468 15.5739 32.369 13.0104 31.3072C10.4469 30.2453 8.25591 28.4472 6.71439 26.1401C5.17286 23.8331 4.35007 21.1207 4.35007 18.346C4.34625 16.5027 4.70652 14.6767 5.41018 12.9729C6.11385 11.2691 7.14708 9.721 8.45055 8.41752C9.75402 7.11405 11.3021 6.08082 13.0059 5.37715C14.7097 4.67349 16.5357 4.31322 18.3791 4.31705Z" fill="#242841"/>
</svg>
