<svg width="47" height="48" viewBox="0 0 47 48" fill="none" xmlns="http://www.w3.org/2000/svg">
<path d="M18.379 4.60318e-05C15.5304 -0.00492849 12.7197 0.653522 10.1697 1.92323C7.61969 3.19294 5.40038 5.03903 3.6876 7.31523C1.97481 9.59144 0.815614 12.2352 0.301836 15.0372C-0.211941 17.8391 -0.0661826 20.7221 0.727566 23.458C1.52131 26.1938 2.94124 28.7072 4.87486 30.799C6.80848 32.8909 9.20266 34.5037 11.8677 35.5098C14.5328 36.5158 17.3955 36.8875 20.2292 36.5952C23.0628 36.303 25.7894 35.3549 28.193 33.826L41.446 47.08L46.033 42.493L32.948 29.441C35.0282 26.7273 36.3066 23.4852 36.6386 20.0821C36.9705 16.679 36.3427 13.2509 34.8262 10.1864C33.3097 7.1218 30.9651 4.54325 28.0582 2.7429C25.1513 0.942554 21.7983 -0.00762074 18.379 4.60318e-05ZM18.379 4.31705C21.1537 4.31705 23.8661 5.13983 26.1731 6.68136C28.4802 8.22289 30.2783 10.4139 31.3401 12.9774C32.4019 15.5408 32.6798 18.3616 32.1385 21.083C31.5971 23.8043 30.261 26.3041 28.299 28.266C26.337 30.228 23.8373 31.5642 21.1159 32.1055C18.3946 32.6468 15.5738 32.369 13.0103 31.3072C10.4469 30.2453 8.25585 28.4472 6.71433 26.1401C5.1728 23.8331 4.35001 21.1207 4.35001 18.346C4.34619 16.5027 4.70645 14.6767 5.41012 12.9729C6.11379 11.2691 7.14701 9.721 8.45049 8.41752C9.75396 7.11405 11.302 6.08082 13.0058 5.37715C14.7096 4.67349 16.5356 4.31322 18.379 4.31705Z" fill="white"/>
</svg>
