<svg width="64" height="64" viewBox="0 0 64 64" fill="none" xmlns="http://www.w3.org/2000/svg">
<path d="M53.333 29.333H34.667V10.667C34.6739 10.3125 34.61 9.96017 34.4791 9.63064C34.3481 9.30111 34.1528 9.001 33.9045 8.74786C33.6562 8.49472 33.36 8.29362 33.033 8.15635C32.7061 8.01907 32.3551 7.94836 32.0005 7.94836C31.6459 7.94836 31.2949 8.01907 30.968 8.15635C30.641 8.29362 30.3448 8.49472 30.0965 8.74786C29.8482 9.001 29.6529 9.30111 29.522 9.63064C29.391 9.96017 29.3271 10.3125 29.334 10.667V29.333H10.667C10.3125 29.3261 9.96017 29.39 9.63064 29.521C9.30111 29.6519 9.001 29.8472 8.74786 30.0955C8.49472 30.3438 8.29362 30.64 8.15635 30.967C8.01907 31.2939 7.94836 31.6449 7.94836 31.9995C7.94836 32.3541 8.01907 32.7051 8.15635 33.032C8.29362 33.359 8.49472 33.6552 8.74786 33.9035C9.001 34.1518 9.30111 34.3471 9.63064 34.4781C9.96017 34.609 10.3125 34.6729 10.667 34.666H29.333V53.333C29.3465 54.0313 29.6334 54.6964 30.132 55.1854C30.6306 55.6744 31.3011 55.9484 31.9995 55.9484C32.6979 55.9484 33.3684 55.6744 33.867 55.1854C34.3656 54.6964 34.6525 54.0313 34.666 53.333V34.667H53.333C54.0313 34.6535 54.6964 34.3666 55.1854 33.868C55.6744 33.3694 55.9484 32.6989 55.9484 32.0005C55.9484 31.3021 55.6744 30.6316 55.1854 30.133C54.6964 29.6344 54.0313 29.3475 53.333 29.334V29.333Z" fill="white"/>
</svg>
