<svg width="64" height="64" viewBox="0 0 64 64" fill="none" xmlns="http://www.w3.org/2000/svg">
<path d="M53.281 15.975C52.5884 15.9956 51.931 16.2851 51.448 16.782L24 44.23L15.219 35.449C14.7191 34.9484 14.0408 34.6669 13.3333 34.6664C12.6258 34.666 11.9471 34.9465 11.4465 35.4465C10.9459 35.9464 10.6644 36.6247 10.6639 37.3322C10.6635 38.0397 10.9441 38.7184 11.444 39.219L22.115 49.886C22.6151 50.3859 23.2933 50.6668 24.0005 50.6668C24.7077 50.6668 25.3859 50.3859 25.886 49.886L55.219 20.555C55.6042 20.1804 55.8673 19.6982 55.9739 19.1716C56.0804 18.645 56.0254 18.0984 55.816 17.6036C55.6066 17.1088 55.2527 16.6887 54.8005 16.3985C54.3484 16.1082 53.8191 15.9613 53.282 15.977L53.281 15.975Z" fill="#242841"/>
</svg>
