<svg width="64" height="64" viewBox="0 0 64 64" fill="none" xmlns="http://www.w3.org/2000/svg">
<path d="M52.281 14.975C51.5884 14.9956 50.931 15.2851 50.448 15.782L23 43.23L14.219 34.449C13.7191 33.9484 13.0408 33.6669 12.3333 33.6664C11.6258 33.666 10.9471 33.9465 10.4465 34.4465C9.94591 34.9464 9.66441 35.6247 9.66394 36.3322C9.66347 37.0397 9.94407 37.7184 10.444 38.219L21.115 48.886C21.6151 49.3859 22.2933 49.6668 23.0005 49.6668C23.7077 49.6668 24.3859 49.3859 24.886 48.886L54.219 19.555C54.6042 19.1804 54.8673 18.6982 54.9739 18.1716C55.0804 17.645 55.0254 17.0984 54.816 16.6036C54.6066 16.1088 54.2527 15.6887 53.8005 15.3985C53.3484 15.1082 52.8191 14.9613 52.282 14.977L52.281 14.975Z" fill="white"/>
</svg>
