<svg width="64" height="64" viewBox="0 0 64 64" fill="none" xmlns="http://www.w3.org/2000/svg">
<path d="M31.667 5.00001C26.3927 4.99981 21.2368 6.56364 16.8513 9.49372C12.4658 12.4238 9.0477 16.5886 7.02919 21.4613C5.01067 26.334 4.48243 31.6959 5.51127 36.8689C6.54011 42.0418 9.07982 46.7935 12.8092 50.5231C16.5386 54.2526 21.2902 56.7925 26.4632 57.8215C31.6361 58.8506 36.998 58.3225 41.8708 56.3042C46.7436 54.2859 50.9085 50.8679 53.8387 46.4825C56.769 42.0971 58.333 36.9413 58.333 31.667C58.3363 28.1642 57.6488 24.6951 56.3099 21.4583C54.971 18.2215 53.0069 15.2805 50.5301 12.8036C48.0533 10.3267 45.1124 8.36254 41.8756 7.02351C38.6388 5.68447 35.1698 4.99685 31.667 5.00001ZM44.219 40.448C44.4666 40.6956 44.663 40.9896 44.797 41.3131C44.931 41.6366 45 41.9833 45 42.3335C45 42.6837 44.931 43.0304 44.797 43.3539C44.663 43.6774 44.4666 43.9714 44.219 44.219C43.9714 44.4666 43.6774 44.663 43.3539 44.797C43.0304 44.931 42.6837 45 42.3335 45C41.9833 45 41.6366 44.931 41.3131 44.797C40.9896 44.663 40.6956 44.4666 40.448 44.219L31.667 35.438L22.886 44.219C22.6384 44.4666 22.3444 44.663 22.0209 44.797C21.6974 44.931 21.3507 45 21.0005 45C20.6503 45 20.3036 44.931 19.9801 44.797C19.6566 44.663 19.3626 44.4666 19.115 44.219C18.8674 43.9714 18.671 43.6774 18.537 43.3539C18.403 43.0304 18.334 42.6837 18.334 42.3335C18.334 41.9833 18.403 41.6366 18.537 41.3131C18.671 40.9896 18.8674 40.6956 19.115 40.448L27.9 31.667L19.119 22.886C18.6189 22.3859 18.338 21.7077 18.338 21.0005C18.338 20.2933 18.6189 19.6151 19.119 19.115C19.6191 18.6149 20.2973 18.334 21.0045 18.334C21.7117 18.334 22.3899 18.6149 22.89 19.115L31.667 27.9L40.448 19.119C40.6956 18.8714 40.9896 18.675 41.3131 18.541C41.6366 18.407 41.9833 18.338 42.3335 18.338C42.6837 18.338 43.0304 18.407 43.3539 18.541C43.6774 18.675 43.9714 18.8714 44.219 19.119C44.4666 19.3666 44.663 19.6606 44.797 19.9841C44.931 20.3076 45 20.6543 45 21.0045C45 21.3547 44.931 21.7014 44.797 22.0249C44.663 22.3485 44.4666 22.6424 44.219 22.89L35.438 31.671L44.219 40.448Z" fill="#E0E4EB"/>
</svg>
