<svg xmlns="http://www.w3.org/2000/svg" width="46" height="22" viewBox="0 0 46 22">
    <g fill="none" fill-rule="evenodd">
        <rect width="46" height="22" fill="#007AC6" rx="2"/>
        <path fill="#FFF" fill-rule="nonzero" d="M9.65 10.877h2.31l-1.155-2.832-1.155 2.832zm32.185-5.381h-5.917l-1.444 1.557-1.3-1.557H20.62l-1.155 2.548-1.155-2.548h-5.052v1.133l-.576-1.133H8.35l-4.186 9.913h5.052l.577-1.558h1.443l.577 1.558h5.629v-1.133l.433 1.133h2.887l.433-1.275v1.275h11.547l1.443-1.558 1.298 1.558h5.918l-3.753-4.957 4.186-4.956zM24.37 13.992h-1.588V8.47l-2.454 5.522h-1.443L16.433 8.47v5.522h-3.32l-.577-1.557H9.072l-.577 1.557H6.62l3.03-7.08h2.454l2.742 6.655V6.91h2.741l2.165 4.815 2.02-4.815h2.743v7.081h-.143zm14.289 0h-2.165l-1.877-2.408-2.165 2.408h-6.495v-7.08h6.639l2.02 2.265 2.165-2.266h2.02l-3.174 3.541 3.032 3.54zM27.546 8.328v1.275h3.608v1.416h-3.608v1.416h4.042l1.876-2.125-1.732-1.982h-4.186z"/>
    </g>
</svg>
