<svg xmlns="http://www.w3.org/2000/svg" width="46" height="22" viewBox="0 0 46 22">
    <g fill="none" fill-rule="evenodd">
        <rect width="46" height="22" fill="#FFF" rx="2"/>
        <g fill-rule="nonzero">
            <path fill="#FFF" d="M13 7.438h6v6.75h-6zM20.5 7.438h6v6.75h-6zM28 7.438h6v6.75h-6z"/>
            <path fill="#269732" d="M29.223 10.741h1.411c.403 0 .634.216.7.506a.68.68 0 0 1 0 .308c-.067.294-.31.505-.676.505h-1.436v-1.319zm1.942-1.492a.654.654 0 0 1 0 .28c-.075.342-.347.468-.7.468h-1.242V8.78h1.266c.398 0 .615.193.676.469zM34 2.938v12.75a2.25 2.25 0 0 1-2.25 2.25H28V12.84h3.889c.845-.006 1.579-.436 1.579-1.25 0-.053-.004-.105-.011-.156-.085-.61-.662-.992-1.422-1.05v-.03c.759-.117 1.139-.6 1.139-1.147 0-.4-.187-.724-.538-.932-.42-.248-.895-.242-1.326-.242H28V5.188a2.25 2.25 0 0 1 2.25-2.25H34z"/>
            <path fill="#034D9B" d="M13 11.612V5.187a2.25 2.25 0 0 1 2.25-2.25H19v12.75a2.248 2.248 0 0 1-2.247 2.25H13V12.67c.913.251 3.117.53 4.412.039.815-.309 1.24-.89 1.24-1.773v-2.9h-2.15v2.9c0 .586-.323 1.037-.897 1.185-.741.191-1.828-.132-2.605-.508z"/>
            <path fill="#AD1031" d="M20.5 8.711V5.187a2.25 2.25 0 0 1 2.25-2.25h3.75v12.75a2.25 2.25 0 0 1-2.248 2.25H20.5v-5.772c.598.514 1.44.708 2.22.781 1.004.089 2.09.01 3.251-.277v-1.057c-.678.338-1.523.641-2.48.545-1.052-.122-1.576-.78-1.576-1.719 0-.988.58-1.62 1.6-1.723.816-.08 1.688.163 2.456.549V8.205a10.079 10.079 0 0 0-2.89-.3c-.897.044-1.901.222-2.581.806z"/>
        </g>
    </g>
</svg>
