<svg xmlns="http://www.w3.org/2000/svg" width="46" height="22" viewBox="0 0 46 22">
    <g fill="none" fill-rule="evenodd">
        <rect width="46" height="22" fill="#FFF" rx="2"/>
        <g fill-rule="nonzero">
            <path fill="#E21836" d="M15.743 3h6.044c.844 0 1.368.71 1.172 1.586l-2.814 12.483c-.2.872-1.044 1.583-1.888 1.583h-6.044c-.714 0-1.201-.511-1.213-1.198a1.613 1.613 0 0 1 .041-.385l2.816-12.484C14.053 3.711 14.897 3 15.743 3"/>
            <path fill="#00447C" d="M21.174 3h7.028c.864 0 .475.71.271 1.586L25.589 17.07c-.202.871-.139 1.582-1.006 1.582H17.46c-.725 0-1.219-.498-1.241-1.172a1.6 1.6 0 0 1 .042-.41l2.98-12.485C19.445 3.711 20.212 3 21.078 3"/>
            <path fill="#007B84" d="M27.838 3h5.948c.618 0 1.064.38 1.183.925.023.106.033.22.03.337a1.655 1.655 0 0 1-.04.323l-2.814 12.484c-.2.872-1.045 1.583-1.89 1.583h-6.041c-.707 0-1.19-.497-1.213-1.169-.005-.132.008-.27.04-.413l2.911-12.484C26.149 3.71 26.992 3 27.838 3z"/>
            <path fill="#FEFEFE" d="M20.581 7.757c-.17-.102-.472-.07-.68.07-.206.137-.234.332-.065.435.167.098.47.07.676-.072.206-.14.237-.333.07-.433zm11.971.657l-.611 1.068-.137-1.265-.647.154.237 2.067-.739 1.197c-.02.028-.037.047-.062.056a.256.256 0 0 1-.11.015h-.02l-.159.49h.392a.64.64 0 0 0 .57-.326l2.169-3.653-.883.197zm-10.514 2.934l-.21.366c-.046.08-.123.156-.294.156h-.105l-.147.456h.348c.411 0 .605-.225.605-.225h1.088l.157-.487h-.914l.146-.266h-.674zm-6.125-2.669c-.102.391-.178.647-.355.827a.682.682 0 0 1-.481.183c-.257 0-.475-.163-.46-.43a.541.541 0 0 1 .006-.062c.127-.703.677-2.545.677-2.545h-1.026l-.532 2.103s-.13.505-.133.72a.819.819 0 0 0 .085.409c.196.357.777.42 1.108.42.568 0 .904-.054 1.178-.22.438-.267.565-.627.7-1.136.152-.571.58-2.296.58-2.296h-.831l-.516 2.027zm1.714 1.625l.367-1.497c.08-.034.159-.068.233-.068.176 0 .216.147.207.205-.008.071-.308 1.36-.308 1.36h.732l.257-1.079c.106-.398.16-.6.092-.766-.071-.184-.253-.242-.42-.242-.11 0-.312.038-.494.122-.066.032-.129.07-.195.106l.053-.229-.778.122-.503 1.966h.757zm6.195 0l.368-1.497c.08-.034.158-.068.232-.068.177 0 .216.147.207.205-.007.071-.307 1.36-.307 1.36h.732l.256-1.079c.107-.398.16-.6.093-.766-.071-.184-.253-.242-.42-.242-.11 0-.312.038-.494.122-.067.032-.13.07-.196.106l.054-.229-.779.122-.503 1.966h.757zm-4.474 0h.757l.391-1.565-.775.115-.373 1.45zm9.612-3.328c-.216-.315-.662-.321-1.177-.324H26.56l-.952 3.652h.824L26.779 9h.154c.525 0 1.029-.007 1.465-.322a1.605 1.605 0 0 0 .691-1.247.8.8 0 0 0-.129-.455zm-.877.819a.828.828 0 0 1-.43.547c-.168.084-.375.072-.586.071h-.132l.33-1.24h.324c.391 0 .515.25.514.457a.691.691 0 0 1-.02.165zm-2.75 5.64s-.04.114-.052.153c-.01.033-.053.108-.171.108h-.219v-.261h-.587v1.304c-.003.096.094.261.521.261h.486l.15-.457h-.439c-.13 0-.128-.06-.13-.156v-.3h.414c.38 0 .464-.316.493-.41l.057-.242h-.524z"/>
            <path fill="#FEFEFE" d="M25.517 11.348c-.784 0-.937.35-.937.35l.108-.35h-.631l-1.033 3.174a.524.524 0 0 0-.024.156c.003.147.09.322.503.322h.375l.167-.522h-.254c-.081 0-.065-.068-.065-.068l.37-1.122h.928c.767 0 .91-.47.978-.684l.41-1.256h-.895zm-.275 1.565h-1.044l.108-.315h1.046l-.11.315zm.274-.773s-.528-.005-.613.01c-.374.065-.531.265-.531.265l.176-.545h1.055l-.087.27zm4.531-3.8l-.014.057a.556.556 0 0 0-.424-.18c-.26 0-.488.094-.756.322-.235.204-.353.483-.423.751-.027.1-.044.256-.044.362 0 .652.565.652.702.652a.81.81 0 0 0 .504-.18l-.048.18h.757l.525-2.087-.779.122zm-.735 1.503c-.033 0-.229 0-.224-.214.002-.106.027-.225.065-.36.09-.318.209-.595.522-.595.245 0 .24.197.136.591-.03.113-.116.318-.182.417-.096.145-.206.161-.317.161zm-6.433-1.368c-.155-.195-.437-.257-.732-.258-.176 0-.599.017-.937.302-.242.207-.36.488-.433.756-.074.274-.165.768.31.952.147.06.36.077.5.077.351 0 .715-.09.995-.362.215-.22.32-.549.357-.684.12-.447.042-.656-.06-.783zm-1.22 1.368c-.033 0-.229 0-.224-.215.002-.106.031-.246.065-.36.088-.299.209-.595.522-.595.245 0 .24.197.135.592-.03.113-.115.317-.181.417-.097.145-.207.161-.317.16zm-.304 2.608l-.152.462h.442l-.13.401h-.442l-.16.49h.44l-.279.854c-.037.113-.039.341.385.341h.85l.17-.52h-.617c-.13 0-.095-.093-.095-.093l.192-.59h.91l.158-.481h-.911l.133-.402h.893l.155-.462h-1.942zm9.836.418l.157-.478h-2.106l-.154.478h.632l-.129.388h-.643l-.137.424h.565l-.503.66a.317.317 0 0 1-.265.137h-.253l.05-.15h-.219l.803-2.458h.285l.09-.27v.269c0 .226.065.327.429.327h.249l.158-.488h-.116c-.077.001-.114-.023-.107-.072v-.288h-.652c-.614 0-.993.029-1.145.069a2.066 2.066 0 0 0-.42.186l.081-.255h-.678l-.971 2.985h-.146l-.166.505h1.5l-.053.162h.641l.052-.162h.21l-.055.162h.532c.135 0 .244-.03.335-.08a.745.745 0 0 0 .233-.213l.395-.525.06.55c.015.1.054.268.465.268h.297l.171-.522h-.193c-.139 0-.168-.101-.176-.155l-.069-.534h-.32l.13-.108h.888l.14-.424h-.827l.131-.388h.824zm-3.514-1h.68l-.145.446s-.241.014-.362.041c-.205.047-.376.13-.376.13l.203-.616zm-.123 2.464h-.681l.18-.555h.68l-.179.555zm.355-1.095s-.181.022-.3.05c-.208.06-.446.147-.446.147l.209-.636h.682l-.145.439z"/>
        </g>
    </g>
</svg>
