<svg xmlns="http://www.w3.org/2000/svg" xmlns:xlink="http://www.w3.org/1999/xlink" width="46" height="22" viewBox="0 0 46 22">
    <defs>
        <path id="a" d="M0 3.001A3.006 3.006 0 0 1 3 0h40a3 3 0 0 1 3 3.001V19A3.006 3.006 0 0 1 43 22H3a3 3 0 0 1-3-3.001V3z"/>
        <linearGradient id="c" x1="30.612%" x2="74.037%" y1="84.22%" y2="35.33%">
            <stop offset="0%" stop-color="#8CC540"/>
            <stop offset="100%" stop-color="#026137"/>
        </linearGradient>
        <linearGradient id="d" x1="0%" x2="80.864%" y1="3.585%" y2="96.415%">
            <stop offset="0%" stop-color="#8CC540"/>
            <stop offset="100%" stop-color="#026137"/>
        </linearGradient>
        <linearGradient id="e" x1="0%" x2="80.864%" y1="34.879%" y2="65.121%">
            <stop offset="0%" stop-color="#8CC540"/>
            <stop offset="100%" stop-color="#026137"/>
        </linearGradient>
        <linearGradient id="f" x1="44.265%" x2="53.54%" y1="0%" y2="100%">
            <stop offset="0%" stop-color="#8CC540"/>
            <stop offset="100%" stop-color="#026137"/>
        </linearGradient>
        <linearGradient id="g" x1="35.691%" x2="58.833%" y1="0%" y2="100%">
            <stop offset="0%" stop-color="#8CC540"/>
            <stop offset="100%" stop-color="#026137"/>
        </linearGradient>
        <linearGradient id="h" x1="19.341%" x2="68.925%" y1="0%" y2="100%">
            <stop offset="0%" stop-color="#8CC540"/>
            <stop offset="100%" stop-color="#026137"/>
        </linearGradient>
        <linearGradient id="i" x1="0%" x2="80.864%" y1="23.33%" y2="76.67%">
            <stop offset="0%" stop-color="#8CC540"/>
            <stop offset="100%" stop-color="#026137"/>
        </linearGradient>
        <linearGradient id="j" x1="0%" x2="80.864%" y1="0%" y2="100%">
            <stop offset="0%" stop-color="#8CC540"/>
            <stop offset="100%" stop-color="#026137"/>
        </linearGradient>
        <linearGradient id="k" x1="15.281%" x2="71.431%" y1="0%" y2="100%">
            <stop offset="0%" stop-color="#8CC540"/>
            <stop offset="100%" stop-color="#026137"/>
        </linearGradient>
        <linearGradient id="l" x1="25.846%" x2="64.91%" y1="0%" y2="100%">
            <stop offset="0%" stop-color="#8CC540"/>
            <stop offset="100%" stop-color="#026137"/>
        </linearGradient>
        <linearGradient id="m" x1="23.387%" x2="66.427%" y1="0%" y2="100%">
            <stop offset="0%" stop-color="#8CC540"/>
            <stop offset="100%" stop-color="#026137"/>
        </linearGradient>
        <linearGradient id="n" x1="3.872%" x2="78.474%" y1="0%" y2="100%">
            <stop offset="0%" stop-color="#8CC540"/>
            <stop offset="100%" stop-color="#026137"/>
        </linearGradient>
    </defs>
    <g fill="none" fill-rule="evenodd">
        <g>
            <mask id="b" fill="#fff">
                <use xlink:href="#a"/>
            </mask>
            <path stroke="#64AD1F" stroke-width=".5" d="M.25 3.001V19A2.75 2.75 0 0 0 3 21.75h40a2.756 2.756 0 0 0 2.75-2.751V3A2.75 2.75 0 0 0 43 .25H3A2.756 2.756 0 0 0 .25 3.001z" fill="#ffffff"/>
            <g fill="url(#c)" mask="url(#b)">
                <path d="M44.697-11.513c-.21-.107-.426-.222-.645-.319.177.073 1.683.839 2.427 2.663.353.826.622 2.203.117 4.183 0 0-.123.465-.208.731-.004 0-.004.004-.004.008 0 0-.004 0-.004.007l-.003.018c-.027.08-.043.166-.078.254v.007c-.01.024-.02.042-.025.068-1.008 3.047-2.818 6.832-5.228 10.728-2.327 3.77-4.829 6.993-7.07 9.285-.009.012-.013.012-.015.019-1.01.966-1.764 1.298-2.22 1.407-.562.107-.905-.012-.905-.012-.538-.104-1.22-.562-1.847-1.078-2.857-2.173-6.468-6.057-9.91-10.836-5.543-7.717-8.63-14.955-7.473-17.207 0 0 .76-1.927 4.33-2.556h.01C5.96-12.845 1.607-9.89-.101-8.239l-.054.052c-1.344 1.324-2.142 3.184-1.74 5.92 0 0 .024.176.092.507.033.18.075.36.12.542.55 2.63 1.788 5.964 3.589 9.423.46.874.935 1.715 1.413 2.521a62.46 62.46 0 0 0 4.384 6.662c3.746 5.02 7.97 9.189 12.165 12.276.333.263.68.532 1.043.79a27.03 27.03 0 0 0 2.367 1.499c.605.36 1.263.642 1.974.826.176.045.347.081.523.108a6.61 6.61 0 0 0 1.444.109c2.097-.049 3.96-.965 5.224-2.392.07-.07.2-.206.366-.408a35.336 35.336 0 0 0 2.524-3.274c2.761-3.813 5.381-8.363 7.623-13.426 2.533-5.669 4.262-11.245 5.182-16.252a9.217 9.217 0 0 0 .148-1.776c-.03-3.22-1.407-5.723-3.588-6.98z"/>
            </g>
        </g>
        <path fill="url(#d)" d="M15.332.955c-.002-.253-.108-.449-.274-.547-.016-.009-.032-.018-.05-.026a.4.4 0 0 1 .186.21.52.52 0 0 1 .009.327l-.016.057V.98l-.007.02-.002.006a4.219 4.219 0 0 1-.398.84 4.276 4.276 0 0 1-.54.729v.001a.388.388 0 0 1-.17.11c-.043.009-.07 0-.07 0a.372.372 0 0 1-.14-.085c-.218-.17-.493-.475-.756-.85-.423-.604-.658-1.172-.57-1.348 0 0 .058-.151.33-.2h.001c-.762.101-1.094.333-1.224.462l-.004.004c-.103.104-.164.25-.133.464a.621.621 0 0 0 .016.083c.042.206.137.467.274.738.035.069.071.135.108.198.096.174.208.35.334.522a4.603 4.603 0 0 0 1.008 1.024c.063.045.123.085.18.118a.568.568 0 0 0 .3.082.54.54 0 0 0 .427-.22c.046-.053.113-.137.193-.257.21-.298.41-.655.581-1.052.193-.444.325-.882.396-1.274a.742.742 0 0 0 .01-.14" transform="translate(22 2)"/>
        <path fill="url(#e)" d="M15.093.538a.606.606 0 0 0-.254-.212c-.257-.11-.567-.127-.808-.146a5.04 5.04 0 0 0-.468-.022c-.163 0-.34.004-.484.021-.013.002-.322.05-.43.216-.055.086-.012.233.017.321.103.313.319.645.323.644.1-.016.22-.023.337-.03.098-.006.207-.01.33-.013.387-.004.727.03.961.09.043.011.086.023.119.04a.205.205 0 0 1 .093.09c0 .004.427-.714.264-1" transform="translate(22 2)"/>
        <path fill="url(#f)" d="M2.701 4.38h-.518v1.53H2.7z" transform="translate(22 2)"/>
        <path fill="url(#g)" d="M4.832 5.891a.28.28 0 0 1-.143-.11c-.066-.102-.071-.227-.073-.39v-.649h-.248V4.38h.248v-.371h.4v.37h.37v.363h-.37v.695c0 .043.003.076.007.093.004.019.008.023.009.023.001.001.003.004.014.006a.278.278 0 0 0 .07.006.65.65 0 0 0 .1-.01l.063-.012.073-.015.04.33-.053.02c-.005 0-.134.044-.289.044a.64.64 0 0 1-.218-.03" transform="translate(22 2)"/>
        <path fill="url(#h)" d="M6.22 5.932c-.116 0-.215-.01-.302-.034a.46.46 0 0 1-.222-.133c-.117-.129-.155-.326-.155-.618 0-.22.023-.385.082-.51a.446.446 0 0 1 .295-.242 1.09 1.09 0 0 1 .301-.033c.25 0 .488.058.49.06l.061.013-.05.361-.073-.016-.03-.007a2.617 2.617 0 0 0-.332-.03.85.85 0 0 0-.213.019c-.046.015-.064.03-.083.06a.3.3 0 0 0-.03.092 1.704 1.704 0 0 0-.011.233c0 .11.004.193.016.251.013.059.03.089.054.108a.168.168 0 0 0 .071.034.82.82 0 0 0 .196.016c.14 0 .274-.023.331-.034l.03-.005.073-.017.051.35-.055.017c-.006.003-.19.065-.496.065" transform="translate(22 2)"/>
        <path fill="url(#i)" d="M10.664 4.688a.372.372 0 0 0-.178-.261c-.092-.05-.21-.065-.358-.065-.09 0-.184.01-.186.01h-.02l-.185.146h-.002l-.007.005a.52.52 0 0 0-.192-.132.638.638 0 0 0-.22-.03h-.01c-.084 0-.183.01-.184.012l-.014.001-.159.123c-.006.005-.01.008-.015.01-.013.005-.017-.002-.019-.008l-.014-.12h-.333V5.91h.4V4.758a1.34 1.34 0 0 1 .371-.013c.023.006.037.013.047.017.011.011.021.023.03.06a.76.76 0 0 1 .015.165v.923h.4V4.883a.6.6 0 0 0-.013-.129c.066-.008.155-.015.241-.014.059-.001.105.002.137.009a.156.156 0 0 1 .046.017c.012.01.023.02.032.057.008.034.014.09.014.168v.92h.4v-.948c0-.107-.005-.2-.024-.275" transform="translate(22 2)"/>
        <path fill="url(#j)" d="M3.757 4.97h-.196c-.06 0-.148-.001-.233-.009a.904.904 0 0 1 .013-.11.167.167 0 0 1 .025-.066c.013-.019.024-.028.072-.04a.98.98 0 0 1 .231-.018c.07 0 .125.003.163.01a.188.188 0 0 1 .06.02c.017.012.032.029.045.073.01.032.016.077.018.136-.068.004-.14.004-.198.004m.388-.535c-.128-.055-.287-.073-.491-.073-.169 0-.316.012-.44.056a.464.464 0 0 0-.278.245c-.055.123-.08.3-.082.484.001.159.018.286.055.391a.51.51 0 0 0 .295.323c.139.058.3.07.486.072a2.21 2.21 0 0 0 .601-.082l.062-.019-.064-.344-.08.014c-.172.03-.311.056-.488.056-.062 0-.133-.001-.193-.01-.063-.012-.112-.03-.143-.064-.042-.047-.065-.139-.065-.224v-.033c.002-.003.004-.007.008-.008l.002-.002v.002h.01c.007.002.013.006.02.01l.084.071.014.01.018.004c.006 0 .115.02.337.02.233-.003.434-.022.527-.025l.072-.002.004-.061c.007-.101.01-.15.01-.204 0-.124-.01-.23-.036-.317a.428.428 0 0 0-.245-.29M8.057 5.4a.321.321 0 0 1-.026.098c-.018.031-.029.04-.069.052a.867.867 0 0 1-.21.016 1.04 1.04 0 0 1-.192-.012.125.125 0 0 1-.061-.025c-.018-.014-.036-.044-.047-.107a1.845 1.845 0 0 1-.015-.275c0-.108.003-.192.011-.253a.344.344 0 0 1 .027-.098c.018-.03.03-.04.07-.051a.825.825 0 0 1 .208-.018c.087 0 .153.003.194.012a.133.133 0 0 1 .06.026c.018.015.036.044.046.108.011.061.015.152.015.274 0 .11-.004.193-.01.254m.377-.824a.42.42 0 0 0-.26-.174c-.113-.03-.25-.041-.422-.041-.153 0-.278.008-.383.03a.568.568 0 0 0-.204.086.427.427 0 0 0-.163.26 1.691 1.691 0 0 0-.036.41c0 .149.006.27.027.372.015.078.04.142.078.197a.429.429 0 0 0 .26.175c.113.032.249.04.42.041.154-.001.28-.008.385-.03a.51.51 0 0 0 .204-.09.424.424 0 0 0 .163-.255 1.77 1.77 0 0 0 .034-.41c0-.151-.005-.272-.026-.375a.527.527 0 0 0-.077-.196" transform="translate(22 2)"/>
        <path fill="url(#k)" d="M15.307 4.688a.378.378 0 0 0-.179-.261c-.093-.05-.21-.065-.359-.065-.055 0-.162.012-.164.012l-.018.002h-.002l-.159.123a.171.171 0 0 0-.015.01c-.011.004-.017-.003-.019-.006l-.013-.124h-.338V5.91h.4V4.761a1.542 1.542 0 0 1 .397-.016.204.204 0 0 1 .046.017c.014.011.023.023.032.06.009.034.014.09.014.165v.923h.401v-.947c0-.107-.007-.2-.024-.275" transform="translate(22 2)"/>
        <path fill="url(#l)" d="M16.957 5.828l-.008-.007c-.002-.002-.003-.004-.006-.004-.453-.4-.574-.734-.574-.734l.266-.303.257-.294.132-.147-.098.002h-.375l-.513.569a.232.232 0 0 1-.03.029c-.016.01-.035.007-.035.007V3.777h-.402V5.91h.402v-.676c0-.001.03-.003.04.012 0 0 .217.428.521.662h.366v.002h.153c-.034-.027-.067-.056-.096-.082" transform="translate(22 2)"/>
        <path fill="url(#j)" d="M13.542 5.52a2.7 2.7 0 0 1-.409.042.944.944 0 0 1-.183-.016.057.057 0 0 1-.028-.028.25.25 0 0 1-.017-.105c0-.058.008-.095.017-.115.007-.016.012-.02.016-.025a.213.213 0 0 1 .064-.015h.153l.387-.008v.27zm.415-.907a.364.364 0 0 0-.164-.163c-.131-.07-.307-.089-.53-.089-.397 0-.68.077-.686.079l-.066.017.068.359.087-.02s.016-.002.045-.009c.09-.018.299-.053.506-.053a.691.691 0 0 1 .248.026.11.11 0 0 1 .059.046c.01.02.017.05.018.093l-.52.004c-.1.002-.19.009-.265.028a.386.386 0 0 0-.254.166.603.603 0 0 0-.067.316c0 .093.008.17.03.24a.35.35 0 0 0 .217.225c.11.042.245.054.42.055.108 0 .24-.013.24-.013l.026-.003.186-.122a.148.148 0 0 1 .018-.012c.012-.003.019.003.02.007l.015.122h.399V4.869c0-.1-.014-.184-.05-.256z" transform="translate(22 2)"/>
        <path fill="url(#m)" d="M12.003 5.377a.31.31 0 0 1-.031.099c-.02.034-.038.047-.075.06a.66.66 0 0 1-.184.02 2.318 2.318 0 0 1-.301-.023v-.765c.071-.014.197-.034.312-.034.071 0 .127.006.163.018a.133.133 0 0 1 .06.03c.02.019.04.055.054.113.012.059.017.141.017.245 0 .1-.004.179-.015.237m.135-.971a1.113 1.113 0 0 0-.336-.044c-.05 0-.099.006-.135.01-.014.004-.027.006-.036.007l-.186.124-.019.01c-.012.005-.02-.001-.02-.007v-.728h-.476v2.05l.056.016c.234.067.489.086.675.088.163 0 .296-.014.408-.041.17-.041.29-.133.352-.26.065-.126.08-.286.08-.491 0-.259-.027-.448-.135-.586a.467.467 0 0 0-.228-.148" transform="translate(22 2)"/>
        <path fill="url(#n)" d="M.7 5.877l.004.006.007.003c.002 0 .133.032.313.032.09 0 .194-.007.299-.032l.007-.002.003-.007c.455-.695.615-1.359.671-1.744a3.04 3.04 0 0 0 .035-.338l-.477.07c-.035.258-.162 1-.518 1.605l-.015.026-.015-.026a4.25 4.25 0 0 1-.53-1.606L0 3.799c.001.084.035 1.058.7 2.078" transform="translate(22 2)"/>
    </g>
</svg>
