<svg xmlns="http://www.w3.org/2000/svg" width="46" height="22" viewBox="0 0 46 22">
    <g fill="none" fill-rule="evenodd">
        <rect width="46" height="22" fill="#FFF" rx="2"/>
        <path fill="#222B6B" fill-rule="nonzero" d="M17.228 17.241l1.925-11.538h3.11l-1.926 11.538h-3.109zM31.666 5.99a7.799 7.799 0 0 0-2.81-.488c-3.052 0-5.246 1.567-5.266 3.809 0 1.66 1.55 2.582 2.734 3.135 1.184.554 1.617.923 1.607 1.43 0 .775-.962 1.134-1.857 1.134a6.436 6.436 0 0 1-2.936-.608l-.404-.185L22.3 16.8a9.798 9.798 0 0 0 3.465.618c3.282 0 5.409-1.55 5.428-3.948 0-1.31-.818-2.306-2.618-3.136-1.087-.535-1.752-.922-1.742-1.43.01-.506.558-.995 1.78-.995.804-.012 1.601.138 2.34.442l.279.139.414-2.5h.019zm7.979-.276l2.522 11.538h-2.888s-.279-1.329-.375-1.734H34.9l-.655 1.734h-3.272l4.63-10.58c.259-.63.934-1.011 1.636-.921h2.406v-.037zm-1.261 7.443l-.722-3.34-.202-.995c-.164.433-.433 1.134-.414 1.107.02-.028-.962 2.564-1.241 3.228h2.579zM14.62 5.713l-3.06 7.867-.318-1.623-1.098-5.276c-.14-.626-.75-1.049-1.415-.978H3.667v.24c1.152.28 2.257.715 3.282 1.291l2.762 9.998h3.302l4.908-11.52H14.62z"/>
    </g>
</svg>
