<svg width="64" height="64" viewBox="0 0 64 64" fill="none" xmlns="http://www.w3.org/2000/svg">
<path d="M17.05 5.00994C16.7023 4.97938 16.3519 5.0179 16.0192 5.12327C15.6864 5.22865 15.3777 5.3988 15.111 5.62394L6.94699 12.4899C6.42009 12.9484 6.09442 13.5956 6.04013 14.2919C5.98585 14.9882 6.20731 15.678 6.65679 16.2126C7.10626 16.7472 7.74777 17.0838 8.44308 17.1499C9.13839 17.216 9.83184 17.0063 10.374 16.5659L18.537 9.69994C18.9393 9.36049 19.232 8.90947 19.3782 8.40382C19.5244 7.89816 19.5175 7.36052 19.3584 6.85877C19.1993 6.35701 18.8952 5.91363 18.4843 5.58459C18.0735 5.25554 17.5744 5.05558 17.05 5.00994ZM47.613 5.00994C47.0885 5.05554 46.5893 5.25562 46.1785 5.5849C45.7678 5.91418 45.4639 6.35787 45.3052 6.85986C45.1466 7.36186 45.1404 7.89961 45.2874 8.40514C45.4344 8.91066 45.7279 9.36126 46.131 9.69994L54.291 16.5639C54.5563 16.8042 54.8674 16.9884 55.2055 17.1057C55.5437 17.223 55.9021 17.271 56.2592 17.2467C56.6163 17.2223 56.9648 17.1263 57.284 16.9642C57.6031 16.8022 57.8863 16.5774 58.1166 16.3035C58.347 16.0295 58.5197 15.7119 58.6245 15.3696C58.7293 15.0274 58.7641 14.6675 58.7267 14.3116C58.6893 13.9556 58.5805 13.6108 58.4069 13.2978C58.2332 12.9848 57.9982 12.7101 57.716 12.4899L49.558 5.62394C49.2901 5.39872 48.9804 5.22855 48.6466 5.12319C48.3129 5.01783 47.9616 4.97935 47.613 5.00994ZM32.332 10.5629C27.5931 10.5627 22.9606 11.9678 19.0203 14.6004C15.0799 17.2331 12.0087 20.9751 10.1951 25.3532C8.38149 29.7313 7.90686 34.5488 8.83125 39.1967C9.75564 43.8445 12.0375 48.1139 15.3884 51.4649C18.7392 54.8158 23.0084 57.0979 27.6563 58.0225C32.3041 58.9471 37.1217 58.4726 41.4999 56.6592C45.878 54.8457 49.6201 51.7747 52.2529 47.8345C54.8857 43.8943 56.291 39.2618 56.291 34.5229C56.2913 31.3765 55.6717 28.2608 54.4678 25.3538C53.2638 22.4468 51.499 19.8054 49.2742 17.5804C47.0494 15.3555 44.4081 13.5906 41.5011 12.3865C38.5941 11.1825 35.4784 10.5628 32.332 10.5629ZM32.332 21.2119C33.0374 21.213 33.7136 21.4939 34.2121 21.993C34.7106 22.4921 34.9907 23.1685 34.991 23.8739V35.5419L41.791 38.9419C42.1108 39.094 42.397 39.3084 42.633 39.5724C42.8689 39.8365 43.0499 40.1449 43.1652 40.4797C43.2805 40.8145 43.3278 41.169 43.3045 41.5223C43.2812 41.8757 43.1876 42.2208 43.0292 42.5376C42.8709 42.8543 42.651 43.1363 42.3823 43.367C42.1137 43.5977 41.8018 43.7726 41.4647 43.8813C41.1277 43.99 40.7724 44.0304 40.4196 44.0001C40.0668 43.9698 39.7236 43.8695 39.41 43.7049L31.141 39.5659C30.6998 39.345 30.3287 39.0058 30.0689 38.5863C29.8092 38.1668 29.6711 37.6834 29.67 37.1899V23.8739C29.6702 23.168 29.9508 22.4911 30.45 21.9919C30.9491 21.4928 31.6261 21.2122 32.332 21.2119Z" fill="white"/>
</svg>
