<svg width="31" height="18" viewBox="0 0 31 18" fill="none" xmlns="http://www.w3.org/2000/svg">
<path d="M29.2002 17.1087C29.7305 16.5782 30.0284 15.8588 30.0284 15.1087C30.0284 14.3586 29.7305 13.6392 29.2002 13.1087L17.0142 0.919683C16.4837 0.389391 15.7643 0.0914936 15.0142 0.0914936C14.2641 0.0914936 13.5447 0.389391 13.0142 0.919683L0.82819 13.1087C0.297897 13.6392 0 14.3586 0 15.1087C0 15.8588 0.297897 16.5782 0.82819 17.1087C1.3587 17.639 2.07809 17.9369 2.82819 17.9369C3.57829 17.9369 4.29768 17.639 4.82819 17.1087L15.0142 6.91968L25.2002 17.1087C25.7307 17.639 26.4501 17.9369 27.2002 17.9369C27.9503 17.9369 28.6697 17.639 29.2002 17.1087Z" fill="#E0E4EB"/>
</svg>
