<svg width="31" height="18" viewBox="0 0 31 18" fill="none" xmlns="http://www.w3.org/2000/svg">
<path d="M30.1087 17.1087C30.639 16.5782 30.9369 15.8588 30.9369 15.1087C30.9369 14.3586 30.639 13.6392 30.1087 13.1087L17.9227 0.919683C17.3922 0.389391 16.6728 0.0914936 15.9227 0.0914936C15.1726 0.0914936 14.4532 0.389391 13.9227 0.919683L1.7367 13.1087C1.20641 13.6392 0.908508 14.3586 0.908508 15.1087C0.908508 15.8588 1.20641 16.5782 1.7367 17.1087C2.26721 17.639 2.9866 17.9369 3.7367 17.9369C4.4868 17.9369 5.20619 17.639 5.7367 17.1087L15.9227 6.91968L26.1087 17.1087C26.6392 17.639 27.3586 17.9369 28.1087 17.9369C28.8588 17.9369 29.5782 17.639 30.1087 17.1087Z" fill="white"/>
</svg>
