<svg width="64" height="64" viewBox="0 0 64 64" fill="none" xmlns="http://www.w3.org/2000/svg">
<path d="M31.667 5C26.3927 4.9998 21.2368 6.56363 16.8513 9.49371C12.4658 12.4238 9.04771 16.5885 7.0292 21.4613C5.01068 26.334 4.48244 31.6959 5.51128 36.8689C6.54012 42.0418 9.07983 46.7935 12.8092 50.5231C16.5386 54.2526 21.2902 56.7925 26.4632 57.8215C31.6361 58.8506 36.998 58.3225 41.8708 56.3042C46.7436 54.2859 50.9085 50.8679 53.8387 46.4825C56.769 42.0971 58.333 36.9413 58.333 31.667C58.3331 28.1651 57.6435 24.6974 56.3035 21.4621C54.9634 18.2267 52.9992 15.2869 50.5231 12.8106C48.0469 10.3344 45.1072 8.37008 41.8719 7.02992C38.6365 5.68977 35.1689 5 31.667 5ZM31.667 45C30.9598 44.9997 30.2815 44.7187 29.7814 44.2186C29.2813 43.7185 29.0003 43.0403 29 42.333V31.667C29.0003 30.9597 29.2813 30.2815 29.7814 29.7814C30.2815 29.2813 30.9598 29.0003 31.667 29C32.3743 29.0003 33.0525 29.2813 33.5526 29.7814C34.0527 30.2815 34.3337 30.9597 34.334 31.667V42.333C34.3337 43.0403 34.0527 43.7185 33.5526 44.2186C33.0525 44.7187 32.3743 44.9997 31.667 45ZM33 23.667H30.333C29.9794 23.6667 29.6403 23.5261 29.3904 23.2759C29.1404 23.0258 29 22.6866 29 22.333V19.667C29.0003 19.3135 29.1408 18.9746 29.3907 18.7247C29.6407 18.4748 29.9796 18.3343 30.333 18.334H33C33.3535 18.3343 33.6924 18.4748 33.9423 18.7247C34.1922 18.9746 34.3327 19.3135 34.333 19.667V22.334C34.3327 22.6875 34.1922 23.0264 33.9423 23.2763C33.6924 23.5262 33.3535 23.6667 33 23.667Z" fill="white"/>
</svg>
