<svg width="44" height="54" viewBox="0 0 44 54" fill="none" xmlns="http://www.w3.org/2000/svg">
<path d="M17.001 0L14.334 2.667H3.66804C3.31353 2.66013 2.9612 2.72403 2.63168 2.85495C2.30215 2.98587 2.00204 3.18119 1.7489 3.42948C1.49575 3.67776 1.29466 3.97404 1.15738 4.30097C1.02011 4.6279 0.949402 4.97892 0.949402 5.3335C0.949402 5.68808 1.02011 6.0391 1.15738 6.36603C1.29466 6.69296 1.49575 6.98924 1.7489 7.23752C2.00204 7.48581 2.30215 7.68113 2.63168 7.81205C2.9612 7.94297 3.31353 8.00687 3.66804 8H41.001C41.3556 8.00687 41.7079 7.94297 42.0374 7.81205C42.3669 7.68113 42.667 7.48581 42.9202 7.23752C43.1733 6.98924 43.3744 6.69296 43.5117 6.36603C43.649 6.0391 43.7197 5.68808 43.7197 5.3335C43.7197 4.97892 43.649 4.6279 43.5117 4.30097C43.3744 3.97404 43.1733 3.67776 42.9202 3.42948C42.667 3.18119 42.3669 2.98587 42.0374 2.85495C41.7079 2.72403 41.3556 2.66013 41.001 2.667H30.334L27.668 0H17.001ZM3.66804 13.333V48C3.66791 48.7004 3.80576 49.3939 4.07372 50.041C4.34169 50.6881 4.73451 51.2761 5.22975 51.7713C5.72499 52.2665 6.31295 52.6594 6.96004 52.9273C7.60712 53.1953 8.30067 53.3331 9.00104 53.333H35.668C36.3684 53.3331 37.062 53.1953 37.7091 52.9273C38.3561 52.6594 38.9441 52.2665 39.4393 51.7713C39.9346 51.2761 40.3274 50.6881 40.5954 50.041C40.8633 49.3939 41.0012 48.7004 41.001 48V13.333H3.66804Z" fill="#242841"/>
</svg>
