<svg width="44" height="54" viewBox="0 0 44 54" fill="none" xmlns="http://www.w3.org/2000/svg">
<path d="M17.001 0L14.334 2.667H3.66798C3.31347 2.66013 2.96114 2.72403 2.63162 2.85495C2.30209 2.98587 2.00198 3.18119 1.74883 3.42948C1.49569 3.67776 1.2946 3.97404 1.15732 4.30097C1.02005 4.6279 0.949341 4.97892 0.949341 5.3335C0.949341 5.68808 1.02005 6.0391 1.15732 6.36603C1.2946 6.69296 1.49569 6.98924 1.74883 7.23752C2.00198 7.48581 2.30209 7.68113 2.63162 7.81205C2.96114 7.94297 3.31347 8.00687 3.66798 8H41.001C41.3555 8.00687 41.7078 7.94297 42.0374 7.81205C42.3669 7.68113 42.667 7.48581 42.9201 7.23752C43.1733 6.98924 43.3744 6.69296 43.5116 6.36603C43.6489 6.0391 43.7196 5.68808 43.7196 5.3335C43.7196 4.97892 43.6489 4.6279 43.5116 4.30097C43.3744 3.97404 43.1733 3.67776 42.9201 3.42948C42.667 3.18119 42.3669 2.98587 42.0374 2.85495C41.7078 2.72403 41.3555 2.66013 41.001 2.667H30.334L27.668 0H17.001ZM3.66798 13.333V48C3.66785 48.7004 3.8057 49.3939 4.07366 50.041C4.34163 50.6881 4.73445 51.2761 5.22969 51.7713C5.72493 52.2665 6.31289 52.6594 6.95997 52.9273C7.60706 53.1953 8.30061 53.3331 9.00098 53.333H35.668C36.3684 53.3331 37.0619 53.1953 37.709 52.9273C38.3561 52.6594 38.944 52.2665 39.4393 51.7713C39.9345 51.2761 40.3273 50.6881 40.5953 50.041C40.8633 49.3939 41.0011 48.7004 41.001 48V13.333H3.66798Z" fill="white"/>
</svg>
