<svg width="64" height="64" viewBox="0 0 64 64" fill="none" xmlns="http://www.w3.org/2000/svg">
<path d="M16.333 27C15.2782 27 14.2472 27.3128 13.3701 27.8988C12.4931 28.4848 11.8096 29.3177 11.406 30.2922C11.0023 31.2666 10.8967 32.3389 11.1025 33.3734C11.3082 34.4079 11.8162 35.3582 12.562 36.104C13.3078 36.8498 14.2581 37.3578 15.2926 37.5635C16.3271 37.7693 17.3994 37.6637 18.3739 37.26C19.3483 36.8564 20.1812 36.1729 20.7672 35.2959C21.3532 34.4188 21.666 33.3878 21.666 32.333C21.666 30.9186 21.1041 29.5621 20.104 28.562C19.1039 27.5619 17.7474 27 16.333 27ZM32.333 27C31.2782 27 30.2472 27.3128 29.3701 27.8988C28.4931 28.4848 27.8096 29.3177 27.406 30.2922C27.0023 31.2666 26.8967 32.3389 27.1025 33.3734C27.3082 34.4079 27.8162 35.3582 28.562 36.104C29.3078 36.8498 30.2581 37.3578 31.2926 37.5635C32.3271 37.7693 33.3994 37.6637 34.3739 37.26C35.3483 36.8564 36.1812 36.1729 36.7672 35.2959C37.3532 34.4188 37.666 33.3878 37.666 32.333C37.666 30.9186 37.1041 29.5621 36.104 28.562C35.1039 27.5619 33.7474 27 32.333 27ZM48.333 27C47.2782 27 46.2472 27.3128 45.3702 27.8988C44.4931 28.4848 43.8096 29.3177 43.406 30.2922C43.0023 31.2666 42.8967 32.3389 43.1025 33.3734C43.3083 34.4079 43.8162 35.3582 44.562 36.104C45.3078 36.8498 46.2581 37.3578 47.2926 37.5635C48.3271 37.7693 49.3994 37.6637 50.3739 37.26C51.3483 36.8564 52.1812 36.1729 52.7672 35.2959C53.3532 34.4188 53.666 33.3878 53.666 32.333C53.666 30.9186 53.1041 29.5621 52.104 28.562C51.1039 27.5619 49.7474 27 48.333 27Z" fill="#242841"/>
</svg>
