<svg width="64" height="64" viewBox="0 0 64 64" fill="none" xmlns="http://www.w3.org/2000/svg">
<path d="M25.751 14C25.4005 14.0004 25.0536 14.07 24.7301 14.2049C24.4066 14.3398 24.1129 14.5373 23.866 14.786L8.78201 29.87C8.5341 30.1174 8.33742 30.4113 8.20323 30.7349C8.06904 31.0584 7.99997 31.4052 7.99997 31.7555C7.99997 32.1058 8.06904 32.4526 8.20323 32.7761C8.33742 33.0997 8.5341 33.3936 8.78201 33.641L23.866 48.724C24.1134 48.9719 24.4073 49.1686 24.7309 49.3028C25.0544 49.437 25.4012 49.506 25.7515 49.506C26.1018 49.506 26.4486 49.437 26.7721 49.3028C27.0957 49.1686 27.3896 48.9719 27.637 48.724L27.866 48.495C28.1139 48.2476 28.3106 47.9537 28.4448 47.6301C28.579 47.3066 28.648 46.9598 28.648 46.6095C28.648 46.2592 28.579 45.9124 28.4448 45.5889C28.3106 45.2653 28.1139 44.9714 27.866 44.724L17.566 34.424H52.417C53.1153 34.4105 53.7804 34.1236 54.2694 33.625C54.7584 33.1264 55.0324 32.4559 55.0324 31.7575C55.0324 31.0591 54.7584 30.3886 54.2694 29.89C53.7804 29.3914 53.1153 29.1045 52.417 29.091H17.564L27.864 18.791C28.1119 18.5436 28.3086 18.2497 28.4428 17.9261C28.577 17.6026 28.646 17.2558 28.646 16.9055C28.646 16.5552 28.577 16.2084 28.4428 15.8849C28.3086 15.5613 28.1119 15.2674 27.864 15.02L27.635 14.791C27.3885 14.5416 27.0952 14.3433 26.7719 14.2075C26.4486 14.0718 26.1017 14.0013 25.751 14Z" fill="white"/>
</svg>
