<svg id="auto-debit" xmlns="http://www.w3.org/2000/svg" width="24" height="24" viewBox="0 0 24 24">
  <g id="Rectangle_268" data-name="Rectangle 268" fill="#fff" stroke="#707070" stroke-width="1" opacity="0">
    <rect width="24" height="24" stroke="none"/>
    <rect x="0.5" y="0.5" width="23" height="23" fill="none"/>
  </g>
  <g id="white_38_x_38_5_" data-name="white_38_x_38 (5)" transform="translate(0.612 -0.36)">
    <path id="Path_405" data-name="Path 405" d="M21.776,14.442v5.837A1.174,1.174,0,0,1,20.6,21.454H2.864a1.176,1.176,0,0,1-1.176-1.176V14.442a1.175,1.175,0,0,1,1.176-1.175H20.6a1.174,1.174,0,0,1,1.174,1.175ZM9.415,2.486l8.076-.008a1.175,1.175,0,0,1,1.176,1.176v9.613H4.8L4.784,7.116M7.831,9.108h8.061m-8.061,2.37h8.061" transform="translate(0)" fill="none" stroke="#fff" stroke-width="1.3" fill-rule="evenodd"/>
    <path id="Path_406" data-name="Path 406" d="M21.059,19.951a.745.745,0,1,1-.745-.745A.745.745,0,0,1,21.059,19.951Zm2.776,0a.745.745,0,1,1-.745-.745A.745.745,0,0,1,23.835,19.951Z" transform="translate(-4.423 -4.138)" fill="#fff" fill-rule="evenodd"/>
    <path id="Path_407" data-name="Path 407" stroke="#fff" d="M10.432,2.488,5.8,7.119h3.59a1.041,1.041,0,0,0,1.04-1.041Z" fill="none" transform="translate(-1.018 -0.002)" stroke-linecap="square" stroke-linejoin="round" stroke-width="1.3" fill-rule="evenodd"/>
  </g>
</svg>
