<svg id="ic-doiten" xmlns="http://www.w3.org/2000/svg" width="24" height="24" viewBox="0 0 24 24">
  <g id="ic_rename">
    <path id="Path_398" data-name="Path 398" d="M0,0H24V24H0Z" fill="#fff" opacity="0"/>
  </g>
  <g id="Group_1810" data-name="Group 1810" transform="translate(-8892.516 1057.504)">
    <g id="surface1" transform="translate(8909.94 -1053)">
      <path id="Path_394" data-name="Path 394" d="M60,20V32.181" transform="translate(-58.126 -19.063)" fill="none" stroke="#fff" stroke-linecap="round" stroke-width="1.3"/>
      <path id="Path_395" data-name="Path 395" d="M52,73.874A1.835,1.835,0,0,0,53.874,72a1.835,1.835,0,0,0,1.874,1.874" transform="translate(-52 -58.882)" fill="none" stroke="#fff" stroke-linecap="round" stroke-width="1.3"/>
      <path id="Path_396" data-name="Path 396" d="M52,16a1.835,1.835,0,0,1,1.874,1.874A1.835,1.835,0,0,1,55.748,16" transform="translate(-52 -16)" fill="none" stroke="#fff" stroke-linecap="round" stroke-width="1.3"/>
    </g>
    <path id="Path_397" data-name="Path 397" d="M6.916-.621H8.127L4.719-9.864H3.579L.171-.621H1.382L2.31-3.267H5.987ZM4.129-8.461h.038l1.48,4.215h-3ZM12.322-.506c1.7,0,2.831-1.352,2.831-3.446S14.02-7.4,12.341-7.4a2.362,2.362,0,0,0-2.133,1.23h-.026v-3.7H9.068V-.621h1.063V-1.749h.026A2.39,2.39,0,0,0,12.322-.506ZM12.1-6.418c1.179,0,1.909.954,1.909,2.466s-.73,2.466-1.909,2.466c-1.127,0-1.928-.98-1.928-2.466S10.977-6.418,12.1-6.418Z" transform="translate(8894 -1040.325)" fill="#fff"/>
  </g>
</svg>
