<svg xmlns="http://www.w3.org/2000/svg" width="25" height="25" viewBox="0 0 25 25">
  <g id="ic_autodebit" transform="translate(0.5 0.5)">
    <rect id="ic_autodebit_white_background" data-name="ic/autodebit/white background" width="24" height="24" fill="#fff" stroke="#fff" stroke-width="1" opacity="0"/>
    <g id="Group" transform="translate(3 3)">
      <path id="Stroke_1" data-name="Stroke 1" d="M2,0,0,15H15L13,0Z" transform="translate(2 3)" fill="none" stroke="#fff" stroke-linecap="round" stroke-linejoin="round" stroke-miterlimit="10" stroke-width="1.3"/>
      <path id="Fill_9" data-name="Fill 9" d="M4.741,4.777A1.945,1.945,0,0,1,5,5.793,2.146,2.146,0,0,1,4.466,7.28a2.3,2.3,0,0,1-1.537.7V9H2.075V7.986A2.235,2.235,0,0,1,0,6.043L1.321,5.7A1.147,1.147,0,0,0,2.535,6.812a.941.941,0,0,0,.711-.238A.8.8,0,0,0,3.473,6a.632.632,0,0,0-.227-.529,4.078,4.078,0,0,0-1.011-.457,5.922,5.922,0,0,1-1.1-.483,1.813,1.813,0,0,1-.644-.666,1.972,1.972,0,0,1-.248-1A2.214,2.214,0,0,1,.686,1.517,1.974,1.974,0,0,1,2.075.787V0h.854V.787A2.066,2.066,0,0,1,4.783,2.4l-1.177.481q-.344-.991-1.064-.991a.777.777,0,0,0-.58.221.734.734,0,0,0-.219.537.6.6,0,0,0,.211.494,3.659,3.659,0,0,0,.9.426A7.955,7.955,0,0,1,4.05,4.1a1.869,1.869,0,0,1,.691.681" transform="translate(7 6)" fill="#fff"/>
      <path id="Stroke_3" data-name="Stroke 3" d="M0,7V0H19V6.959" fill="none" stroke="#fff" stroke-linecap="round" stroke-linejoin="round" stroke-miterlimit="10" stroke-width="1.3"/>
    </g>
  </g>
</svg>
