<svg id="ic_adsl" xmlns="http://www.w3.org/2000/svg" width="24" height="24" viewBox="0 0 24 24">
  <g id="Rectangle_268" data-name="Rectangle 268" fill="#fff" stroke="#707070" stroke-width="1" opacity="0">
    <rect width="24" height="24" stroke="none"/>
    <rect x="0.5" y="0.5" width="23" height="23" fill="none"/>
  </g>
  <g id="white_38_x_38_7_" data-name="white_38_x_38 (7)" transform="translate(0.291 -0.271)">
    <path id="Path_411" data-name="Path 411" d="M19.7,19.9H3.707a2,2,0,0,1-2-2v-2.15a2,2,0,0,1,2-2H19.7a2,2,0,0,1,2,2v2.15a2,2,0,0,1-2,2ZM5.615,16.83H7.66m1.841,0h8.293m0-3.074V6.286m1.1-1.1a1.1,1.1,0,1,1-1.1-1.1,1.1,1.1,0,0,1,1.1,1.1Z" transform="translate(0)" fill="none" stroke="#fff" stroke-width="1.3" fill-rule="evenodd"/>
  </g>
</svg>
