<svg id="ic_anchor" xmlns="http://www.w3.org/2000/svg" width="24" height="24.048" viewBox="0 0 24 24.048">
  <rect id="Rectangle_359" data-name="Rectangle 359" width="24" height="24" fill="#fff" opacity="0"/>
  <g id="Ellipse_88" data-name="Ellipse 88" transform="translate(10.7 2.7)" fill="#fff" stroke="#fff" stroke-width="1">
    <circle cx="1" cy="1" r="1" stroke="none"/>
    <circle cx="1" cy="1" r="0.5" fill="none"/>
  </g>
  <path id="Path_696" data-name="Path 696" d="M-165.556,286.124c0-1.784-2.141-3.211-2.141-3.211s-2.141,1.427-2.141,3.211h1.128c0,2.059-.928,4.519-5.3,4.685l-.509-8.667h1.976a1.373,1.373,0,0,0,.922.357,1.37,1.37,0,0,0,.914-.349,1.364,1.364,0,0,0,.455-.945,1.367,1.367,0,0,0-.347-.991,1.372,1.372,0,0,0-1.022-.456,1.369,1.369,0,0,0-.912.348l-.01.009h-2.1l-.076-1.3a2.772,2.772,0,0,0,1.149-1.594,2.776,2.776,0,0,0-.27-2.124,2.806,2.806,0,0,0-2.431-1.41,2.8,2.8,0,0,0-1.387.37,2.8,2.8,0,0,0-1.039,3.817,2.8,2.8,0,0,0,.878.941l-.076,1.3h-2.1a1.373,1.373,0,0,0-.922-.357,1.37,1.37,0,0,0-.914.349,1.373,1.373,0,0,0-.108,1.935,1.371,1.371,0,0,0,1.022.457,1.368,1.368,0,0,0,.914-.35l.008-.007h1.976l-.509,8.667c-4.367-.166-5.3-2.626-5.3-4.685h1.128c0-1.784-2.141-3.211-2.141-3.211s-2.141,1.427-2.141,3.211h1.128c0,2.444.72,8.116,7.375,8.15a6.442,6.442,0,0,1,1.991,1.342l.211.208.211-.208a6.424,6.424,0,0,1,1.992-1.342c6.655-.034,7.375-5.706,7.375-8.15Z" transform="translate(187.966 -272.689)" fill="none" stroke="#fff" stroke-linecap="round" stroke-width="1.3"/>
</svg>
