<svg id="ic_account" xmlns="http://www.w3.org/2000/svg" width="24" height="24" viewBox="0 0 24 24">
  <rect id="Rectangle_178" data-name="Rectangle 178" width="24" height="24" fill="#fff" opacity="0"/>
  <g id="Group_5" data-name="Group 5" transform="translate(4 2)">
    <path id="Stroke_1" data-name="Stroke 1" d="M4,11H4C1.791,11,0,8.645,0,6.482V3.917A3.959,3.959,0,0,1,4,0,3.959,3.959,0,0,1,8,3.917V6.482C8,8.645,6.209,11,4,11Z" transform="translate(4.5)" fill="none" stroke="#fff" stroke-miterlimit="10" stroke-width="1.3"/>
    <path id="Stroke_3" data-name="Stroke 3" d="M16.58,7.685H.039s-.089-1.469,0-3.626C.47,1.554,4.022,0,4.022,0A7.034,7.034,0,0,0,8.311,1.813,7.03,7.03,0,0,0,12.6,0s3.552,1.554,3.983,4.059C16.669,6.217,16.58,7.685,16.58,7.685Z" transform="translate(0 12.001)" fill="none" stroke="#fff" stroke-miterlimit="10" stroke-width="1.3"/>
  </g>
</svg>
