<svg xmlns="http://www.w3.org/2000/svg" width="25" height="25" viewBox="0 0 25 25">
  <g id="ic_bh-xahoi" transform="translate(0.5 0.5)">
    <rect id="ic_bill_white38x38_background" data-name="ic/bill/white38x38 background" width="24" height="24" fill="rgba(0,0,0,0)" stroke="#fff" stroke-width="1" opacity="0"/>
    <g id="Group_2802" data-name="Group 2802" transform="translate(114.057 69.169)">
      <path id="icons8_shield" data-name="icons8 shield" d="M-102.057-47.01s-8.931-4.124-8.931-16.958c5.555-1.219,7.188-3.327,8.931-3.327s3.376,2.108,8.931,3.327C-93.125-51.559-102.057-47.01-102.057-47.01Z" transform="translate(0)" fill="none" stroke="#fff" stroke-linecap="round" stroke-width="1.3"/>
      <path id="Path_656" data-name="Path 656" d="M-107.617-62.857c2.85-.875,4.175-1.751,5.56-1.751a10.368,10.368,0,0,1,3.41,1c.613.234,1.316.491,2.151.747" transform="translate(0 0.938)" fill="none" stroke="#fff" stroke-linecap="round" stroke-width="1.3"/>
    </g>
    <g id="Group_2817" data-name="Group 2817" transform="translate(39.669 20.51)">
      <g id="Group_2800-2" data-name="Group 2800-2" transform="translate(0.246 -0.215)">
        <line id="Line_5" data-name="Line 5" y2="4.587" transform="translate(-27.921 -9.795)" fill="none" stroke="#fff" stroke-width="1.3"/>
        <line id="Line_6" data-name="Line 6" x2="4.587" transform="translate(-30.215 -7.501)" fill="none" stroke="#fff" stroke-width="1.3"/>
      </g>
    </g>
  </g>
</svg>
