<svg xmlns="http://www.w3.org/2000/svg" width="25" height="25" viewBox="0 0 25 25">
  <g id="ic_chungkhoan" transform="translate(0.5 0.5)">
    <rect id="ic_bill_white38x38_background" data-name="ic/bill/white38x38 background" width="24" height="24" fill="rgba(0,0,0,0)" stroke="#fff" stroke-width="1" opacity="0"/>
    <g id="Group_2793" data-name="Group 2793" transform="translate(66.788 74.8)">
      <g id="icons8_company_2" data-name="icons8 company 2">
        <path id="Path_637" data-name="Path 637" d="M-54.826-74.3h-8.93v.085a1.966,1.966,0,0,1-1.966,1.966h-.266v20.514h13.394V-72.244h-.181a2.051,2.051,0,0,1-2.051-2.051Zm2.232,6.151h8.929v16.414h-8.929" fill="none" stroke="#fff" stroke-linecap="round" stroke-linejoin="round" stroke-width="1.3"/>
        <path id="Path_650" data-name="Path 650" d="M-50.009-61.56h1.272v-1.272h-1.272Zm2.4,0h1.272v-1.272h-1.271Zm-2.4,2.347h1.272v-1.27h-1.272Zm2.4,0h1.272v-1.27h-1.271Z" transform="translate(0 -2)" fill="#fff" fill-rule="evenodd"/>
        <g id="Group_2811" data-name="Group 2811" transform="translate(-84.434 -75.832)">
          <path id="Path_677" data-name="Path 677" d="M21,15.269l2.541-2.706,2.087,2.223L28.712,11.5" transform="translate(0 -0.403)" fill="none" stroke="#fff" stroke-width="1.3"/>
          <path id="Path_678" data-name="Path 678" d="M52,11h2.178v2.319" transform="translate(-25.375 0)" fill="none" stroke="#fff" stroke-width="1.3"/>
        </g>
      </g>
    </g>
  </g>
</svg>
