<svg id="ic_card-lock" xmlns="http://www.w3.org/2000/svg" width="24" height="24" viewBox="0 0 24 24">
  <g id="Rectangle_182" data-name="Rectangle 182" fill="#fff" stroke="#fff" stroke-width="1" opacity="0">
    <rect width="24" height="24" stroke="none"/>
    <rect x="0.5" y="0.5" width="23" height="23" fill="none"/>
  </g>
  <g id="ic_home_cardservice_white" data-name="ic/home/cardservice/white" transform="translate(1.2 3.05)">
    <path id="Stroke_5" data-name="Stroke 5" d="M0,.5H19.51" transform="translate(0.8 3.457)" fill="none" stroke="#fff" stroke-miterlimit="10" stroke-width="1.3"/>
    <path id="Stroke_7" data-name="Stroke 7" d="M0,.5H19.51" transform="translate(0.8 6.561)" fill="none" stroke="#fff" stroke-miterlimit="10" stroke-width="1.3"/>
    <path id="Stroke_9" data-name="Stroke 9" d="M0,.5H1.724" transform="translate(2.968 10.591)" fill="none" stroke="#fff" stroke-miterlimit="10" stroke-width="1.3"/>
    <path id="Stroke_11" data-name="Stroke 11" d="M0,.5H1.726" transform="translate(6.261 10.591)" fill="none" stroke="#fff" stroke-miterlimit="10" stroke-width="1.3"/>
    <path id="Stroke_1" data-name="Stroke 1" d="M6,9.216H.635A.636.636,0,0,1,0,8.579V4.566A.636.636,0,0,1,.635,3.93H1.2V2.118a2.118,2.118,0,1,1,4.236,0V3.93H6a.636.636,0,0,1,.635.636V8.579A.636.636,0,0,1,6,9.216Z" transform="translate(11.719 8.825)" fill="none" stroke="#fff" stroke-miterlimit="10" stroke-width="1.3"/>
    <path id="Stroke_3" data-name="Stroke 3" d="M10.919,14.519H2.5A2.517,2.517,0,0,1,0,11.989V2.529A2.517,2.517,0,0,1,2.5,0h14.5a2.518,2.518,0,0,1,2.5,2.53v9.46a2.526,2.526,0,0,1-1.951,2.464" transform="translate(0.8 0.8)" fill="none" stroke="#fff" stroke-miterlimit="10" stroke-width="1.3"/>
  </g>
</svg>
