<svg id="ic_caidat-border" xmlns="http://www.w3.org/2000/svg" width="24" height="24" viewBox="0 0 24 24">
  <rect id="Rectangle_183" data-name="Rectangle 183" width="24" height="24" fill="#fff" opacity="0"/>
  <g id="Group_5" data-name="Group 5" transform="translate(2.479 1.48)">
    <path id="Stroke_1" data-name="Stroke 1" d="M7.679,3.839A3.84,3.84,0,1,1,3.84,0,3.839,3.839,0,0,1,7.679,3.839Z" transform="translate(6.28 6.281)" fill="none" stroke="#fff" stroke-miterlimit="10" stroke-width="1.3"/>
    <path id="Stroke_3" data-name="Stroke 3" d="M17.557,9.952v-.7a2.039,2.039,0,0,1,1.291-1.9.571.571,0,0,0,.326-.7,10.045,10.045,0,0,0-.718-1.734.568.568,0,0,0-.726-.264,2.043,2.043,0,0,1-2.255-.43l-.5-.5a2.043,2.043,0,0,1-.429-2.255.569.569,0,0,0-.264-.725A9.92,9.92,0,0,0,12.55.026a.569.569,0,0,0-.7.326,2.041,2.041,0,0,1-1.9,1.29h-.7A2.04,2.04,0,0,1,7.35.352a.569.569,0,0,0-.7-.326A9.92,9.92,0,0,0,4.916.745a.568.568,0,0,0-.264.725,2.043,2.043,0,0,1-.43,2.255l-.5.5a2.043,2.043,0,0,1-2.255.43.567.567,0,0,0-.725.264A9.92,9.92,0,0,0,.026,6.65a.569.569,0,0,0,.326.7,2.039,2.039,0,0,1,1.29,1.9v.7a2.041,2.041,0,0,1-1.29,1.9.569.569,0,0,0-.326.7,9.946,9.946,0,0,0,.718,1.734.569.569,0,0,0,.725.264,2.043,2.043,0,0,1,2.255.429l.5.5a2.043,2.043,0,0,1,.43,2.255.568.568,0,0,0,.264.725,9.92,9.92,0,0,0,1.734.718.569.569,0,0,0,.7-.325,2.04,2.04,0,0,1,1.9-1.291h.7a2.041,2.041,0,0,1,1.9,1.291.569.569,0,0,0,.7.325,9.92,9.92,0,0,0,1.734-.718.569.569,0,0,0,.264-.725,2.043,2.043,0,0,1,.429-2.255l.5-.5a2.043,2.043,0,0,1,2.255-.429.57.57,0,0,0,.726-.264,10.071,10.071,0,0,0,.718-1.734.57.57,0,0,0-.326-.7A2.041,2.041,0,0,1,17.557,9.952Z" transform="translate(0.52 0.52)" fill="none" stroke="#fff" stroke-miterlimit="10" stroke-width="1.3"/>
  </g>
</svg>
