<svg xmlns="http://www.w3.org/2000/svg" width="25" height="25" viewBox="0 0 25 25">
  <g id="ic_company" transform="translate(0.5 0.5)">
    <rect id="ic_bill_white38x38_background" data-name="ic/bill/white38x38 background" width="24" height="24" fill="rgba(0,0,0,0)" stroke="#fff" stroke-width="1" opacity="0"/>
    <g id="Group_2793" data-name="Group 2793" transform="translate(66.788 74.8)">
      <g id="icons8_company_2" data-name="icons8 company 2">
        <path id="Path_637" data-name="Path 637" d="M-54.826-74.3h-8.93v.085a1.966,1.966,0,0,1-1.966,1.966h-.266v20.514h13.394V-72.244h-.181a2.051,2.051,0,0,1-2.051-2.051Zm2.232,6.151h8.929v16.414h-8.929" fill="none" stroke="#fff" stroke-linecap="round" stroke-linejoin="round" stroke-width="1.3"/>
        <path id="Path_640" data-name="Path 640" d="M-59.085-63.639v1.312m0-8.62v1.312m-1.6,4.188v.531a1.279,1.279,0,0,0,1.277,1.277h.656a1.282,1.282,0,0,0,1.282-1.28h0v-.357a1.12,1.12,0,0,0-.716-1.045l-1.786-.693a1.12,1.12,0,0,1-.713-1.043v-.263A1.28,1.28,0,0,1-59.4-69.6h.661a1.282,1.282,0,0,1,1.282,1.28h0" transform="translate(0 4)" fill="none" stroke="#fff" stroke-linejoin="round" stroke-width="1.36"/>
        <path id="Path_650" data-name="Path 650" d="M-50.009-61.56h1.272v-1.272h-1.272Zm2.4,0h1.272v-1.272h-1.271Zm-2.4,2.347h1.272v-1.27h-1.272Zm2.4,0h1.272v-1.27h-1.271Z" transform="translate(0 -2)" fill="#fff" fill-rule="evenodd"/>
      </g>
    </g>
  </g>
</svg>
