<svg id="ic_chuyen-tien-nhanh" xmlns="http://www.w3.org/2000/svg" width="24" height="24" viewBox="0 0 24 24">
  <rect id="ic_quicktransfer_white38x38_background" data-name="ic/quicktransfer/white38x38 background" width="24" height="24" fill="none"/>
  <g id="Group_11" data-name="Group 11" transform="translate(1.159 3.932)">
    <path id="Path" d="M0,.683H17.8" transform="translate(0 2.639)" fill="none" stroke="#fff" stroke-miterlimit="10" stroke-width="1.3"/>
    <path id="Path-2" data-name="Path" d="M0,.683H15.881" transform="translate(0 5.543)" fill="none" stroke="#fff" stroke-miterlimit="10" stroke-width="1.3"/>
    <path id="Path-3" data-name="Path" d="M16.412,13.677h-14A2.4,2.4,0,0,1,0,11.294V2.383A2.4,2.4,0,0,1,2.416,0h14a2.426,2.426,0,0,1,1.674.665,2.361,2.361,0,0,1,.742,1.718" transform="translate(0 0.318)" fill="none" stroke="#fff" stroke-miterlimit="10" stroke-width="1.3"/>
    <path id="Stroke_9" data-name="Stroke 9" d="M0,9.045,5.892,0,4.54,6.6H7.732L2.083,16.2,3.6,9.045Z" transform="translate(14.12 0)" fill="none" stroke="#fff" stroke-linecap="round" stroke-linejoin="round" stroke-miterlimit="10" stroke-width="1.3"/>
  </g>
</svg>
