<svg id="ic_chuyen-tien-cmt" xmlns="http://www.w3.org/2000/svg" width="24" height="24" viewBox="0 0 24 24">
  <g id="Rectangle_267" data-name="Rectangle 267" fill="#fff" stroke="#707070" stroke-width="1" opacity="0">
    <rect width="24" height="24" stroke="none"/>
    <rect x="0.5" y="0.5" width="23" height="23" fill="none"/>
  </g>
  <g id="white_38_x_38_2_" data-name="white_38_x_38 (2)" transform="translate(-0.25 -0.347)">
    <path id="Path_400" data-name="Path 400" d="M21.591,21.031H11.133c-.753,0-1.363-.844-1.363-1.885V10.819c0-1.041.61-1.885,1.363-1.885H21.591c.753,0,1.363.845,1.363,1.885v8.326c0,1.041-.61,1.885-1.363,1.885Z" transform="translate(-1.828 -1.232)" fill="none" stroke="#fff" stroke-width="1.3" fill-rule="evenodd"/>
    <path id="Path_401" data-name="Path 401" d="M21.391,5.343a1.4,1.4,0,0,0-1.4-1.4H4.335A1.965,1.965,0,0,0,2.37,5.913v9.219A1.427,1.427,0,0,0,3.8,16.56H5.261" transform="translate(0 0)" fill="none" stroke="#fff" stroke-width="1.3" fill-rule="evenodd"/>
    <path id="Path_402" data-name="Path 402" d="M4.474,17.632l1.942,2.157L4.473,21.948" transform="translate(-0.52 -3.381)" fill="none" stroke="#fff" stroke-width="1.3" fill-rule="evenodd"/>
  </g>
</svg>
