<svg id="ic_dienthoai-co-dinh" xmlns="http://www.w3.org/2000/svg" width="24" height="24" viewBox="0 0 24 24">
  <g id="Rectangle_268" data-name="Rectangle 268" fill="#fff" stroke="#707070" stroke-width="1" opacity="0">
    <rect width="24" height="24" stroke="none"/>
    <rect x="0.5" y="0.5" width="23" height="23" fill="none"/>
  </g>
  <g id="white_38_x_38_6_" data-name="white_38_x_38 (6)" transform="translate(-0.02 0.091)">
    <path id="Path_408" data-name="Path 408" d="M9.2,21.087H4.848a.828.828,0,0,1-.828-.827V3.269a.828.828,0,0,1,.828-.828H9.2a.828.828,0,0,1,.828.828V20.259a.828.828,0,0,1-.828.828Z" fill="none" stroke="#fff" stroke-width="1.3" fill-rule="evenodd"/>
    <path id="Path_409" data-name="Path 409" d="M21.087,20.463H12.91a.828.828,0,0,1-.827-.828V4.383a.828.828,0,0,1,.828-.828h8.177a.828.828,0,0,1,.827.828V19.635A.828.828,0,0,1,21.087,20.463Zm-9-12.362h9.833" transform="translate(-2.064 -0.285)" fill="none" stroke="#fff" stroke-width="1.3" fill-rule="evenodd"/>
    <path id="Path_410" data-name="Path 410" d="M14.61,15.716h1.271V14.444H14.609Zm2.4,0h1.272V14.444H17.01Zm2.4,0h1.272V14.444H19.411Zm-4.8,2.347h1.271v-1.27H14.609Zm2.4,0h1.272v-1.27H17.01Zm2.4,0h1.272v-1.27H19.411Zm-4.8,2.347h1.271V19.138H14.609Zm2.4,0h1.272V19.138H17.01Zm2.4,0h1.272V19.138H19.411Z" transform="translate(-2.711 -3.073)" fill="#fff" fill-rule="evenodd"/>
  </g>
</svg>
