<svg xmlns="http://www.w3.org/2000/svg" width="25" height="25" viewBox="0 0 25 25">
  <g id="ic_hospital" transform="translate(0.5 0.5)">
    <rect id="ic_bill_white38x38_background" data-name="ic/bill/white38x38 background" width="24" height="24" fill="rgba(0,0,0,0)" stroke="#fff" stroke-width="1" opacity="0"/>
    <g id="Group_2800" data-name="Group 2800" transform="translate(40.169 12.51)">
      <g id="Group_2796" data-name="Group 2796">
        <g id="Group_2795" data-name="Group 2795">
          <path id="Path_645" data-name="Path 645" d="M-20.938,10.462h4.366V1.254h-4.366" fill="none" stroke="#fff" stroke-linejoin="round" stroke-width="1.3"/>
        </g>
      </g>
      <g id="Group_2796-2" data-name="Group 2796-2">
        <g id="Group_2795-2" data-name="Group 2795-2">
          <path id="Path_645-2" data-name="Path 645-2" d="M-34.8,1.255h-4.366v9.207H-34.8" fill="none" stroke="#fff" stroke-linejoin="round" stroke-width="1.3"/>
        </g>
      </g>
      <path id="Path_656" data-name="Path 656" d="M-25.2-6.239" fill="none" stroke="#fff" stroke-linecap="round" stroke-width="1.3"/>
      <path id="Path_657" data-name="Path 657" d="M-31.9-2.4h-1.988V10.612h11.931V-2.406h-1.988" fill="none" stroke="#fff" stroke-linecap="round" stroke-linejoin="round" stroke-width="1.3"/>
      <path id="Path_658" data-name="Path 658" d="M-30.638-6.239" fill="none" stroke="#fff" stroke-linecap="round" stroke-width="1.3"/>
      <g id="Group_2800-2" data-name="Group 2800">
        <g id="Group_2800-2-2" data-name="Group 2800-2">
          <line id="Line_5" data-name="Line 5" y2="4.587" transform="translate(-27.921 -9.795)" fill="none" stroke="#fff" stroke-width="1.3"/>
          <line id="Line_6" data-name="Line 6" x2="4.587" transform="translate(-30.215 -7.501)" fill="none" stroke="#fff" stroke-width="1.3"/>
        </g>
        <path id="Rectangle_342" data-name="Rectangle 342" d="M-27.921-12.01h0A4.509,4.509,0,0,1-23.412-7.5h0a4.508,4.508,0,0,1-4.509,4.508h0A4.508,4.508,0,0,1-32.429-7.5h0A4.508,4.508,0,0,1-27.921-12.01Z" fill="none" stroke="#fff" stroke-width="1.3"/>
      </g>
      <g id="Group_2801" data-name="Group 2801">
        <path id="Path_652" data-name="Path 652" d="M-29.757,5.634h1.272V4.362h-1.272Zm2.4,0h1.272V4.362h-1.271Z" fill="#fff" fill-rule="evenodd"/>
        <path id="Path_652-2" data-name="Path 652" d="M-29.757,3.228h1.272V1.956h-1.272Zm2.4,0h1.272V1.956h-1.271Z" fill="#fff" fill-rule="evenodd"/>
      </g>
    </g>
  </g>
</svg>
