<svg id="ic_huy-tiet-kiem-tu-dong" xmlns="http://www.w3.org/2000/svg" width="24" height="24" viewBox="0 0 24 24">
  <g id="Rectangle_271" data-name="Rectangle 271" fill="#fff" stroke="#707070" stroke-width="1" opacity="0">
    <rect width="24" height="24" stroke="none"/>
    <rect x="0.5" y="0.5" width="23" height="23" fill="none"/>
  </g>
  <g id="white_38_x_38_16_" data-name="white_38_x_38 (16)" transform="translate(-0.595 -0.174)">
    <path id="Path_436" data-name="Path 436" d="M14.78,4.991A2.588,2.588,0,0,1,12.226,7.74,2.923,2.923,0,0,1,9.279,4.991V3.174h5.5V4.99Z" transform="translate(-1.71 0)" fill="none" stroke="#fff" stroke-width="1.36" fill-rule="evenodd"/>
    <path id="Path_437" data-name="Path 437" d="M3.315,20.213V16.406a7.389,7.389,0,0,1,13.9-3.488" transform="translate(-0.383 -1.3)" fill="none" stroke="#fff" stroke-width="1.36" fill-rule="evenodd"/>
    <path id="Path_438" data-name="Path 438" d="M17.708,23.751H2.931a1.338,1.338,0,0,1,0-2.676H5.419M9.4,18.813v1.062m0-6.98v1.062M8.1,17.346v.43a1.037,1.037,0,0,0,1.036,1.037h.532A1.037,1.037,0,0,0,10.7,17.776v-.289a.907.907,0,0,0-.579-.846L8.676,16.08a.909.909,0,0,1-.579-.847V15.02a1.037,1.037,0,0,1,1.036-1.037h.532A1.037,1.037,0,0,1,10.7,15.02" transform="translate(0 -2.163)" fill="none" stroke="#fff" stroke-width="1.36" fill-rule="evenodd"/>
    <path id="Path_439" data-name="Path 439" d="M21.81,21.188l-1.295-1.295-1.295,1.295-.968-.968,1.294-1.294-1.295-1.295.968-.968,1.295,1.295,1.295-1.295.967.968-1.295,1.295,1.295,1.295-.967.968ZM20.516,13.4a5.524,5.524,0,1,0,5.525,5.524A5.524,5.524,0,0,0,20.516,13.4Z" transform="translate(-2.981 -2.276)" fill="#fff" fill-rule="evenodd"/>
  </g>
</svg>
