<svg xmlns="http://www.w3.org/2000/svg" width="25" height="25" viewBox="0 0 25 25">
  <g id="ic_logistic" transform="translate(0.5 0.5)">
    <rect id="ic_bill_white38x38_background" data-name="ic/bill/white38x38 background" width="24" height="24" fill="rgba(0,0,0,0)" stroke="#fff" stroke-width="1" opacity="0"/>
    <g id="Group_2800" data-name="Group 2800" transform="translate(877.695 -1145.232)">
      <g id="Group_2801" data-name="Group 2801">
        <g id="Group_2800-2" data-name="Group 2800-2">
          <path id="Path_656" data-name="Path 656" d="M-863.586,1158.968h-2.662a1.017,1.017,0,0,0-.963,1.068,1.018,1.018,0,0,0,.2.559l3.87,5.354a1.016,1.016,0,0,1-.2,1.423h0a1.011,1.011,0,0,1-.559.2h-6.383" fill="none" stroke="#fff" stroke-miterlimit="10" stroke-width="1.3"/>
        </g>
      </g>
      <g id="icons8_marker_sun_1" data-name="icons8 marker sun 1">
        <circle id="Ellipse_88" data-name="Ellipse 88" cx="1.019" cy="1.019" r="1.019" transform="translate(-860.379 1149.909)" fill="#fcfdfe" stroke="#fff" stroke-linejoin="round" stroke-width="1"/>
        <path id="Path_657" data-name="Path 657" d="M-855.282,1150.812c0,3.617-4.078,8.156-4.078,8.156s-4.078-4.459-4.078-8.156a4.079,4.079,0,0,1,4.078-4.079,4.078,4.078,0,0,1,4.078,4.078Z" fill="none" stroke="#fff" stroke-linejoin="round" stroke-width="1.3"/>
      </g>
      <g id="icons8_marker_sun_1-2" data-name="icons8 marker sun 1">
        <path id="Path_657-2" data-name="Path 657" d="M-871.159,1162.608c0,2.456-2.768,5.537-2.768,5.537s-2.768-3.027-2.768-5.537a2.768,2.768,0,0,1,2.768-2.768,2.768,2.768,0,0,1,2.768,2.767Z" fill="none" stroke="#fff" stroke-linejoin="round" stroke-width="1.3"/>
      </g>
      <circle id="Ellipse_88-2" data-name="Ellipse 88" cx="0.57" cy="0.57" r="0.57" transform="translate(-874.497 1161.997)" fill="#fcfdfe" stroke="#fff" stroke-linejoin="round" stroke-width="1"/>
    </g>
  </g>
</svg>
