<svg id="ic_login-to-chuc" xmlns="http://www.w3.org/2000/svg" width="30" height="30" viewBox="0 0 30 30">
  <g id="Rectangle_225" data-name="Rectangle 225" fill="#fff" stroke="#fff" stroke-width="1" opacity="0">
    <rect width="30" height="30" stroke="none"/>
    <rect x="0.5" y="0.5" width="29" height="29" fill="none"/>
  </g>
  <g id="Group_1683" data-name="Group 1683" transform="translate(-153.001 -77.112)">
    <g id="Group_1681" data-name="Group 1681" transform="translate(154.154 82.65)">
      <path id="Path_383" data-name="Path 383" d="M164.936,84.094a3.467,3.467,0,0,0-6.281,1.942v2.217c0,1.87,1.548,3.906,3.458,3.906a2.715,2.715,0,0,0,.581-.076" transform="translate(-154.764 -82.65)" fill="none" stroke="#fff" stroke-linecap="round" stroke-miterlimit="10" stroke-width="1.3"/>
      <path id="Path_384" data-name="Path 384" d="M161.178,96.194a6.073,6.073,0,0,1-3.546-1.543s-3.071,1.343-3.443,3.509c-.077,1.865,0,3.134,0,3.134h3.871" transform="translate(-154.154 -84.277)" fill="none" stroke="#fff" stroke-linecap="round" stroke-miterlimit="10" stroke-width="1.3"/>
      <path id="Path_385" data-name="Path 385" d="M165.921,84.32" transform="translate(-155.749 -82.876)" fill="#fff" stroke="#fff" stroke-width="1"/>
    </g>
    <g id="Group_5" data-name="Group 5" transform="translate(160.206 85.243)">
      <path id="Stroke_1" data-name="Stroke 1" d="M169.113,95.159h0c-1.91,0-3.458-2.036-3.458-3.906V89.036a3.459,3.459,0,0,1,6.916,0v2.217C172.571,93.123,171.022,95.159,169.113,95.159Z" transform="translate(-161.764 -85.65)" fill="none" stroke="#fff" stroke-miterlimit="10" stroke-width="1.3"/>
      <path id="Stroke_3" data-name="Stroke 3" d="M175.488,104.294h-14.3s-.077-1.27,0-3.134c.373-2.165,3.443-3.509,3.443-3.509a5.169,5.169,0,0,0,7.415,0s3.071,1.343,3.443,3.509C175.564,103.025,175.488,104.294,175.488,104.294Z" transform="translate(-161.154 -87.277)" fill="none" stroke="#fff" stroke-miterlimit="10" stroke-width="1.3"/>
    </g>
    <g id="Group_1682" data-name="Group 1682" transform="translate(171.443 82.65)">
      <path id="Path_386" data-name="Path 386" d="M174.154,84.094a3.467,3.467,0,0,1,6.282,1.942v2.217c0,1.87-1.548,3.906-3.458,3.906a2.715,2.715,0,0,1-.581-.076" transform="translate(-174.154 -82.65)" fill="none" stroke="#fff" stroke-linecap="round" stroke-miterlimit="10" stroke-width="1.3"/>
      <path id="Path_387" data-name="Path 387" d="M177.8,96.194a6.073,6.073,0,0,0,3.546-1.543s3.071,1.343,3.443,3.509c.077,1.865,0,3.134,0,3.134h-3.871" transform="translate(-174.648 -84.277)" fill="none" stroke="#fff" stroke-linecap="round" stroke-miterlimit="10" stroke-width="1.3"/>
      <path id="Path_388" data-name="Path 388" d="M174.154,84.32" transform="translate(-174.154 -82.876)" fill="#fff" stroke="#fff" stroke-width="1"/>
    </g>
  </g>
</svg>
