<svg id="ic_login-bieu-phi" xmlns="http://www.w3.org/2000/svg" width="30" height="30" viewBox="0 0 30 30">
  <rect id="Rectangle_226" data-name="Rectangle 226" width="30" height="30" fill="#fff" opacity="0"/>
  <g id="Group_1680" data-name="Group 1680" transform="translate(-10 -3)">
    <path id="Subtraction_5" data-name="Subtraction 5" d="M18.251,20.631H2.821A2.822,2.822,0,0,1,0,17.81V0H16.092V18.472a2.16,2.16,0,1,0,4.32,0V13.335H18.718" transform="translate(15.688 7.675)" fill="rgba(0,0,0,0)" stroke="#fff" stroke-miterlimit="10" stroke-width="1.3"/>
  </g>
  <g id="Group" transform="translate(8 9)">
    <g id="Group_2" data-name="Group 2" transform="translate(0.707 -0.028)">
      <path id="Stroke_3" data-name="Stroke 3" d="M1.294,0,0,1.295" transform="translate(4.446 11.116) rotate(-45)" fill="none" stroke="#fff" stroke-miterlimit="10" stroke-width="1.3"/>
      <path id="Stroke_5" data-name="Stroke 5" d="M1.294,0,0,1.295" transform="translate(4.446 0.915) rotate(-45)" fill="none" stroke="#fff" stroke-miterlimit="10" stroke-width="1.3"/>
      <path id="Stroke_7" data-name="Stroke 7" d="M1.048,3.359l-.524.524a1.786,1.786,0,0,0,0,2.527l.647.647a1.786,1.786,0,0,0,2.527,0l.352-.352a1.563,1.563,0,0,0,.326-1.738L3.3,2.521A1.569,1.569,0,0,1,3.624.783l.26-.259a1.786,1.786,0,0,1,2.527,0l.647.647a1.788,1.788,0,0,1,0,2.528" transform="translate(0 6.038) rotate(-45)" fill="none" stroke="#fff" stroke-miterlimit="10" stroke-width="1.3"/>
    </g>
  </g>
</svg>
