<svg id="ic_lich" xmlns="http://www.w3.org/2000/svg" width="24" height="24" viewBox="0 0 24 24">
  <rect id="Rectangle_187" data-name="Rectangle 187" width="24" height="24" fill="#fff" opacity="0"/>
  <g id="Asset_32" data-name="Asset 32" transform="translate(3.448 3.52)">
    <rect id="Rectangle-path" width="1.577" height="3.868" stroke-width="1" fill="#fff" stroke="rgba(0,0,0,0)" transform="translate(3.126)"/>
    <rect id="Rectangle-path-2" data-name="Rectangle-path" width="1.577" height="3.868" transform="translate(6.252)" fill="#fff" stroke="rgba(0,0,0,0)" stroke-width="1"/>
    <rect id="Rectangle-path-3" data-name="Rectangle-path" width="1.577" height="3.868" transform="translate(9.406)" fill="#fff" stroke="rgba(0,0,0,0)" stroke-width="1"/>
    <rect id="Rectangle-path-4" data-name="Rectangle-path" width="1.577" height="3.868" transform="translate(12.559)" fill="#fff" stroke="rgba(0,0,0,0)" stroke-width="1"/>
    <path id="Shape" d="M14.966,0V1.673h.719V4.2H1.577V1.673h.692V0H0V5.487H15.685v8.23H1.577V6.694H0v7.187a1.53,1.53,0,0,0,.473,1.078,1.556,1.556,0,0,0,1.1.43H15.685a1.571,1.571,0,0,0,1.577-1.536V0Z" transform="translate(0 1.07)" fill="#fff" stroke="rgba(0,0,0,0)" stroke-width="1"/>
    <rect id="Rectangle-path-5" data-name="Rectangle-path" width="1.577" height="1.564" transform="translate(4.703 8.559)" fill="#fff" stroke="rgba(0,0,0,0)" stroke-width="1"/>
    <rect id="Rectangle-path-6" data-name="Rectangle-path" width="1.577" height="1.564" transform="translate(7.829 8.559)" fill="#fff" stroke="rgba(0,0,0,0)" stroke-width="1"/>
    <rect id="Rectangle-path-7" data-name="Rectangle-path" width="1.577" height="1.564" transform="translate(10.982 8.559)" fill="#fff" stroke="rgba(0,0,0,0)" stroke-width="1"/>
    <rect id="Rectangle-path-8" data-name="Rectangle-path" width="1.577" height="1.564" transform="translate(4.703 11.686)" fill="#fff" stroke="rgba(0,0,0,0)" stroke-width="1"/>
    <rect id="Rectangle-path-9" data-name="Rectangle-path" width="1.577" height="1.564" transform="translate(7.829 11.686)" fill="#fff" stroke="rgba(0,0,0,0)" stroke-width="1"/>
  </g>
</svg>
