<svg id="ic_loanpayment" xmlns="http://www.w3.org/2000/svg" width="24" height="24" viewBox="0 0 24 24">
  <g id="Rectangle_268" data-name="Rectangle 268" fill="#fff" stroke="#707070" stroke-width="1" opacity="0">
    <rect width="24" height="24" stroke="none"/>
    <rect x="0.5" y="0.5" width="23" height="23" fill="none"/>
  </g>
  <path id="white_38_x_38_3_" data-name="white_38_x_38 (3)" d="M2.368,13.972c4.447,0,7.591.9,8.676.9s4.782-.3,4.782.908.115,1.384-6.671,1.384m6.686-1.4a25.237,25.237,0,0,0,2.928-1.39c.878-.562,2.249.3,1.329,1.626s-6.007,3.905-7.561,4.389-7.159-1.774-8.158-1.774a5.019,5.019,0,0,0-1.917.441" transform="translate(0.713 0.722)" fill="none" stroke="#fff" stroke-width="1.3" fill-rule="evenodd"/>
  <g id="Group_2818" data-name="Group 2818" transform="translate(-2.32 -2.7)">
    <g id="Group" transform="translate(9.5 3)">
      <g id="Oval" fill="none" stroke="#fff" stroke-miterlimit="10" stroke-width="1.3">
        <circle cx="6.718" cy="6.718" r="6.718" stroke="none"/>
        <circle cx="6.718" cy="6.718" r="6.068" fill="none"/>
      </g>
    </g>
    <g id="Group-2" data-name="Group" transform="translate(13.946 5.794)">
      <path id="Stroke_13" data-name="Stroke 13" d="M.807,0V1.739" transform="translate(1.51)" fill="none" stroke="#fff" stroke-miterlimit="10" stroke-width="1"/>
      <path id="Stroke_15" data-name="Stroke 15" d="M.807,0V1.739" transform="translate(1.51 5.815)" fill="none" stroke="#fff" stroke-miterlimit="10" stroke-width="1"/>
      <path id="Stroke_11" data-name="Stroke 11" d="M0,4.076H3.152a1.019,1.019,0,1,0,0-2.038H1.537A1.019,1.019,0,1,1,1.537,0h3.1" transform="translate(0 1.739)" fill="none" stroke="#fff" stroke-miterlimit="10" stroke-width="1"/>
    </g>
  </g>
</svg>
