<svg id="ic_lai-tiet-kiem" xmlns="http://www.w3.org/2000/svg" width="24" height="24" viewBox="0 0 24 24">
  <rect id="Rectangle_186" data-name="Rectangle 186" width="24" height="24" fill="#fff" opacity="0"/>
  <g id="Group_12" data-name="Group 12" transform="translate(2.149 0.75)">
    <g id="Group_1598" data-name="Group 1598">
      <path id="Stroke_1" data-name="Stroke 1" d="M17.969,14.149H1.25A1.25,1.25,0,0,1,0,12.9V1.25A1.25,1.25,0,0,1,1.25,0H17.969a1.25,1.25,0,0,1,1.25,1.25V12.9A1.25,1.25,0,0,1,17.969,14.149Z" transform="translate(0.85 4.286)" fill="none" stroke="#fff" stroke-miterlimit="10" stroke-width="1.3"/>
      <path id="Stroke_3" data-name="Stroke 3" d="M0,6.416,4.423,1.994l2.4,2.4L11.209,0" transform="translate(4.855 8.126)" fill="none" stroke="#fff" stroke-miterlimit="10" stroke-width="1.3"/>
      <path id="Stroke_5" data-name="Stroke 5" d="M.625,0V2.269" transform="translate(9.835 0.25)" fill="none" stroke="#fff" stroke-miterlimit="10" stroke-width="1.3"/>
      <path id="Stroke_8" data-name="Stroke 8" d="M2.354,0,0,4.345" transform="translate(4.64 18.435)" fill="none" stroke="#fff" stroke-miterlimit="10" stroke-width="1.3"/>
      <path id="Stroke_10" data-name="Stroke 10" d="M0,0,2.354,4.345" transform="translate(13.925 18.435)" fill="none" stroke="#fff" stroke-miterlimit="10" stroke-width="1.3"/>
    </g>
  </g>
</svg>
