<svg id="ic_maybay" xmlns="http://www.w3.org/2000/svg" width="24" height="24" viewBox="0 0 24 24">
  <rect id="Rectangle_337" data-name="Rectangle 337" width="24" height="24" fill="#fff" opacity="0"/>
  <g id="ic_home_flight_white" data-name="ic/home/flight/white" transform="translate(0.5 3)">
    <path id="Stroke_1" data-name="Stroke 1" d="M0,.524H4.916" transform="translate(16.749 8.056)" fill="none" stroke="#fff" stroke-miterlimit="10" stroke-width="1.3"/>
    <path id="Stroke_3" data-name="Stroke 3" d="M18.265,11.54H13.377L10.7,15.663a.868.868,0,0,1-.729.4H7.254a.863.863,0,0,1-.773-1.238L8.028,11.54H7.807C.855,11.54.785,7.45.5,5.771S0,0,0,0C4.156-.077,5.163,5.517,5.163,5.517h9.875c3.593,0,4.665,1.868,4.875,2.73S20.421,11.54,18.265,11.54Z" transform="translate(1.937 0.838)" fill="none" stroke="#fff" stroke-miterlimit="10" stroke-width="1.3"/>
    <path id="Stroke_5" data-name="Stroke 5" d="M0,.524H3.214" transform="translate(0.602 4.978)" fill="none" stroke="#fff" stroke-miterlimit="10" stroke-width="1.3"/>
  </g>
</svg>
