<svg id="ic_nap-tien-dien-tu" xmlns="http://www.w3.org/2000/svg" width="24" height="24" viewBox="0 0 24 24">
  <g id="Rectangle_268" data-name="Rectangle 268" fill="#fff" stroke="#707070" stroke-width="1" opacity="0">
    <rect width="24" height="24" stroke="none"/>
    <rect x="0.5" y="0.5" width="23" height="23" fill="none"/>
  </g>
  <g id="white_38_x_38_9_" data-name="white_38_x_38 (9)" transform="translate(0.16 0.236)">
    <path id="Path_413" data-name="Path 413" d="M14.114,13.806a2.5,2.5,0,1,0-2.5,2.5,2.5,2.5,0,0,0,2.5-2.5ZM6.267,9.632H4.8A2.017,2.017,0,0,1,4.8,5.6h3.98a2.835,2.835,0,1,1,5.67,0h3.979a2.017,2.017,0,0,1,0,4.032H16.968" fill="none" stroke="#fff" stroke-width="1.3" fill-rule="evenodd"/>
    <path id="Path_414" data-name="Path 414" d="M18.361,6.752V22.03H7.66V6.752" transform="translate(-1.393 -1.153)" fill="none" stroke="#fff" stroke-width="1.3" fill-rule="evenodd"/>
  </g>
</svg>
