<svg id="ic_saoke" xmlns="http://www.w3.org/2000/svg" width="24" height="24" viewBox="0 0 24 24">
  <rect id="Rectangle_328" data-name="Rectangle 328" width="24" height="24" fill="#fff" opacity="0"/>
  <g id="Group_15" data-name="Group 15" transform="translate(4.063 1.48)">
    <path id="Stroke_1" data-name="Stroke 1" d="M10.562.424V10.989L6.647,14.9H.423A.422.422,0,0,1,0,14.481V.424A.423.423,0,0,1,.423,0h9.716A.424.424,0,0,1,10.562.424Z" transform="translate(0.372 0.372)" fill="none" stroke="#fff" stroke-miterlimit="10" stroke-width="1.3"/>
    <path id="Stroke_3" data-name="Stroke 3" d="M0,3.915V.423A.423.423,0,0,1,.423,0H3.915" transform="translate(7.019 11.361)" fill="none" stroke="#fff" stroke-miterlimit="10" stroke-width="1.3"/>
    <path id="Stroke_5" data-name="Stroke 5" d="M10.562.422V10.988L6.647,14.9H.423A.423.423,0,0,1,0,14.48V10.41H2.186L6.1,6.5V0h4.039A.423.423,0,0,1,10.562.422Z" transform="translate(4.834 4.866)" fill="none" stroke="#fff" stroke-miterlimit="10" stroke-width="1.3"/>
    <path id="Stroke_7" data-name="Stroke 7" d="M0,3.915V.423A.423.423,0,0,1,.423,0H3.914" transform="translate(11.481 15.854)" fill="none" stroke="#fff" stroke-miterlimit="10" stroke-width="1.3"/>
    <path id="Stroke_9" data-name="Stroke 9" d="M0,.373H5.927" transform="translate(2.69 2.451)" fill="none" stroke="#fff" stroke-miterlimit="10" stroke-width="1.3"/>
    <path id="Stroke_11" data-name="Stroke 11" d="M0,.373H5.927" transform="translate(2.69 4.493)" fill="none" stroke="#fff" stroke-miterlimit="10" stroke-width="1.3"/>
    <path id="Stroke_13" data-name="Stroke 13" d="M0,.373H5.927" transform="translate(2.69 6.535)" fill="none" stroke="#fff" stroke-miterlimit="10" stroke-width="1.3"/>
  </g>
</svg>
