<svg xmlns="http://www.w3.org/2000/svg" width="25" height="25" viewBox="0 0 25 25">
  <g id="ic_tuition" transform="translate(0.5 0.5)">
    <rect id="ic_bill_white38x38_background" data-name="ic/bill/white38x38 background" width="24" height="24" fill="rgba(0,0,0,0)" stroke="#fff" stroke-width="1" opacity="0"/>
    <g id="Group_2785" data-name="Group 2785" transform="translate(-13364.5 7786.5)">
      <path id="Path_618" data-name="Path 618" d="M1036.112-194.31a5.5,5.5,0,0,0-5.5,5.5,5.5,5.5,0,0,0,5.5,5.5,5.5,5.5,0,0,0,5.5-5.5A5.5,5.5,0,0,0,1036.112-194.31Zm2.043,6.955a1.768,1.768,0,0,1-1.364,1.719v.476h-1.359v-.477a1.751,1.751,0,0,1-.842-.47,1.75,1.75,0,0,1-.516-1.249v-.449h1.36v.45a.4.4,0,0,0,.118.286.4.4,0,0,0,.286.119h.555a.405.405,0,0,0,.4-.4v-.3a.271.271,0,0,0-.172-.251l-1.518-.59a1.622,1.622,0,0,1-1.038-1.52v-.222a1.75,1.75,0,0,1,.515-1.247,1.757,1.757,0,0,1,.849-.473v-.5h1.359v.5a1.768,1.768,0,0,1,1.36,1.718h-1.359a.406.406,0,0,0-.405-.4h-.555a.4.4,0,0,0-.286.119.4.4,0,0,0-.118.285v.223a.267.267,0,0,0,.172.252l1.516.59a1.638,1.638,0,0,1,1.039,1.519Z" transform="translate(12346.088 -7581.09)" fill="#fff"/>
      <g id="icons8_graduation_cap" data-name="icons8 graduation cap" transform="translate(12327.358 -7633.012)">
        <path id="Path_615" data-name="Path 615" d="M1048.918-142.531l10.571-3.7v-.528l-10.571-4.229-10.571,4.229v.529Zm-10.571-4.492v10.835" fill="none" stroke="#fff" stroke-linecap="round" stroke-width="1.3"/>
        <path id="Path_616" data-name="Path 616" d="M1051.434-137.2a13.868,13.868,0,0,1-2.516.31,13.855,13.855,0,0,1-6.343-1.762v-5.638" fill="none" stroke="#fff" stroke-linecap="round" stroke-width="1.3"/>
        <path id="Path_616-2" data-name="Path 616" d="M1055.261-144.293v2.3" fill="none" stroke="#fff" stroke-linecap="round" stroke-width="1.3"/>
        <path id="Path_617" data-name="Path 617" d="M1038.342-134.778a.7.7,0,0,0-.7.7.7.7,0,0,0,.7.7.7.7,0,0,0,.7-.7h0A.7.7,0,0,0,1038.342-134.778Z" transform="translate(0 1)" fill="#494949" stroke="#fff" stroke-linecap="round" stroke-width="1.3"/>
      </g>
    </g>
  </g>
</svg>
