<svg xmlns="http://www.w3.org/2000/svg" width="25" height="25" viewBox="0 0 25 25">
  <g id="ic_tax" transform="translate(0.5 0.5)">
    <rect id="ic_bill_white38x38_background" data-name="ic/bill/white38x38 background" width="24" height="24" fill="rgba(0,0,0,0)" stroke="#fff" stroke-width="1" opacity="0"/>
    <g id="ic_home_billpayment_white" transform="translate(3.955 2.692)">
      <path id="Stroke_1" data-name="Stroke 1" d="M16.617,19.075l-2.726-1.869-2.7,1.869L8.353,17.206l-2.8,1.869L2.811,17.206,0,19.075V0H16.617Z" transform="translate(0 0)" fill="none" stroke="#fff" stroke-miterlimit="10" stroke-width="1.3"/>
      <path id="Stroke_4" data-name="Stroke 4" d="M0,.789H3" transform="translate(10.545 3.547)" fill="none" stroke="#fff" stroke-miterlimit="10" stroke-width="1.3"/>
      <path id="Stroke_6" data-name="Stroke 6" d="M0,.789H3" transform="translate(10.545 7.39)" fill="none" stroke="#fff" stroke-miterlimit="10" stroke-width="1.3"/>
      <path id="Stroke_8" data-name="Stroke 8" d="M0,.789H3" transform="translate(10.545 11.233)" fill="none" stroke="#fff" stroke-miterlimit="10" stroke-width="1.3"/>
      <path id="Path_586" data-name="Path 586" d="M10.078,21.9v1.616m0-10.624v1.616M8.1,19.669v.654A1.577,1.577,0,0,0,9.674,21.9h.808a1.579,1.579,0,0,0,1.58-1.579v-.44A1.38,1.38,0,0,0,11.18,18.6l-2.2-.854a1.383,1.383,0,0,1-.882-1.29v-.323A1.577,1.577,0,0,1,9.674,14.55h.808a1.579,1.579,0,0,1,1.58,1.579" transform="translate(-4.23 -9.851)" fill="none" stroke="#fff" stroke-width="1.36" fill-rule="evenodd"/>
    </g>
  </g>
</svg>
