<svg id="ic_tien" xmlns="http://www.w3.org/2000/svg" width="24" height="24" viewBox="0 0 24 24">
  <rect id="Rectangle_201" data-name="Rectangle 201" width="24" height="24" fill="#fff" opacity="0"/>
  <g id="Group" transform="translate(2 2)">
    <g id="Oval" fill="none" stroke="#fff" stroke-miterlimit="10" stroke-width="1.3">
      <circle cx="10" cy="10" r="10" stroke="none"/>
      <circle cx="10" cy="10" r="9.35" fill="none"/>
    </g>
    <g id="Group_2" data-name="Group 2" transform="translate(4.5 3.5)">
      <path id="Stroke_3" data-name="Stroke 3" d="M1.234,0,0,1.235" transform="translate(4.742 11.342) rotate(-45)" fill="none" stroke="#fff" stroke-miterlimit="10" stroke-width="1.3"/>
      <path id="Stroke_5" data-name="Stroke 5" d="M1.234,0,0,1.235" transform="translate(4.742 1.617) rotate(-45)" fill="none" stroke="#fff" stroke-miterlimit="10" stroke-width="1.3"/>
      <path id="Stroke_7" data-name="Stroke 7" d="M1,3.2l-.5.5a1.7,1.7,0,0,0,0,2.409l.617.617a1.7,1.7,0,0,0,2.409,0l.335-.335a1.49,1.49,0,0,0,.311-1.657L3.144,2.4A1.5,1.5,0,0,1,3.455.746L3.7.5A1.7,1.7,0,0,1,6.112.5l.617.617a1.7,1.7,0,0,1,0,2.41" transform="translate(0.503 6.5) rotate(-45)" fill="none" stroke="#fff" stroke-miterlimit="10" stroke-width="1.3"/>
    </g>
  </g>
</svg>
