<svg id="ic_ve" xmlns="http://www.w3.org/2000/svg" width="24" height="24" viewBox="0 0 24 24">
  <rect id="Rectangle_338" data-name="Rectangle 338" width="24" height="24" fill="#fff" opacity="0"/>
  <g id="ic_home_cinema_white" data-name="ic/home/cinema/white" transform="translate(1.5 5)">
    <path id="Stroke_1" data-name="Stroke 1" d="M0,6.773H12.3V0H0Z" transform="translate(4.65 3.94)" fill="none" stroke="#fff" stroke-miterlimit="10" stroke-width="1.3"/>
    <path id="Stroke_2" data-name="Stroke 2" d="M0,.5H3.685" transform="translate(6.254 6.826)" fill="none" stroke="#fff" stroke-miterlimit="10" stroke-width="1.3"/>
    <path id="Stroke_3" data-name="Stroke 3" d="M.067.5H.933" transform="translate(12.256 6.826)" fill="none" stroke="#fff" stroke-miterlimit="10" stroke-width="1.3"/>
    <path id="Stroke_4" data-name="Stroke 4" d="M0,.5H1.354" transform="translate(13.785 6.826)" fill="none" stroke="#fff" stroke-miterlimit="10" stroke-width="1.3"/>
    <path id="Stroke_5" data-name="Stroke 5" d="M18.675,4.347A1.327,1.327,0,0,0,20,5.673V7.388a1.316,1.316,0,1,0,0,2.632v1.715a1.325,1.325,0,0,0-1.325,1.316H1.317A1.323,1.323,0,0,0,0,11.735V10.02A1.324,1.324,0,0,0,1.317,8.7,1.317,1.317,0,0,0,0,7.388V5.673A1.326,1.326,0,0,0,1.317,4.347,1.323,1.323,0,0,0,0,3.032V1.316A1.317,1.317,0,0,0,1.317,0H18.675A1.319,1.319,0,0,0,20,1.316V3.032A1.325,1.325,0,0,0,18.675,4.347Z" transform="translate(0.799 0.8)" fill="none" stroke="#fff" stroke-miterlimit="10" stroke-width="1.3"/>
  </g>
</svg>
