<svg id="ic_xekhach" xmlns="http://www.w3.org/2000/svg" width="24" height="24" viewBox="0 0 24 24">
  <rect id="Rectangle_339" data-name="Rectangle 339" width="24" height="24" fill="#fff" opacity="0"/>
  <g id="home_ic_datvexere" transform="translate(1.5 2)">
    <g id="home_ic_datvexere-2" data-name="home_ic_datvexere">
      <path id="Stroke_3" data-name="Stroke 3" d="M0,.3H14.185" transform="translate(3.363 10.666)" fill="none" stroke="#fff" stroke-miterlimit="10" stroke-width="1.3"/>
      <path id="Stroke_5" data-name="Stroke 5" d="M3.082.812.355,0A.352.352,0,0,0,0,.348V1.853A.352.352,0,0,0,.355,2.2H3.082a.351.351,0,0,0,.355-.348V1.159C3.432.986,3.257.878,3.082.812Z" transform="translate(4.206 13.273)" fill="none" stroke="#fff" stroke-miterlimit="10" stroke-width="1.3"/>
      <path id="Stroke_7" data-name="Stroke 7" d="M.356.812,3.083,0a.352.352,0,0,1,.355.348V1.853a.352.352,0,0,1-.355.348H.356A.352.352,0,0,1,0,1.853V1.159C.006.986.181.878.356.812Z" transform="translate(13.267 13.273)" fill="none" stroke="#fff" stroke-miterlimit="10" stroke-width="1.3"/>
      <path id="Fill_9" data-name="Fill 9" d="M3.437,0V1.119a.793.793,0,0,1-.8.783H.8A.793.793,0,0,1,0,1.119V0" transform="translate(2.662 17.627)" fill="none" stroke="#fff" stroke-miterlimit="10" stroke-width="1.3"/>
      <path id="Fill_11" data-name="Fill 11" d="M3.437,0V1.119a.793.793,0,0,1-.8.783H.8A.793.793,0,0,1,0,1.119V0" transform="translate(14.752 17.627)" fill="none" stroke="#fff" stroke-miterlimit="10" stroke-width="1.3"/>
      <path id="Stroke_13" data-name="Stroke 13" d="M0,.38H6.756" transform="translate(6.959 2.308)" fill="none" stroke="#fff" stroke-miterlimit="10" stroke-width="1.3"/>
      <path id="Stroke_15" data-name="Stroke 15" d="M1.934,3.128H.08A.079.079,0,0,1,0,3.049V.078A.08.08,0,0,1,.08,0H1.934a.08.08,0,0,1,.081.078V3.049A.08.08,0,0,1,1.934,3.128Z" transform="translate(0.058 4.369)" fill="none" stroke="#fff" stroke-miterlimit="10" stroke-width="1.3"/>
      <path id="Stroke_17" data-name="Stroke 17" d="M.081,3.128H1.935a.079.079,0,0,0,.08-.079V.078A.08.08,0,0,0,1.935,0H.081A.08.08,0,0,0,0,.078V3.049A.08.08,0,0,0,.081,3.128Z" transform="translate(18.77 4.369)" fill="none" stroke="#fff" stroke-miterlimit="10" stroke-width="1.3"/>
      <path id="Stroke_1" data-name="Stroke 1" d="M16,17.495H.711A.7.7,0,0,1,0,16.8V1.855C0,1.052,3.168.018,8.289,0c4.157-.014,8.423,1.08,8.423,1.855V16.8A.7.7,0,0,1,16,17.495Z" transform="translate(2.072 0.082)" fill="none" stroke="#fff" stroke-miterlimit="10" stroke-width="1.3"/>
    </g>
  </g>
</svg>
