<svg xmlns="http://www.w3.org/2000/svg" xmlns:xlink="http://www.w3.org/1999/xlink" width="50" height="50" viewBox="0 0 50 50">
  <defs>
    <linearGradient id="linear-gradient" x1="0.221" y1="0.199" x2="0.815" y2="0.902" gradientUnits="objectBoundingBox">
      <stop offset="0" stop-color="#74a352"/>
      <stop offset="1" stop-color="#459664"/>
    </linearGradient>
    <clipPath id="clip-path">
      <rect id="Mask" width="50" height="50" rx="16" opacity="0.9" fill="url(#linear-gradient)"/>
    </clipPath>
    <radialGradient id="radial-gradient" cx="0.5" cy="0.5" r="0.546" gradientUnits="objectBoundingBox">
      <stop offset="0" stop-color="#c7e582"/>
      <stop offset="1" stop-color="#459664"/>
    </radialGradient>
  </defs>
  <g id="Oval" clip-path="url(#clip-path)">
    <circle id="Oval-2" data-name="Oval" cx="19" cy="19" r="19" transform="translate(-4 -4)" opacity="0.553" fill="url(#radial-gradient)"/>
    <g id="ic_login-dk" transform="translate(10 10)">
      <rect id="Rectangle_226" data-name="Rectangle 226" width="30" height="30" fill="#fff" opacity="0"/>
      <g id="Group_9" data-name="Group 9" transform="translate(4.687 4.675)">
        <path id="Stroke_1" data-name="Stroke 1" d="M18.251,20.631H2.821A2.822,2.822,0,0,1,0,17.81V0H16.092V18.472a2.16,2.16,0,1,0,4.32,0V13.335H18.718" fill="none" stroke="#fff" stroke-miterlimit="10" stroke-width="1.3"/>
        <path id="Stroke_3" data-name="Stroke 3" d="M0,.625H9.275" transform="translate(3.344 4.382)" fill="none" stroke="#fff" stroke-miterlimit="10" stroke-width="1.3"/>
        <path id="Stroke_5" data-name="Stroke 5" d="M0,.625H9.275" transform="translate(3.344 8.734)" fill="none" stroke="#fff" stroke-miterlimit="10" stroke-width="1.3"/>
        <path id="Stroke_7" data-name="Stroke 7" d="M0,.625H9.275" transform="translate(3.344 13.087)" fill="none" stroke="#fff" stroke-miterlimit="10" stroke-width="1.3"/>
      </g>
    </g>
  </g>
</svg>
