<svg xmlns="http://www.w3.org/2000/svg" width="14" height="14.001" viewBox="0 0 14 14.001">
  <g id="phone" transform="translate(-776.947 -101.949)">
    <path id="icons8_phone" d="M14.466,17h-.015c-2.392-.078-5.193-2.4-7.124-4.327S3.077,7.937,3,5.556c-.027-.835,2.023-2.32,2.044-2.335a.986.986,0,0,1,1.365.1C6.574,3.545,8.128,5.9,8.3,6.167a1.119,1.119,0,0,1-.069,1.1c-.12.229-.521.933-.708,1.262a16.647,16.647,0,0,0,1.845,2.1,16.721,16.721,0,0,0,2.1,1.846c.328-.187,1.032-.588,1.262-.709a1.128,1.128,0,0,1,1.1-.072c.285.175,2.633,1.736,2.849,1.887a.809.809,0,0,1,.322.6,1.17,1.17,0,0,1-.222.767C16.761,14.975,15.294,17,14.466,17Z" transform="translate(773.946 98.951)" fill="#fff"/>
  </g>
</svg>
