<svg width="47" height="36" viewBox="0 0 47 36" fill="none" xmlns="http://www.w3.org/2000/svg">
<path d="M43.281 0.974976C42.5884 0.995634 41.931 1.28507 41.448 1.78198L14 29.23L5.219 20.449C4.71907 19.9484 4.04075 19.6669 3.33327 19.6664C2.62579 19.666 1.9471 19.9465 1.4465 20.4465C0.945905 20.9464 0.66441 21.6247 0.663941 22.3322C0.663472 23.0397 0.94407 23.7184 1.444 24.219L12.115 34.886C12.6151 35.3859 13.2933 35.6668 14.0005 35.6668C14.7077 35.6668 15.3859 35.3859 15.886 34.886L45.219 5.55498C45.6042 5.18042 45.8673 4.69824 45.9739 4.1716C46.0804 3.64496 46.0254 3.09843 45.816 2.6036C45.6066 2.10877 45.2527 1.68872 44.8005 1.39846C44.3484 1.10821 43.8191 0.961305 43.282 0.976978L43.281 0.974976Z" fill="white"/>
</svg>
