<svg width="64" height="64" viewBox="0 0 64 64" fill="none" xmlns="http://www.w3.org/2000/svg">
<path d="M50.108 7.00001C49.1174 6.99851 48.1363 7.19281 47.2211 7.57174C46.3059 7.95066 45.4746 8.50674 44.775 9.20801L41.648 12.333L52.316 23L55.441 19.875C56.4958 18.8202 57.2141 17.4764 57.5051 16.0134C57.7961 14.5504 57.6467 13.0339 57.0759 11.6558C56.5051 10.2777 55.5384 9.09979 54.2981 8.27106C53.0578 7.44234 51.5997 7.00001 50.108 7.00001ZM37.648 16.333L12.316 41.667C12.316 41.667 14.996 41.68 16.316 43C17.636 44.32 17.608 46.958 17.608 46.958C17.608 46.958 20.327 47.01 21.65 48.333C22.973 49.656 22.983 52.333 22.983 52.333L48.316 27L37.648 16.333ZM8.769 47L7.019 56.344C6.98553 56.5202 6.99563 56.7018 7.04841 56.8732C7.10119 57.0445 7.19506 57.2004 7.32185 57.3272C7.44863 57.4539 7.60448 57.5478 7.77584 57.6006C7.94719 57.6534 8.12885 57.6635 8.305 57.63L17.648 55.88L8.769 47Z" fill="white"/>
</svg>
