<svg width="64" height="64" viewBox="0 0 64 64" fill="none" xmlns="http://www.w3.org/2000/svg">
<path d="M27 5L24.333 7.667H13.667C13.3125 7.66013 12.9602 7.72403 12.6306 7.85495C12.3011 7.98587 12.001 8.18119 11.7479 8.42948C11.4947 8.67776 11.2936 8.97404 11.1563 9.30097C11.0191 9.6279 10.9484 9.97892 10.9484 10.3335C10.9484 10.6881 11.0191 11.0391 11.1563 11.366C11.2936 11.693 11.4947 11.9892 11.7479 12.2375C12.001 12.4858 12.3011 12.6811 12.6306 12.812C12.9602 12.943 13.3125 13.0069 13.667 13H51C51.3545 13.0069 51.7068 12.943 52.0364 12.812C52.3659 12.6811 52.666 12.4858 52.9191 12.2375C53.1723 11.9892 53.3734 11.693 53.5107 11.366C53.6479 11.0391 53.7186 10.6881 53.7186 10.3335C53.7186 9.97892 53.6479 9.6279 53.5107 9.30097C53.3734 8.97404 53.1723 8.67776 52.9191 8.42948C52.666 8.18119 52.3659 7.98587 52.0364 7.85495C51.7068 7.72403 51.3545 7.66013 51 7.667H40.333L37.667 5H27ZM13.667 18.333V53C13.6669 53.7004 13.8047 54.3939 14.0727 55.041C14.3406 55.6881 14.7335 56.2761 15.2287 56.7713C15.7239 57.2665 16.3119 57.6594 16.959 57.9273C17.6061 58.1953 18.2996 58.3331 19 58.333H45.667C46.3674 58.3331 47.0609 58.1953 47.708 57.9273C48.3551 57.6594 48.9431 57.2665 49.4383 56.7713C49.9335 56.2761 50.3264 55.6881 50.5943 55.041C50.8623 54.3939 51.0001 53.7004 51 53V18.333H13.667Z" fill="#242841"/>
</svg>
