<svg id="ic_calendar" xmlns="http://www.w3.org/2000/svg" width="24" height="24" viewBox="0 0 24 24">
  <rect id="ic_calendar_white_background" data-name="ic/calendar/white background" width="24" height="24" fill="#4a4a4a" opacity="0"/>
  <g id="Asset_32" data-name="Asset 32" transform="translate(3.032 3.124)">
    <rect id="Rectangle-path" width="1.653" height="4.054" transform="translate(3.277)" fill="#4a4a4a"/>
    <rect id="Rectangle-path-2" data-name="Rectangle-path" width="1.653" height="4.054" transform="translate(6.553)" fill="#4a4a4a"/>
    <rect id="Rectangle-path-3" data-name="Rectangle-path" width="1.653" height="4.054" transform="translate(9.859)" fill="#4a4a4a"/>
    <rect id="Rectangle-path-4" data-name="Rectangle-path" width="1.653" height="4.054" transform="translate(13.164)" fill="#4a4a4a"/>
    <path id="Shape" d="M15.687,0V1.754h.754V4.4H1.653V1.754h.725V0H0V5.751H16.441v8.626H1.653V7.016H0V14.55a1.6,1.6,0,0,0,.5,1.13,1.631,1.631,0,0,0,1.157.451H16.441a1.646,1.646,0,0,0,1.653-1.61V0Z" transform="translate(0 1.121)" fill="#4a4a4a"/>
    <rect id="Rectangle-path-5" data-name="Rectangle-path" width="1.653" height="1.639" transform="translate(4.929 8.971)" fill="#4a4a4a"/>
    <rect id="Rectangle-path-6" data-name="Rectangle-path" width="1.653" height="1.639" transform="translate(8.206 8.971)" fill="#4a4a4a"/>
    <rect id="Rectangle-path-7" data-name="Rectangle-path" width="1.653" height="1.639" transform="translate(11.511 8.971)" fill="#4a4a4a"/>
    <rect id="Rectangle-path-8" data-name="Rectangle-path" width="1.653" height="1.639" transform="translate(4.929 12.249)" fill="#4a4a4a"/>
    <rect id="Rectangle-path-9" data-name="Rectangle-path" width="1.653" height="1.639" transform="translate(8.206 12.249)" fill="#4a4a4a"/>
  </g>
</svg>
