<svg id="ic_contact" xmlns="http://www.w3.org/2000/svg" xmlns:xlink="http://www.w3.org/1999/xlink" width="24" height="24" viewBox="0 0 24 24">
  <defs>
    <clipPath id="clip-path">
      <path id="Path_582" data-name="Path 582" d="M17.438,13A3.061,3.061,0,0,1,20.5,16.063a1.308,1.308,0,0,1-1.312,1.312h-4.84l.027-1.23a3.808,3.808,0,0,0-.287-1.463,4.36,4.36,0,0,0-.807-1.272A3.118,3.118,0,0,1,14.813,13h.109a3.414,3.414,0,0,0,2.406,0Zm-1.313-.875A2.615,2.615,0,0,1,13.5,9.5a2.629,2.629,0,0,1,4.484-1.859,2.639,2.639,0,0,1,0,3.718A2.528,2.528,0,0,1,16.125,12.125ZM10.355,13a3.056,3.056,0,0,1,1.573.424,3.144,3.144,0,0,1,1.148,1.148,3.056,3.056,0,0,1,.424,1.573v.793a1.308,1.308,0,0,1-1.312,1.312H4.313A1.308,1.308,0,0,1,3,16.938v-.793a3.056,3.056,0,0,1,.424-1.573,3.144,3.144,0,0,1,1.148-1.148A3.056,3.056,0,0,1,6.145,13h.218a4.284,4.284,0,0,0,3.774,0Zm-2.1-.875A3.063,3.063,0,0,1,6.719,6.41a3.063,3.063,0,0,1,3.062,5.305A3.016,3.016,0,0,1,8.25,12.125Z" fill="#4a4a4a" clip-rule="evenodd"/>
    </clipPath>
    <clipPath id="clip-path-2">
      <rect id="Rectangle_332" data-name="Rectangle 332" width="375" height="667" transform="translate(-321 -180)" fill="#4a4a4a"/>
    </clipPath>
  </defs>
  <rect id="ic_contact_white_background" data-name="ic/contact/white background" width="24" height="24" opacity="0"/>
  <g id="Group_2773" data-name="Group 2773">
    <g id="Group_2772" data-name="Group 2772" clip-path="url(#clip-path)">
      <g id="Group_2771" data-name="Group 2771">
        <g id="Group_2770" data-name="Group 2770" clip-path="url(#clip-path-2)">
          <rect id="Rectangle_331" data-name="Rectangle 331" width="27.5" height="22.25" transform="translate(-2 1)" fill="#4a4a4a"/>
        </g>
      </g>
    </g>
  </g>
</svg>
