<svg width="38" height="38" viewBox="0 0 38 38" fill="none" xmlns="http://www.w3.org/2000/svg">
<path d="M2.67902 0.00195726C2.14784 0.00102253 1.62849 0.158726 1.18751 0.45485C0.746535 0.750973 0.404029 1.17203 0.203887 1.66406C0.00374521 2.15609 -0.0449159 2.69667 0.0641433 3.21653C0.173202 3.73639 0.435014 4.21185 0.81602 4.58196L14.934 18.694L0.81602 32.809C0.568281 33.0568 0.37179 33.3511 0.237765 33.6749C0.10374 33.9987 0.0348069 34.3457 0.0348998 34.6962C0.0350873 35.4039 0.316423 36.0826 0.81702 36.583C1.31762 37.0833 1.99646 37.3643 2.70423 37.3641C3.41199 37.3639 4.09069 37.0826 4.59102 36.582L18.705 22.465L32.816 36.582C33.0618 36.8375 33.3562 37.0415 33.6817 37.1819C34.0073 37.3223 34.3577 37.3964 34.7122 37.3999C35.0668 37.4033 35.4185 37.336 35.7467 37.2019C36.075 37.0678 36.3732 36.8696 36.6239 36.6188C36.8746 36.3681 37.0728 36.0699 37.2069 35.7417C37.3411 35.4134 37.4084 35.0617 37.4049 34.7072C37.4015 34.3526 37.3274 34.0023 37.187 33.6767C37.0465 33.3511 36.8426 33.0568 36.587 32.811L22.476 18.694L36.591 4.58196C36.8388 4.33409 37.0352 4.03985 37.1693 3.71604C37.3033 3.39223 37.3722 3.0452 37.3721 2.69475C37.372 2.3443 37.3029 1.99731 37.1687 1.67357C37.0345 1.34983 36.8379 1.0557 36.59 0.807961C36.3421 0.560222 36.0479 0.363727 35.7241 0.229702C35.4003 0.0956773 35.0533 0.0267439 34.7028 0.0268367C34.3524 0.0269296 34.0054 0.0960474 33.6816 0.230244C33.3579 0.364441 33.0638 0.56109 32.816 0.80896L18.705 14.923L4.59102 0.80896C4.34254 0.55362 4.04542 0.350653 3.7172 0.212048C3.38897 0.0734425 3.03631 0.00200507 2.68002 0.00195726H2.67902Z" fill="white"/>
</svg>
