<svg width="51" height="51" viewBox="0 0 51 51" fill="none" xmlns="http://www.w3.org/2000/svg">
<path d="M43.109 8.57802e-06C42.1184 -0.00148782 41.1374 0.192811 40.2221 0.571736C39.3069 0.950662 38.4756 1.50674 37.776 2.20801L34.649 5.33301L45.317 16L48.442 12.875C49.4968 11.8202 50.2151 10.4764 50.5061 9.01338C50.7971 7.55038 50.6477 6.03393 50.0769 4.65581C49.5061 3.27769 48.5394 2.09979 47.2991 1.27106C46.0588 0.442338 44.6007 8.31841e-06 43.109 8.57802e-06ZM30.649 9.33301L5.31701 34.667C5.31701 34.667 7.99701 34.68 9.31701 36C10.637 37.32 10.609 39.958 10.609 39.958C10.609 39.958 13.328 40.01 14.651 41.333C15.974 42.656 15.984 45.333 15.984 45.333L41.317 20L30.649 9.33301ZM1.77001 40L0.0200058 49.344C-0.0134636 49.5202 -0.0033663 49.7018 0.0494172 49.8732C0.102201 50.0445 0.196071 50.2004 0.322855 50.3272C0.449638 50.4539 0.605492 50.5478 0.776846 50.6006C0.948199 50.6534 1.12986 50.6635 1.30601 50.63L10.649 48.88L1.77001 40Z" fill="#242841"/>
</svg>
