<svg width="51" height="51" viewBox="0 0 51 51" fill="none" xmlns="http://www.w3.org/2000/svg">
<path d="M43.1089 8.57802e-06C42.1184 -0.00148782 41.1373 0.192811 40.2221 0.571736C39.3068 0.950662 38.4755 1.50674 37.7759 2.20801L34.6489 5.33301L45.3169 16L48.4419 12.875C49.4967 11.8202 50.215 10.4764 50.506 9.01338C50.797 7.55038 50.6477 6.03393 50.0768 4.65581C49.506 3.27769 48.5393 2.09979 47.2991 1.27106C46.0588 0.442338 44.6006 8.31841e-06 43.1089 8.57802e-06ZM30.6489 9.33301L5.31695 34.667C5.31695 34.667 7.99695 34.68 9.31695 36C10.6369 37.32 10.6089 39.958 10.6089 39.958C10.6089 39.958 13.3279 40.01 14.6509 41.333C15.9739 42.656 15.9839 45.333 15.9839 45.333L41.3169 20L30.6489 9.33301ZM1.76994 40L0.0199448 49.344C-0.0135246 49.5202 -0.00342734 49.7018 0.0493561 49.8732C0.10214 50.0445 0.19601 50.2004 0.322794 50.3272C0.449577 50.4539 0.605431 50.5478 0.776785 50.6006C0.948138 50.6534 1.1298 50.6635 1.30595 50.63L10.6489 48.88L1.76994 40Z" fill="white"/>
</svg>
