<svg width="64" height="64" viewBox="0 0 64 64" fill="none" xmlns="http://www.w3.org/2000/svg">
<path d="M53.333 29.333H10.667C10.3125 29.3262 9.96016 29.39 9.63063 29.521C9.30111 29.6519 9.00099 29.8472 8.74785 30.0955C8.49471 30.3438 8.29362 30.6401 8.15634 30.967C8.01906 31.2939 7.94836 31.6449 7.94836 31.9995C7.94836 32.3541 8.01906 32.7051 8.15634 33.0321C8.29362 33.359 8.49471 33.6553 8.74785 33.9035C9.00099 34.1518 9.30111 34.3471 9.63063 34.4781C9.96016 34.609 10.3125 34.6729 10.667 34.666H53.333C54.0313 34.6525 54.6964 34.3656 55.1854 33.867C55.6744 33.3684 55.9484 32.6979 55.9484 31.9995C55.9484 31.3011 55.6744 30.6306 55.1854 30.132C54.6964 29.6334 54.0313 29.3465 53.333 29.333Z" fill="#242841"/>
</svg>
