<svg width="64" height="64" viewBox="0 0 64 64" fill="none" xmlns="http://www.w3.org/2000/svg">
<path d="M16 3C16 3 10.667 10.72 10.667 13.667C10.667 15.0815 11.2289 16.4381 12.2291 17.4384C13.2294 18.4386 14.586 19.0005 16.0005 19.0005C17.415 19.0005 18.7716 18.4386 19.7719 17.4384C20.7721 16.4381 21.334 15.0815 21.334 13.667C21.333 10.72 16 3 16 3ZM32 3C32 3 26.667 10.72 26.667 13.667C26.667 15.0815 27.2289 16.4381 28.2291 17.4384C29.2294 18.4386 30.586 19.0005 32.0005 19.0005C33.415 19.0005 34.7716 18.4386 35.7719 17.4384C36.7721 16.4381 37.334 15.0815 37.334 13.667C37.333 10.72 32 3 32 3ZM48 3C48 3 42.667 10.72 42.667 13.667C42.667 15.0815 43.2289 16.4381 44.2291 17.4384C45.2294 18.4386 46.586 19.0005 48.0005 19.0005C49.415 19.0005 50.7716 18.4386 51.7719 17.4384C52.7721 16.4381 53.334 15.0815 53.334 13.667C53.333 10.72 48 3 48 3ZM16 21.667C15.2927 21.6673 14.6145 21.9483 14.1144 22.4484C13.6143 22.9485 13.3333 23.6267 13.333 24.334V27.49C11.7765 28.0365 10.4278 29.0522 9.47267 30.3972C8.51755 31.7423 8.00303 33.3504 8 35V39.672L9.318 41.177C9.83363 41.7247 10.4559 42.1611 11.1464 42.4595C11.837 42.7578 12.5813 42.9117 13.3335 42.9117C14.0857 42.9117 14.83 42.7578 15.5206 42.4595C16.2111 42.1611 16.8334 41.7247 17.349 41.177L22.672 35.1L27.99 41.178C28.5056 41.7258 29.1278 42.1624 29.8183 42.4608C30.5089 42.7592 31.2532 42.9131 32.0055 42.9131C32.7578 42.9131 33.5021 42.7592 34.1927 42.4608C34.8832 42.1624 35.5054 41.7258 36.021 41.178L41.339 35.1L46.657 41.178C47.1726 41.7258 47.7948 42.1624 48.4853 42.4608C49.1759 42.7592 49.9202 42.9131 50.6725 42.9131C51.4248 42.9131 52.1691 42.7592 52.8597 42.4608C53.5502 42.1624 54.1724 41.7258 54.688 41.178L56 39.672V35C55.997 33.3504 55.4824 31.7423 54.5273 30.3972C53.5722 29.0522 52.2235 28.0365 50.667 27.49V24.333C50.6739 23.9785 50.61 23.6262 50.479 23.2966C50.3481 22.9671 50.1528 22.667 49.9045 22.4139C49.6562 22.1607 49.36 21.9596 49.033 21.8223C48.7061 21.6851 48.3551 21.6144 48.0005 21.6144C47.6459 21.6144 47.2949 21.6851 46.968 21.8223C46.641 21.9596 46.3448 22.1607 46.0965 22.4139C45.8482 22.667 45.6529 22.9671 45.5219 23.2966C45.391 23.6262 45.3271 23.9785 45.334 24.333V27H34.667V24.333C34.6535 23.6347 34.3666 22.9696 33.868 22.4806C33.3694 21.9916 32.6989 21.7176 32.0005 21.7176C31.3021 21.7176 30.6316 21.9916 30.133 22.4806C29.6344 22.9696 29.3475 23.6347 29.334 24.333V27H18.667V24.333C18.6665 23.6259 18.3853 22.948 17.8852 22.4481C17.3851 21.9482 16.7071 21.6673 16 21.667ZM22.667 43.2L21.36 44.695C20.3589 45.8387 19.1249 46.7553 17.7407 47.3832C16.3564 48.0112 14.854 48.336 13.334 48.336C11.4541 48.3172 9.61311 47.7985 8 46.833V59C8.00027 59.7073 8.28134 60.3855 8.78144 60.8856C9.28154 61.3857 9.95975 61.6667 10.667 61.667H53.333C54.0403 61.6667 54.7185 61.3857 55.2186 60.8856C55.7187 60.3855 55.9997 59.7073 56 59V46.833C53.8782 48.1082 51.374 48.5927 48.9297 48.2009C46.4854 47.8092 44.2581 46.5664 42.641 44.692L41.333 43.2L40.026 44.695C39.0247 45.8385 37.7907 46.7548 36.4065 47.3826C35.0223 48.0104 33.5199 48.3352 32 48.3352C30.4801 48.3352 28.9777 48.0104 27.5935 47.3826C26.2093 46.7548 24.9753 45.8385 23.974 44.695L22.667 43.2Z" fill="white"/>
</svg>
