<svg width="64" height="64" viewBox="0 0 64 64" fill="none" xmlns="http://www.w3.org/2000/svg">
<path d="M18.8001 23.228C18.2698 23.7585 17.9719 24.4779 17.9719 25.228C17.9719 25.9781 18.2698 26.6975 18.8001 27.228L30.9861 39.417C31.5166 39.9473 32.236 40.2452 32.9861 40.2452C33.7362 40.2452 34.4555 39.9473 34.9861 39.417L47.1721 27.228C47.7023 26.6975 48.0002 25.9781 48.0002 25.228C48.0002 24.4779 47.7023 23.7585 47.1721 23.228C46.6415 22.6977 45.9222 22.3998 45.1721 22.3998C44.422 22.3998 43.7026 22.6977 43.1721 23.228L32.9861 33.417L22.8001 23.228C22.2695 22.6977 21.5502 22.3998 20.8001 22.3998C20.05 22.3998 19.3306 22.6977 18.8001 23.228Z" fill="#E0E4EB"/>
</svg>
