<svg width="55" height="54" viewBox="0 0 55 54" fill="none" xmlns="http://www.w3.org/2000/svg">
<path d="M27.667 1.08216e-05C22.3927 -0.000186961 17.2368 1.56364 12.8513 4.49372C8.46581 7.42381 5.04768 11.5886 3.02917 16.4613C1.01065 21.334 0.482412 26.6959 1.51125 31.8689C2.54009 37.0418 5.0798 41.7935 8.80921 45.5231C12.5386 49.2526 17.2902 51.7925 22.4631 52.8215C27.6361 53.8506 32.9979 53.3225 37.8708 51.3042C42.7436 49.2859 46.9085 45.8679 49.8387 41.4825C52.769 37.0971 54.333 31.9413 54.333 26.667C54.3363 23.1642 53.6488 19.6951 52.3099 16.4583C50.9709 13.2215 49.0069 10.2805 46.5301 7.80362C44.0533 5.32671 41.1123 3.36254 37.8756 2.02351C34.6388 0.684469 31.1698 -0.00314616 27.667 1.08216e-05ZM40.219 35.448C40.4666 35.6956 40.663 35.9896 40.797 36.3131C40.931 36.6366 41 36.9833 41 37.3335C41 37.6837 40.931 38.0304 40.797 38.3539C40.663 38.6774 40.4666 38.9714 40.219 39.219C39.9714 39.4666 39.6774 39.663 39.3539 39.797C39.0304 39.931 38.6836 40 38.3335 40C37.9833 40 37.6366 39.931 37.313 39.797C36.9895 39.663 36.6956 39.4666 36.448 39.219L27.667 30.438L18.886 39.219C18.6384 39.4666 18.3444 39.663 18.0209 39.797C17.6974 39.931 17.3506 40 17.0005 40C16.6503 40 16.3036 39.931 15.98 39.797C15.6565 39.663 15.3626 39.4666 15.115 39.219C14.8674 38.9714 14.671 38.6774 14.537 38.3539C14.4029 38.0304 14.334 37.6837 14.334 37.3335C14.334 36.9833 14.4029 36.6366 14.537 36.3131C14.671 35.9896 14.8674 35.6956 15.115 35.448L23.9 26.667L15.119 17.886C14.6189 17.3859 14.338 16.7077 14.338 16.0005C14.338 15.2933 14.6189 14.6151 15.119 14.115C15.619 13.6149 16.2973 13.334 17.0045 13.334C17.7117 13.334 18.3899 13.6149 18.89 14.115L27.667 22.9L36.448 14.119C36.6956 13.8714 36.9895 13.675 37.313 13.541C37.6366 13.407 37.9833 13.338 38.3335 13.338C38.6836 13.338 39.0304 13.407 39.3539 13.541C39.6774 13.675 39.9714 13.8714 40.219 14.119C40.4666 14.3666 40.663 14.6606 40.797 14.9841C40.931 15.3076 41 15.6543 41 16.0045C41 16.3547 40.931 16.7014 40.797 17.0249C40.663 17.3485 40.4666 17.6424 40.219 17.89L31.438 26.671L40.219 35.448Z" fill="#E0E4EB"/>
</svg>
