<svg width="18" height="31" viewBox="0 0 18 31" fill="none" xmlns="http://www.w3.org/2000/svg">
<path d="M0.82822 29.2002C1.35873 29.7305 2.07812 30.0284 2.82822 30.0284C3.57832 30.0284 4.29771 29.7305 4.82822 29.2002L17.0172 17.0142C17.5475 16.4837 17.8454 15.7643 17.8454 15.0142C17.8454 14.2641 17.5475 13.5447 17.0172 13.0142L4.82822 0.82819C4.29771 0.297897 3.57832 0 2.82822 0C2.07812 0 1.35873 0.297897 0.82822 0.82819C0.297928 1.3587 3.05176e-05 2.07809 3.05176e-05 2.82819C3.05176e-05 3.57829 0.297928 4.29768 0.82822 4.82819L11.0172 15.0142L0.82822 25.2002C0.297928 25.7307 3.05176e-05 26.4501 3.05176e-05 27.2002C3.05176e-05 27.9503 0.297928 28.6697 0.82822 29.2002Z" fill="#242841"/>
</svg>
