<svg width="18" height="31" viewBox="0 0 18 31" fill="none" xmlns="http://www.w3.org/2000/svg">
<path d="M0.919682 29.2002C1.45019 29.7305 2.16958 30.0284 2.91968 30.0284C3.66978 30.0284 4.38917 29.7305 4.91968 29.2002L17.1087 17.0142C17.639 16.4837 17.9369 15.7643 17.9369 15.0142C17.9369 14.2641 17.639 13.5447 17.1087 13.0142L4.91968 0.82819C4.38917 0.297897 3.66978 0 2.91968 0C2.16958 0 1.45019 0.297897 0.919682 0.82819C0.389389 1.3587 0.0914917 2.07809 0.0914917 2.82819C0.0914917 3.57829 0.389389 4.29768 0.919682 4.82819L11.1087 15.0142L0.919682 25.2002C0.389389 25.7307 0.0914917 26.4501 0.0914917 27.2002C0.0914917 27.9503 0.389389 28.6697 0.919682 29.2002Z" fill="#E0E4EB"/>
</svg>
