<svg width="18" height="31" viewBox="0 0 18 31" fill="none" xmlns="http://www.w3.org/2000/svg">
<path d="M0.82819 29.2002C1.3587 29.7305 2.07809 30.0284 2.82819 30.0284C3.57829 30.0284 4.29768 29.7305 4.82819 29.2002L17.0172 17.0142C17.5475 16.4837 17.8454 15.7643 17.8454 15.0142C17.8454 14.2641 17.5475 13.5447 17.0172 13.0142L4.82819 0.82819C4.29768 0.297897 3.57829 0 2.82819 0C2.07809 0 1.3587 0.297897 0.82819 0.82819C0.297897 1.3587 0 2.07809 0 2.82819C0 3.57829 0.297897 4.29768 0.82819 4.82819L11.0172 15.0142L0.82819 25.2002C0.297897 25.7307 0 26.4501 0 27.2002C0 27.9503 0.297897 28.6697 0.82819 29.2002Z" fill="white"/>
</svg>
